G04 start of page 11 for group -4015 idx -4015 *
G04 Title: (unknown), toppaste *
G04 Creator: pcb 4.0.2 *
G04 CreationDate: Sun Oct 16 04:01:38 2022 UTC *
G04 For: ndholmes *
G04 Format: Gerber/RS-274X *
G04 PCB-Dimensions (mil): 3350.00 2300.00 *
G04 PCB-Coordinate-Origin: lower left *
%MOIN*%
%FSLAX25Y25*%
%LNTOPPASTE*%
%ADD74C,0.0001*%
G54D74*G36*
X224598Y201783D02*Y198240D01*
X230504D01*
Y201783D01*
X224598D01*
G37*
G36*
Y196783D02*Y193240D01*
X230504D01*
Y196783D01*
X224598D01*
G37*
G36*
Y191783D02*Y188240D01*
X230504D01*
Y191783D01*
X224598D01*
G37*
G36*
Y186783D02*Y183240D01*
X230504D01*
Y186783D01*
X224598D01*
G37*
G36*
Y181783D02*Y178240D01*
X230504D01*
Y181783D01*
X224598D01*
G37*
G36*
Y176783D02*Y173240D01*
X230504D01*
Y176783D01*
X224598D01*
G37*
G36*
Y171783D02*Y168240D01*
X230504D01*
Y171783D01*
X224598D01*
G37*
G36*
Y166783D02*Y163240D01*
X230504D01*
Y166783D01*
X224598D01*
G37*
G36*
Y161783D02*Y158240D01*
X230504D01*
Y161783D01*
X224598D01*
G37*
G36*
Y156783D02*Y153240D01*
X230504D01*
Y156783D01*
X224598D01*
G37*
G36*
Y151783D02*Y148240D01*
X230504D01*
Y151783D01*
X224598D01*
G37*
G36*
Y146783D02*Y143240D01*
X230504D01*
Y146783D01*
X224598D01*
G37*
G36*
Y141783D02*Y138240D01*
X230504D01*
Y141783D01*
X224598D01*
G37*
G36*
Y136783D02*Y133240D01*
X230504D01*
Y136783D01*
X224598D01*
G37*
G36*
X236252Y133043D02*X232709D01*
Y127138D01*
X236252D01*
Y133043D01*
G37*
G36*
X241252D02*X237709D01*
Y127138D01*
X241252D01*
Y133043D01*
G37*
G36*
X246252D02*X242709D01*
Y127138D01*
X246252D01*
Y133043D01*
G37*
G36*
X251252D02*X247709D01*
Y127138D01*
X251252D01*
Y133043D01*
G37*
G36*
X256252D02*X252709D01*
Y127138D01*
X256252D01*
Y133043D01*
G37*
G36*
X261252D02*X257709D01*
Y127138D01*
X261252D01*
Y133043D01*
G37*
G36*
X266252D02*X262709D01*
Y127138D01*
X266252D01*
Y133043D01*
G37*
G36*
X271252D02*X267709D01*
Y127138D01*
X271252D01*
Y133043D01*
G37*
G36*
X276252D02*X272709D01*
Y127138D01*
X276252D01*
Y133043D01*
G37*
G36*
X281252D02*X277709D01*
Y127138D01*
X281252D01*
Y133043D01*
G37*
G36*
X286252D02*X282709D01*
Y127138D01*
X286252D01*
Y133043D01*
G37*
G36*
X291291D02*X287748D01*
Y127138D01*
X291291D01*
Y133043D01*
G37*
G36*
X293496Y201783D02*Y198240D01*
X299402D01*
Y201783D01*
X293496D01*
G37*
G36*
Y196783D02*Y193240D01*
X299402D01*
Y196783D01*
X293496D01*
G37*
G36*
Y191783D02*Y188240D01*
X299402D01*
Y191783D01*
X293496D01*
G37*
G36*
Y186783D02*Y183240D01*
X299402D01*
Y186783D01*
X293496D01*
G37*
G36*
Y181783D02*Y178240D01*
X299402D01*
Y181783D01*
X293496D01*
G37*
G36*
Y176783D02*Y173240D01*
X299402D01*
Y176783D01*
X293496D01*
G37*
G36*
Y171783D02*Y168240D01*
X299402D01*
Y171783D01*
X293496D01*
G37*
G36*
Y166783D02*Y163240D01*
X299402D01*
Y166783D01*
X293496D01*
G37*
G36*
Y161783D02*Y158240D01*
X299402D01*
Y161783D01*
X293496D01*
G37*
G36*
Y156783D02*Y153240D01*
X299402D01*
Y156783D01*
X293496D01*
G37*
G36*
Y151783D02*Y148240D01*
X299402D01*
Y151783D01*
X293496D01*
G37*
G36*
Y146783D02*Y143240D01*
X299402D01*
Y146783D01*
X293496D01*
G37*
G36*
Y141783D02*Y138240D01*
X299402D01*
Y141783D01*
X293496D01*
G37*
G36*
Y136783D02*Y133240D01*
X299402D01*
Y136783D01*
X293496D01*
G37*
G36*
X254323Y176902D02*Y173358D01*
X257866D01*
Y176902D01*
X254323D01*
G37*
G36*
X259835D02*Y173358D01*
X263378D01*
Y176902D01*
X259835D01*
G37*
G36*
X248811D02*Y173358D01*
X252354D01*
Y176902D01*
X248811D01*
G37*
G36*
X254323Y171390D02*Y167846D01*
X257866D01*
Y171390D01*
X254323D01*
G37*
G36*
X259835D02*Y167846D01*
X263378D01*
Y171390D01*
X259835D01*
G37*
G36*
X248811D02*Y167846D01*
X252354D01*
Y171390D01*
X248811D01*
G37*
G36*
X254323Y165878D02*Y162335D01*
X257866D01*
Y165878D01*
X254323D01*
G37*
G36*
X259835D02*Y162335D01*
X263378D01*
Y165878D01*
X259835D01*
G37*
G36*
X248811D02*Y162335D01*
X252354D01*
Y165878D01*
X248811D01*
G37*
G36*
X310276Y98307D02*X306732D01*
Y92402D01*
X310276D01*
Y98307D01*
G37*
G36*
X323268D02*X319724D01*
Y92402D01*
X323268D01*
Y98307D01*
G37*
G36*
X310276Y117598D02*X306732D01*
Y111693D01*
X310276D01*
Y117598D01*
G37*
G36*
X323268D02*X319724D01*
Y111693D01*
X323268D01*
Y117598D01*
G37*
G36*
X216559Y176452D02*X211441D01*
Y170548D01*
X216559D01*
Y176452D01*
G37*
G36*
X209473D02*X204355D01*
Y170548D01*
X209473D01*
Y176452D01*
G37*
G36*
X216559Y185952D02*X211441D01*
Y180048D01*
X216559D01*
Y185952D01*
G37*
G36*
X209473D02*X204355D01*
Y180048D01*
X209473D01*
Y185952D01*
G37*
G36*
X25602Y180952D02*X20484D01*
Y175048D01*
X25602D01*
Y180952D01*
G37*
G36*
X18516D02*X13398D01*
Y175048D01*
X18516D01*
Y180952D01*
G37*
G36*
X212048Y195016D02*Y189898D01*
X217952D01*
Y195016D01*
X212048D01*
G37*
G36*
Y202102D02*Y196984D01*
X217952D01*
Y202102D01*
X212048D01*
G37*
G36*
X139602Y126952D02*X134484D01*
Y121048D01*
X139602D01*
Y126952D01*
G37*
G36*
X132516D02*X127398D01*
Y121048D01*
X132516D01*
Y126952D01*
G37*
G36*
X161602D02*X156484D01*
Y121048D01*
X161602D01*
Y126952D01*
G37*
G36*
X154516D02*X149398D01*
Y121048D01*
X154516D01*
Y126952D01*
G37*
G36*
X191548Y84102D02*Y78984D01*
X197452D01*
Y84102D01*
X191548D01*
G37*
G36*
Y77016D02*Y71898D01*
X197452D01*
Y77016D01*
X191548D01*
G37*
G36*
X172102Y51952D02*X166984D01*
Y46048D01*
X172102D01*
Y51952D01*
G37*
G36*
X165016D02*X159898D01*
Y46048D01*
X165016D01*
Y51952D01*
G37*
G36*
X41048Y210016D02*Y204898D01*
X46952D01*
Y210016D01*
X41048D01*
G37*
G36*
Y217102D02*Y211984D01*
X46952D01*
Y217102D01*
X41048D01*
G37*
G36*
X41016Y196452D02*X35898D01*
Y190548D01*
X41016D01*
Y196452D01*
G37*
G36*
X33930D02*X28812D01*
Y190548D01*
X33930D01*
Y196452D01*
G37*
G36*
X51850Y216296D02*Y212996D01*
X57552D01*
Y216296D01*
X51850D01*
G37*
G36*
Y211374D02*Y208074D01*
X57552D01*
Y211374D01*
X51850D01*
G37*
G36*
Y206453D02*Y203153D01*
X57552D01*
Y206453D01*
X51850D01*
G37*
G36*
Y201532D02*Y198232D01*
X57552D01*
Y201532D01*
X51850D01*
G37*
G36*
Y196611D02*Y193311D01*
X57552D01*
Y196611D01*
X51850D01*
G37*
G36*
Y191689D02*Y188389D01*
X57552D01*
Y191689D01*
X51850D01*
G37*
G36*
Y186768D02*Y183468D01*
X57552D01*
Y186768D01*
X51850D01*
G37*
G36*
Y181847D02*Y178547D01*
X57552D01*
Y181847D01*
X51850D01*
G37*
G36*
Y176926D02*Y173626D01*
X57552D01*
Y176926D01*
X51850D01*
G37*
G36*
Y172004D02*Y168704D01*
X57552D01*
Y172004D01*
X51850D01*
G37*
G36*
Y167083D02*Y163783D01*
X57552D01*
Y167083D01*
X51850D01*
G37*
G36*
Y162162D02*Y158862D01*
X57552D01*
Y162162D01*
X51850D01*
G37*
G36*
X64926Y157300D02*X61626D01*
Y151602D01*
X64926D01*
Y157300D01*
G37*
G36*
X69847D02*X66547D01*
Y151602D01*
X69847D01*
Y157300D01*
G37*
G36*
X74768D02*X71468D01*
Y151602D01*
X74768D01*
Y157300D01*
G37*
G36*
X79689D02*X76389D01*
Y151602D01*
X79689D01*
Y157300D01*
G37*
G36*
X84611D02*X81311D01*
Y151602D01*
X84611D01*
Y157300D01*
G37*
G36*
X89532D02*X86232D01*
Y151602D01*
X89532D01*
Y157300D01*
G37*
G36*
X94453D02*X91153D01*
Y151602D01*
X94453D01*
Y157300D01*
G37*
G36*
X99374D02*X96074D01*
Y151602D01*
X99374D01*
Y157300D01*
G37*
G36*
X103448Y162162D02*Y158862D01*
X109150D01*
Y162162D01*
X103448D01*
G37*
G36*
Y167083D02*Y163783D01*
X109150D01*
Y167083D01*
X103448D01*
G37*
G36*
Y172004D02*Y168704D01*
X109150D01*
Y172004D01*
X103448D01*
G37*
G36*
Y176926D02*Y173626D01*
X109150D01*
Y176926D01*
X103448D01*
G37*
G36*
Y181847D02*Y178547D01*
X109150D01*
Y181847D01*
X103448D01*
G37*
G36*
Y186768D02*Y183468D01*
X109150D01*
Y186768D01*
X103448D01*
G37*
G36*
Y191689D02*Y188389D01*
X109150D01*
Y191689D01*
X103448D01*
G37*
G36*
Y196611D02*Y193311D01*
X109150D01*
Y196611D01*
X103448D01*
G37*
G36*
Y201532D02*Y198232D01*
X109150D01*
Y201532D01*
X103448D01*
G37*
G36*
Y206453D02*Y203153D01*
X109150D01*
Y206453D01*
X103448D01*
G37*
G36*
Y211374D02*Y208074D01*
X109150D01*
Y211374D01*
X103448D01*
G37*
G36*
Y216296D02*Y212996D01*
X109150D01*
Y216296D01*
X103448D01*
G37*
G36*
Y221217D02*Y217917D01*
X109150D01*
Y221217D01*
X103448D01*
G37*
G36*
Y226138D02*Y222838D01*
X109150D01*
Y226138D01*
X103448D01*
G37*
G36*
X35048Y159516D02*Y154398D01*
X40952D01*
Y159516D01*
X35048D01*
G37*
G36*
Y166602D02*Y161484D01*
X40952D01*
Y166602D01*
X35048D01*
G37*
G36*
X102548Y122016D02*Y116898D01*
X108452D01*
Y122016D01*
X102548D01*
G37*
G36*
Y129102D02*Y123984D01*
X108452D01*
Y129102D01*
X102548D01*
G37*
G36*
X92548Y122516D02*Y117398D01*
X98452D01*
Y122516D01*
X92548D01*
G37*
G36*
Y129602D02*Y124484D01*
X98452D01*
Y129602D01*
X92548D01*
G37*
G36*
X227700Y52350D02*X223300D01*
Y42750D01*
X227700D01*
Y52350D01*
G37*
G36*
X237700D02*X233300D01*
Y42750D01*
X237700D01*
Y52350D01*
G37*
G36*
X247700D02*X243300D01*
Y42750D01*
X247700D01*
Y52350D01*
G37*
G36*
X257700D02*X253300D01*
Y42750D01*
X257700D01*
Y52350D01*
G37*
G36*
X267700D02*X263300D01*
Y42750D01*
X267700D01*
Y52350D01*
G37*
G36*
X277700D02*X273300D01*
Y42750D01*
X277700D01*
Y52350D01*
G37*
G36*
X287700D02*X283300D01*
Y42750D01*
X287700D01*
Y52350D01*
G37*
G36*
X297700D02*X293300D01*
Y42750D01*
X297700D01*
Y52350D01*
G37*
G36*
X227700Y86250D02*X223300D01*
Y76650D01*
X227700D01*
Y86250D01*
G37*
G36*
X237700D02*X233300D01*
Y76650D01*
X237700D01*
Y86250D01*
G37*
G36*
X247700D02*X243300D01*
Y76650D01*
X247700D01*
Y86250D01*
G37*
G36*
X257700D02*X253300D01*
Y76650D01*
X257700D01*
Y86250D01*
G37*
G36*
X267700D02*X263300D01*
Y76650D01*
X267700D01*
Y86250D01*
G37*
G36*
X277700D02*X273300D01*
Y76650D01*
X277700D01*
Y86250D01*
G37*
G36*
X287700D02*X283300D01*
Y76650D01*
X287700D01*
Y86250D01*
G37*
G36*
X297700D02*X293300D01*
Y76650D01*
X297700D01*
Y86250D01*
G37*
G36*
X170150Y212100D02*X164650D01*
Y203800D01*
X170150D01*
Y212100D01*
G37*
G36*
Y176200D02*X164650D01*
Y167900D01*
X170150D01*
Y176200D01*
G37*
G36*
X152350Y212100D02*X146850D01*
Y203800D01*
X152350D01*
Y212100D01*
G37*
G36*
Y176200D02*X146850D01*
Y167900D01*
X152350D01*
Y176200D01*
G37*
G36*
X139602Y140952D02*X134484D01*
Y135048D01*
X139602D01*
Y140952D01*
G37*
G36*
X132516D02*X127398D01*
Y135048D01*
X132516D01*
Y140952D01*
G37*
G36*
X161102D02*X155984D01*
Y135048D01*
X161102D01*
Y140952D01*
G37*
G36*
X154016D02*X148898D01*
Y135048D01*
X154016D01*
Y140952D01*
G37*
G36*
X139102Y154952D02*X133984D01*
Y149048D01*
X139102D01*
Y154952D01*
G37*
G36*
X132016D02*X126898D01*
Y149048D01*
X132016D01*
Y154952D01*
G37*
G36*
X161102D02*X155984D01*
Y149048D01*
X161102D01*
Y154952D01*
G37*
G36*
X154016D02*X148898D01*
Y149048D01*
X154016D01*
Y154952D01*
G37*
G36*
X170425Y36697D02*X168654D01*
Y32760D01*
X170425D01*
Y36697D01*
G37*
G36*
X173575D02*X171803D01*
Y32760D01*
X173575D01*
Y36697D01*
G37*
G36*
X176724D02*X174953D01*
Y32760D01*
X176724D01*
Y36697D01*
G37*
G36*
X179874D02*X178102D01*
Y32760D01*
X179874D01*
Y36697D01*
G37*
G36*
X183024D02*X181252D01*
Y32760D01*
X183024D01*
Y36697D01*
G37*
G36*
X161862Y16126D02*X155563D01*
Y8252D01*
X161862D01*
Y16126D01*
G37*
G36*
X196114D02*X189815D01*
Y8252D01*
X196114D01*
Y16126D01*
G37*
G36*
X161862Y37780D02*X155563D01*
Y29906D01*
X161862D01*
Y37780D01*
G37*
G36*
X196114D02*X189815D01*
Y29906D01*
X196114D01*
Y37780D01*
G37*
G36*
X172800Y66000D02*Y60400D01*
X185000D01*
Y66000D01*
X172800D01*
G37*
G36*
Y75000D02*Y69400D01*
X185000D01*
Y75000D01*
X172800D01*
G37*
G36*
Y84100D02*Y78500D01*
X185000D01*
Y84100D01*
X172800D01*
G37*
G36*
X160600Y82800D02*X148400D01*
Y61600D01*
X160600D01*
Y82800D01*
G37*
G36*
X164112Y96009D02*Y90891D01*
X170016D01*
Y96009D01*
X164112D01*
G37*
G36*
Y103095D02*Y97977D01*
X170016D01*
Y103095D01*
X164112D01*
G37*
M02*
