G04 start of page 2 for group 0 idx 0 *
G04 Title: (unknown), top *
G04 Creator: pcb 4.0.2 *
G04 CreationDate: Sun Oct 16 04:01:38 2022 UTC *
G04 For: ndholmes *
G04 Format: Gerber/RS-274X *
G04 PCB-Dimensions (mil): 3350.00 2300.00 *
G04 PCB-Coordinate-Origin: lower left *
%MOIN*%
%FSLAX25Y25*%
%LNTOP*%
%ADD30C,0.0390*%
%ADD29C,0.1285*%
%ADD28C,0.0433*%
%ADD27C,0.0380*%
%ADD26C,0.0935*%
%ADD25C,0.0790*%
%ADD24C,0.0120*%
%ADD23C,0.0260*%
%ADD22C,0.0310*%
%ADD21C,0.2937*%
%ADD20C,0.0633*%
%ADD19C,0.0680*%
%ADD18C,0.0550*%
%ADD17C,0.0500*%
%ADD16C,0.0450*%
%ADD15C,0.0400*%
%ADD14C,0.0350*%
%ADD13C,0.0250*%
%ADD12C,0.0100*%
%ADD11C,0.0001*%
G54D11*G36*
X142500Y213000D02*X156500D01*
Y167500D01*
X142500D01*
Y213000D01*
G37*
G36*
X160500D02*X174500D01*
Y167500D01*
X160500D01*
Y213000D01*
G37*
G36*
X243500Y182000D02*X268500D01*
Y157000D01*
X243500D01*
Y182000D01*
G37*
G36*
X158500Y81500D02*Y62000D01*
X95500D01*
Y81500D01*
X158500D01*
G37*
G36*
X95500Y96000D02*X158500D01*
Y72000D01*
X95500D01*
Y96000D01*
G37*
G36*
X37000D02*X141500D01*
Y15000D01*
X37000D01*
Y96000D01*
G37*
G36*
X104000Y88500D02*X158500D01*
Y42500D01*
X104000D01*
Y88500D01*
G37*
G36*
X148000Y22000D02*X163518D01*
X163797Y21544D01*
X164223Y21046D01*
X164721Y20620D01*
X165280Y20277D01*
X165886Y20026D01*
X166524Y19873D01*
X167177Y19822D01*
X167831Y19873D01*
X168468Y20026D01*
X169074Y20277D01*
X169633Y20620D01*
X170132Y21046D01*
X170557Y21544D01*
X170837Y22000D01*
X180840D01*
X181120Y21544D01*
X181546Y21046D01*
X182044Y20620D01*
X182603Y20277D01*
X183209Y20026D01*
X183846Y19873D01*
X184500Y19822D01*
X185154Y19873D01*
X185791Y20026D01*
X186397Y20277D01*
X186956Y20620D01*
X187454Y21046D01*
X187880Y21544D01*
X188160Y22000D01*
X204500D01*
Y3000D01*
X148000D01*
Y22000D01*
G37*
G36*
X192000Y32000D02*X204500D01*
Y3500D01*
X192000D01*
Y32000D01*
G37*
G36*
X148000D02*X160500D01*
Y3500D01*
X148000D01*
Y32000D01*
G37*
G36*
Y38000D02*X160500D01*
Y9500D01*
X148000D01*
Y38000D01*
G37*
G36*
X192000D02*X204500D01*
Y9500D01*
X192000D01*
Y38000D01*
G37*
G36*
X163500Y67000D02*X188000D01*
Y57500D01*
X163500D01*
Y67000D01*
G37*
G54D12*X244480Y130091D02*Y109980D01*
X225500Y91000D01*
Y81450D01*
X235500Y93500D02*Y81450D01*
X249480Y107480D02*X235500Y93500D01*
X245500Y95500D02*Y81450D01*
X289000Y76000D02*Y108000D01*
X291500Y110500D02*Y76000D01*
X289000Y108000D02*X279500Y117500D01*
Y130071D01*
X279480Y130091D01*
X284480D02*Y117520D01*
X291500Y110500D01*
X249480Y130091D02*Y107480D01*
X254480Y130091D02*Y104480D01*
X259480Y130091D02*Y100480D01*
X264480Y130091D02*Y100520D01*
X254480Y104480D02*X245500Y95500D01*
X259480Y100480D02*X255500Y96500D01*
Y81450D01*
X264480Y100520D02*X265500Y99500D01*
Y81450D01*
X269480Y130091D02*Y102020D01*
X274480Y130091D02*Y106020D01*
X289520Y130091D02*Y117980D01*
X292500Y115000D01*
X308150D01*
X308504Y114646D01*
X269480Y102020D02*X275500Y96000D01*
Y81450D01*
X274480Y106020D02*X285500Y95000D01*
Y81450D01*
X296050Y101050D02*X300000Y105000D01*
X313500D01*
X296449Y135012D02*X311988D01*
X316000Y131000D01*
Y107500D01*
X314250Y105750D01*
G54D13*X225500Y47550D02*X295500D01*
G54D12*X287500Y9500D02*Y20000D01*
X284500Y9500D02*Y20500D01*
X287500Y6500D02*Y11000D01*
X284500Y18500D02*Y36500D01*
X287000Y39000D01*
X287500Y17000D02*Y34500D01*
X287000Y39000D02*X299000D01*
X301500Y41500D01*
X300000Y36000D02*X304000Y40000D01*
G54D13*X295500Y14500D02*Y26000D01*
X298000Y32000D02*X295500Y29500D01*
Y21000D01*
X291500Y14500D02*X295500D01*
G54D12*X301500Y41500D02*Y54000D01*
X304000Y40000D02*Y55000D01*
X287500Y34500D02*X289000Y36000D01*
X300000D01*
X295550Y81500D02*X295500Y81450D01*
X321500Y102500D02*Y95358D01*
X321496Y95354D01*
X296050Y82000D02*Y101050D01*
G54D13*X308500Y85000D02*Y95500D01*
G54D12*X313500Y105000D02*X316000Y107500D01*
G54D13*X308500Y87000D02*Y36500D01*
G54D12*X304000Y53000D02*Y68500D01*
X302000Y70500D01*
X293500D01*
X300500Y68000D02*X301500Y67000D01*
Y50500D01*
X293500Y70500D02*X291500Y72500D01*
X289000Y71000D02*X291500Y68500D01*
X292000Y68000D02*X290750Y69250D01*
X292000Y68000D02*X300500D01*
X291500Y72500D02*Y77500D01*
X289000Y78500D02*Y71000D01*
G54D13*X308500Y36500D02*X304000Y32000D01*
X298000D01*
G54D14*X306000Y200000D02*X295961D01*
X227551Y200012D02*X217512D01*
G54D13*X217500Y200000D01*
G54D14*X209000D02*X219000D01*
G54D12*X204000Y206000D02*X169350D01*
X167400Y207950D01*
G54D13*X214500Y192500D02*X219000D01*
G54D12*X214000Y173500D02*Y183000D01*
X217500D01*
G54D13*X219000Y192500D02*X221500Y195000D01*
X227500D01*
G54D12*X227551Y190012D02*X224512D01*
X220500Y186000D01*
X217500Y183000D02*X221250Y186750D01*
G54D15*X215000Y192500D02*X192500D01*
X188000Y188000D01*
G54D12*X206914Y183000D02*Y192414D01*
X207000Y192500D01*
X202500Y178500D02*Y177914D01*
X206914Y173500D01*
X214000Y60500D02*Y134000D01*
X212000Y135000D02*Y61500D01*
G54D15*X188000Y108000D02*Y97000D01*
X184500Y93500D01*
X154500D01*
G54D16*X161064Y100493D02*X173064D01*
G54D17*X204000Y79500D02*X202000Y81500D01*
X194000D01*
G54D15*X193957Y81543D01*
G54D13*X158957Y152000D02*Y124000D01*
G54D12*X137043D02*X151957D01*
Y138000D02*X137043D01*
X136543Y152000D02*X151457D01*
X130000Y152043D02*X129957Y152000D01*
X128000Y200500D02*X129500Y199000D01*
Y152043D01*
X129457Y152000D01*
X128000Y200500D02*X128500Y200000D01*
X125500Y142457D02*X129957Y138000D01*
X132500Y200500D02*Y201500D01*
X130500Y203500D01*
X128000D01*
X214000Y134000D02*X216500Y136500D01*
X220000D01*
X215500Y138500D02*X212000Y135000D01*
X215500Y138500D02*X225000D01*
X226000Y139500D01*
X219000Y136500D02*X225000D01*
X226000Y135500D01*
G54D15*X188000Y188000D02*Y107000D01*
G54D12*X228000Y165500D02*X203000D01*
X192500D02*X205500D01*
X227551Y160012D02*X192512D01*
X192500Y160000D01*
X227551Y155012D02*X192512D01*
X192500Y155000D01*
Y150000D02*X227539D01*
X227551Y150012D01*
X178000Y45500D02*X210500D01*
X177000Y47500D02*X209500D01*
X210500Y45500D02*X214000Y49000D01*
X209500Y47500D02*X212000Y50000D01*
G54D17*X200000Y53000D02*X204000Y57000D01*
G54D12*X214000Y49000D02*Y63000D01*
X212000Y50000D02*Y67000D01*
X175500Y35067D02*X175839Y34728D01*
X172689Y34630D02*Y43189D01*
X175000Y45500D01*
X175783Y34783D02*Y43283D01*
G54D13*X182138Y34728D02*Y41362D01*
X182000Y41500D01*
X190000D01*
X169539Y34630D02*Y48996D01*
G54D18*X178900Y72200D02*X154500D01*
G54D15*X162500Y43500D02*Y54500D01*
G54D12*X173500Y44000D02*X177000Y47500D01*
X175783Y43283D02*X178000Y45500D01*
G54D15*X162500Y54500D02*X167000Y59000D01*
G54D13*X169539Y48996D02*X169543Y49000D01*
G54D15*X169539Y48961D02*Y49039D01*
G54D17*X173500Y53000D01*
G54D15*X194500Y74457D02*Y65500D01*
X192000Y63000D01*
X179100D01*
G54D17*X194500Y81543D02*X179143D01*
G54D15*X178900Y81300D01*
G54D17*X173500Y53000D02*X200000D01*
X204000Y57000D02*Y79500D01*
G54D13*X85500Y104000D02*Y90000D01*
G54D15*X51000Y93500D02*X16000D01*
X6500Y103000D01*
G54D12*X95500Y104500D02*Y120000D01*
X105500Y104000D02*Y120000D01*
G54D13*Y126543D02*X89543D01*
X85500Y122500D01*
Y104500D01*
G54D12*X105457Y126543D02*X113957D01*
X116500Y124000D01*
X129957D01*
X9800Y122500D02*Y114700D01*
X11500Y113000D01*
X42500D01*
X49000Y119500D01*
G54D14*X54701Y214646D02*X45646D01*
G54D13*X54701Y209724D02*X46267D01*
G54D12*X49500Y205000D02*X54504D01*
X54701Y204803D01*
X49500Y205000D02*Y203000D01*
G54D13*X46267Y209724D02*X44000Y207457D01*
Y203000D02*Y207000D01*
X43772Y207228D01*
G54D15*X44000Y202500D02*Y207457D01*
G54D13*X38457Y193500D02*Y197457D01*
X44000Y203000D01*
G54D15*X38500Y192500D02*Y197000D01*
X44000Y202500D01*
X31371Y193500D02*Y199871D01*
X37000Y205500D01*
Y213500D01*
X38000Y214500D01*
X43957D01*
X44000Y214543D01*
G54D12*X49500Y203000D02*X43500Y197000D01*
X49500Y199500D02*X54319D01*
X54701Y199882D01*
X49500Y199500D02*X46000Y196000D01*
X49500Y193000D02*Y195500D01*
X30100Y186100D02*Y186600D01*
G54D15*X36500Y185500D02*X38500Y187500D01*
Y193457D01*
X38457Y193500D01*
G54D12*X43500Y197000D02*Y186000D01*
X46000Y196000D02*Y185000D01*
Y185500D02*Y184000D01*
X26500Y117400D02*Y124500D01*
X23900Y132000D02*X20200Y135700D01*
X11800D01*
X9800Y133700D02*Y118900D01*
X49000Y119500D02*Y154000D01*
X46000Y153000D02*Y140100D01*
X43500Y137600D01*
X30100Y146900D02*Y168100D01*
X35500Y173500D01*
G54D15*X6500Y103000D02*Y180500D01*
G54D12*X11800Y135700D02*X9800Y133700D01*
X22800Y143700D02*Y165300D01*
X36500Y179000D01*
X30000Y178000D02*X23043D01*
X22800Y147700D02*Y138200D01*
X30100Y148100D02*Y138100D01*
X41700Y135800D02*X32700D01*
X38500D02*X41700D01*
X26500Y124500D02*X29000Y127000D01*
X44500Y138600D02*X42900Y137000D01*
X38000Y151500D02*Y156957D01*
X41700Y135800D02*X44000Y138100D01*
X22800Y138200D02*X24000Y137000D01*
X30100Y138100D02*X29000Y137000D01*
Y132000D02*Y132100D01*
X32700Y135800D01*
X24000Y132000D02*X23900D01*
G54D13*X54555Y170500D02*X54701Y170354D01*
X54689Y160500D02*X54701Y160512D01*
G54D14*X49000Y170500D02*Y160500D01*
Y170500D02*X55555D01*
X49000Y160500D02*X55689D01*
G54D12*X49500Y186000D02*X50500Y185000D01*
X54583D01*
X54701Y185118D01*
X46000Y184000D02*X33500Y171500D01*
X38043Y164000D02*X38000Y164043D01*
X38272Y163772D02*Y172272D01*
X35500Y178000D02*X39750Y182250D01*
X47500Y179000D02*X51000Y175500D01*
X51224Y175276D02*X50000Y176500D01*
X54701Y175276D02*X51224D01*
G54D15*X6500Y180500D02*X11500Y185500D01*
X36500D01*
X17000Y193500D02*X31371D01*
G54D12*X43500Y186000D02*X38000Y180500D01*
X49500Y194500D02*Y186000D01*
X45000Y179000D02*X47500D01*
X16000Y185500D02*Y178043D01*
X15957Y178000D01*
X38272Y172272D02*X45000Y179000D01*
X49000Y154000D02*X45500Y157500D01*
X38272Y164000D02*X42000D01*
X43000Y163000D01*
Y156000D01*
X46000Y153000D01*
X45500Y157500D02*Y173500D01*
X22800Y177757D02*X23043Y178000D01*
G54D13*X112488Y160512D02*X112500Y160500D01*
G54D14*X106299Y160512D02*X112488D01*
G54D12*X125500Y183000D02*Y142457D01*
X106299Y175276D02*X120276D01*
X122000Y177000D01*
Y182000D01*
G54D13*X115354Y214646D02*X115500Y214500D01*
G54D14*X106299Y214646D02*X115354D01*
X115500Y222000D02*Y195500D01*
X113012Y224488D02*X115500Y222000D01*
X106299Y224488D02*X113012D01*
G54D12*X106299Y185118D02*X123382D01*
X125500Y183000D01*
X120500Y203500D02*X130000D01*
X124000Y200500D02*X128000D01*
X119000Y189000D02*Y202000D01*
X120500Y203500D01*
X106299Y190039D02*X111961D01*
X113000Y189000D01*
G54D14*X115500Y191500D02*Y201500D01*
G54D13*Y191000D02*Y194500D01*
G54D12*X117000Y188000D02*X114000D01*
X112750Y189250D01*
X116500Y188000D02*X118000D01*
X119000Y189000D01*
G54D11*G36*
X72198Y107514D02*Y100714D01*
X78998D01*
Y107514D01*
X72198D01*
G37*
G54D19*X85598Y104114D03*
X95598D03*
X105598D03*
G54D20*X167177Y24000D03*
X184500D03*
G54D21*X318000Y17000D03*
Y213000D03*
X17000D03*
Y17000D03*
G54D11*G36*
X191548Y84102D02*Y78984D01*
X197452D01*
Y84102D01*
X191548D01*
G37*
G36*
Y77016D02*Y71898D01*
X197452D01*
Y77016D01*
X191548D01*
G37*
G36*
X227700Y52350D02*X223300D01*
Y42750D01*
X227700D01*
Y52350D01*
G37*
G36*
Y86250D02*X223300D01*
Y76650D01*
X227700D01*
Y86250D01*
G37*
G36*
X237700Y52350D02*X233300D01*
Y42750D01*
X237700D01*
Y52350D01*
G37*
G36*
Y86250D02*X233300D01*
Y76650D01*
X237700D01*
Y86250D01*
G37*
G36*
X247700Y52350D02*X243300D01*
Y42750D01*
X247700D01*
Y52350D01*
G37*
G36*
Y86250D02*X243300D01*
Y76650D01*
X247700D01*
Y86250D01*
G37*
G36*
X257700Y52350D02*X253300D01*
Y42750D01*
X257700D01*
Y52350D01*
G37*
G36*
Y86250D02*X253300D01*
Y76650D01*
X257700D01*
Y86250D01*
G37*
G36*
X267700D02*X263300D01*
Y76650D01*
X267700D01*
Y86250D01*
G37*
G36*
X277700D02*X273300D01*
Y76650D01*
X277700D01*
Y86250D01*
G37*
G36*
X287700D02*X283300D01*
Y76650D01*
X287700D01*
Y86250D01*
G37*
G36*
X297700D02*X293300D01*
Y76650D01*
X297700D01*
Y86250D01*
G37*
G36*
X267700Y52350D02*X263300D01*
Y42750D01*
X267700D01*
Y52350D01*
G37*
G36*
X277700D02*X273300D01*
Y42750D01*
X277700D01*
Y52350D01*
G37*
G36*
X287700D02*X283300D01*
Y42750D01*
X287700D01*
Y52350D01*
G37*
G36*
X297700D02*X293300D01*
Y42750D01*
X297700D01*
Y52350D01*
G37*
G36*
X172102Y51952D02*X166984D01*
Y46048D01*
X172102D01*
Y51952D01*
G37*
G36*
X165016D02*X159898D01*
Y46048D01*
X165016D01*
Y51952D01*
G37*
G36*
X176823Y37780D02*X174854D01*
Y31480D01*
X176823D01*
Y37780D01*
G37*
G36*
X176724Y36697D02*X174953D01*
Y32760D01*
X176724D01*
Y36697D01*
G37*
G36*
X170524Y37780D02*X168555D01*
Y31480D01*
X170524D01*
Y37780D01*
G37*
G36*
X170425Y36697D02*X168654D01*
Y32760D01*
X170425D01*
Y36697D01*
G37*
G36*
X173673Y37780D02*X171705D01*
Y31480D01*
X173673D01*
Y37780D01*
G37*
G36*
X173575Y36697D02*X171803D01*
Y32760D01*
X173575D01*
Y36697D01*
G37*
G36*
X161862Y37780D02*X155563D01*
Y29906D01*
X161862D01*
Y37780D01*
G37*
G36*
X172800Y66000D02*Y60400D01*
X185000D01*
Y66000D01*
X172800D01*
G37*
G36*
Y75000D02*Y69400D01*
X185000D01*
Y75000D01*
X172800D01*
G37*
G36*
X160600Y82800D02*X148400D01*
Y61600D01*
X160600D01*
Y82800D01*
G37*
G36*
X172800Y84100D02*Y78500D01*
X185000D01*
Y84100D01*
X172800D01*
G37*
G36*
X179972Y37780D02*X178004D01*
Y31480D01*
X179972D01*
Y37780D01*
G37*
G36*
X179874Y36697D02*X178102D01*
Y32760D01*
X179874D01*
Y36697D01*
G37*
G36*
X183122Y37780D02*X181154D01*
Y31480D01*
X183122D01*
Y37780D01*
G37*
G36*
X183024Y36697D02*X181252D01*
Y32760D01*
X183024D01*
Y36697D01*
G37*
G36*
X161862Y16126D02*X155563D01*
Y8252D01*
X161862D01*
Y16126D01*
G37*
G36*
X196114D02*X189815D01*
Y8252D01*
X196114D01*
Y16126D01*
G37*
G36*
Y37780D02*X189815D01*
Y29906D01*
X196114D01*
Y37780D01*
G37*
G36*
X224598Y161783D02*Y158240D01*
X230504D01*
Y161783D01*
X224598D01*
G37*
G36*
Y156783D02*Y153240D01*
X230504D01*
Y156783D01*
X224598D01*
G37*
G36*
Y151783D02*Y148240D01*
X230504D01*
Y151783D01*
X224598D01*
G37*
G36*
Y146783D02*Y143240D01*
X230504D01*
Y146783D01*
X224598D01*
G37*
G36*
Y141783D02*Y138240D01*
X230504D01*
Y141783D01*
X224598D01*
G37*
G36*
Y136783D02*Y133240D01*
X230504D01*
Y136783D01*
X224598D01*
G37*
G36*
X236252Y133043D02*X232709D01*
Y127138D01*
X236252D01*
Y133043D01*
G37*
G36*
X241252D02*X237709D01*
Y127138D01*
X241252D01*
Y133043D01*
G37*
G36*
X246252D02*X242709D01*
Y127138D01*
X246252D01*
Y133043D01*
G37*
G36*
X254323Y176902D02*Y173358D01*
X257866D01*
Y176902D01*
X254323D01*
G37*
G36*
X248811D02*Y173358D01*
X252354D01*
Y176902D01*
X248811D01*
G37*
G36*
X254323Y171390D02*Y167846D01*
X257866D01*
Y171390D01*
X254323D01*
G37*
G36*
X248811D02*Y167846D01*
X252354D01*
Y171390D01*
X248811D01*
G37*
G36*
X254323Y165878D02*Y162335D01*
X257866D01*
Y165878D01*
X254323D01*
G37*
G36*
X248811D02*Y162335D01*
X252354D01*
Y165878D01*
X248811D01*
G37*
G36*
X259835Y176902D02*Y173358D01*
X263378D01*
Y176902D01*
X259835D01*
G37*
G36*
Y171390D02*Y167846D01*
X263378D01*
Y171390D01*
X259835D01*
G37*
G36*
Y165878D02*Y162335D01*
X263378D01*
Y165878D01*
X259835D01*
G37*
G36*
X224598Y186783D02*Y183240D01*
X230504D01*
Y186783D01*
X224598D01*
G37*
G36*
Y181783D02*Y178240D01*
X230504D01*
Y181783D01*
X224598D01*
G37*
G36*
Y176783D02*Y173240D01*
X230504D01*
Y176783D01*
X224598D01*
G37*
G36*
Y171783D02*Y168240D01*
X230504D01*
Y171783D01*
X224598D01*
G37*
G36*
Y201783D02*Y198240D01*
X230504D01*
Y201783D01*
X224598D01*
G37*
G36*
Y196783D02*Y193240D01*
X230504D01*
Y196783D01*
X224598D01*
G37*
G36*
Y191783D02*Y188240D01*
X230504D01*
Y191783D01*
X224598D01*
G37*
G36*
Y166783D02*Y163240D01*
X230504D01*
Y166783D01*
X224598D01*
G37*
G36*
X216559Y176452D02*X211441D01*
Y170548D01*
X216559D01*
Y176452D01*
G37*
G36*
Y185952D02*X211441D01*
Y180048D01*
X216559D01*
Y185952D01*
G37*
G36*
X209473D02*X204355D01*
Y180048D01*
X209473D01*
Y185952D01*
G37*
G36*
X212048Y195016D02*Y189898D01*
X217952D01*
Y195016D01*
X212048D01*
G37*
G36*
Y202102D02*Y196984D01*
X217952D01*
Y202102D01*
X212048D01*
G37*
G36*
X170150Y176200D02*X164650D01*
Y167900D01*
X170150D01*
Y176200D01*
G37*
G36*
X152350D02*X146850D01*
Y167900D01*
X152350D01*
Y176200D01*
G37*
G36*
X139102Y154952D02*X133984D01*
Y149048D01*
X139102D01*
Y154952D01*
G37*
G36*
X161102D02*X155984D01*
Y149048D01*
X161102D01*
Y154952D01*
G37*
G36*
X154016D02*X148898D01*
Y149048D01*
X154016D01*
Y154952D01*
G37*
G36*
X251252Y133043D02*X247709D01*
Y127138D01*
X251252D01*
Y133043D01*
G37*
G36*
X256252D02*X252709D01*
Y127138D01*
X256252D01*
Y133043D01*
G37*
G36*
X261252D02*X257709D01*
Y127138D01*
X261252D01*
Y133043D01*
G37*
G36*
X266252D02*X262709D01*
Y127138D01*
X266252D01*
Y133043D01*
G37*
G36*
X271252D02*X267709D01*
Y127138D01*
X271252D01*
Y133043D01*
G37*
G36*
X276252D02*X272709D01*
Y127138D01*
X276252D01*
Y133043D01*
G37*
G36*
X281252D02*X277709D01*
Y127138D01*
X281252D01*
Y133043D01*
G37*
G36*
X286252D02*X282709D01*
Y127138D01*
X286252D01*
Y133043D01*
G37*
G36*
X291291D02*X287748D01*
Y127138D01*
X291291D01*
Y133043D01*
G37*
G36*
X293496Y201783D02*Y198240D01*
X299402D01*
Y201783D01*
X293496D01*
G37*
G36*
Y196783D02*Y193240D01*
X299402D01*
Y196783D01*
X293496D01*
G37*
G36*
Y191783D02*Y188240D01*
X299402D01*
Y191783D01*
X293496D01*
G37*
G36*
Y186783D02*Y183240D01*
X299402D01*
Y186783D01*
X293496D01*
G37*
G36*
Y181783D02*Y178240D01*
X299402D01*
Y181783D01*
X293496D01*
G37*
G36*
Y176783D02*Y173240D01*
X299402D01*
Y176783D01*
X293496D01*
G37*
G36*
Y171783D02*Y168240D01*
X299402D01*
Y171783D01*
X293496D01*
G37*
G36*
Y166783D02*Y163240D01*
X299402D01*
Y166783D01*
X293496D01*
G37*
G36*
Y161783D02*Y158240D01*
X299402D01*
Y161783D01*
X293496D01*
G37*
G36*
Y156783D02*Y153240D01*
X299402D01*
Y156783D01*
X293496D01*
G37*
G36*
Y151783D02*Y148240D01*
X299402D01*
Y151783D01*
X293496D01*
G37*
G36*
Y146783D02*Y143240D01*
X299402D01*
Y146783D01*
X293496D01*
G37*
G36*
Y141783D02*Y138240D01*
X299402D01*
Y141783D01*
X293496D01*
G37*
G36*
Y136783D02*Y133240D01*
X299402D01*
Y136783D01*
X293496D01*
G37*
G36*
X310276Y98307D02*X306732D01*
Y92402D01*
X310276D01*
Y98307D01*
G37*
G36*
X323268D02*X319724D01*
Y92402D01*
X323268D01*
Y98307D01*
G37*
G36*
X310276Y117598D02*X306732D01*
Y111693D01*
X310276D01*
Y117598D01*
G37*
G36*
X323268D02*X319724D01*
Y111693D01*
X323268D01*
Y117598D01*
G37*
G36*
X139602Y126952D02*X134484D01*
Y121048D01*
X139602D01*
Y126952D01*
G37*
G36*
X161602D02*X156484D01*
Y121048D01*
X161602D01*
Y126952D01*
G37*
G36*
X154516D02*X149398D01*
Y121048D01*
X154516D01*
Y126952D01*
G37*
G36*
X161102Y140952D02*X155984D01*
Y135048D01*
X161102D01*
Y140952D01*
G37*
G36*
X154016D02*X148898D01*
Y135048D01*
X154016D01*
Y140952D01*
G37*
G36*
X132516Y126952D02*X127398D01*
Y121048D01*
X132516D01*
Y126952D01*
G37*
G36*
X139602Y140952D02*X134484D01*
Y135048D01*
X139602D01*
Y140952D01*
G37*
G36*
X132516D02*X127398D01*
Y135048D01*
X132516D01*
Y140952D01*
G37*
G36*
X164112Y96009D02*Y90891D01*
X170016D01*
Y96009D01*
X164112D01*
G37*
G36*
Y103095D02*Y97977D01*
X170016D01*
Y103095D01*
X164112D01*
G37*
G36*
X209473Y176452D02*X204355D01*
Y170548D01*
X209473D01*
Y176452D01*
G37*
G36*
X25602Y180952D02*X20484D01*
Y175048D01*
X25602D01*
Y180952D01*
G37*
G36*
X18516D02*X13398D01*
Y175048D01*
X18516D01*
Y180952D01*
G37*
G36*
X51850Y176926D02*Y173626D01*
X57552D01*
Y176926D01*
X51850D01*
G37*
G36*
X103448D02*Y173626D01*
X109150D01*
Y176926D01*
X103448D01*
G37*
G54D22*X24000Y137000D03*
X29000D03*
X24000Y132000D03*
Y127000D03*
X29000Y132000D03*
Y127000D03*
G54D11*G36*
X41016Y196452D02*X35898D01*
Y190548D01*
X41016D01*
Y196452D01*
G37*
G36*
X33930D02*X28812D01*
Y190548D01*
X33930D01*
Y196452D01*
G37*
G36*
X41048Y210016D02*Y204898D01*
X46952D01*
Y210016D01*
X41048D01*
G37*
G36*
Y217102D02*Y211984D01*
X46952D01*
Y217102D01*
X41048D01*
G37*
G36*
X51850Y216296D02*Y212996D01*
X57552D01*
Y216296D01*
X51850D01*
G37*
G36*
Y211374D02*Y208074D01*
X57552D01*
Y211374D01*
X51850D01*
G37*
G36*
Y206453D02*Y203153D01*
X57552D01*
Y206453D01*
X51850D01*
G37*
G36*
Y201532D02*Y198232D01*
X57552D01*
Y201532D01*
X51850D01*
G37*
G36*
Y196611D02*Y193311D01*
X57552D01*
Y196611D01*
X51850D01*
G37*
G36*
Y191689D02*Y188389D01*
X57552D01*
Y191689D01*
X51850D01*
G37*
G36*
X170150Y212100D02*X164650D01*
Y203800D01*
X170150D01*
Y212100D01*
G37*
G36*
X152350D02*X146850D01*
Y203800D01*
X152350D01*
Y212100D01*
G37*
G36*
X51850Y186768D02*Y183468D01*
X57552D01*
Y186768D01*
X51850D01*
G37*
G36*
Y181847D02*Y178547D01*
X57552D01*
Y181847D01*
X51850D01*
G37*
G36*
Y172004D02*Y168704D01*
X57552D01*
Y172004D01*
X51850D01*
G37*
G36*
Y167083D02*Y163783D01*
X57552D01*
Y167083D01*
X51850D01*
G37*
G36*
Y162162D02*Y158862D01*
X57552D01*
Y162162D01*
X51850D01*
G37*
G36*
X64926Y157300D02*X61626D01*
Y151602D01*
X64926D01*
Y157300D01*
G37*
G36*
X69847D02*X66547D01*
Y151602D01*
X69847D01*
Y157300D01*
G37*
G36*
X74768D02*X71468D01*
Y151602D01*
X74768D01*
Y157300D01*
G37*
G36*
X79689D02*X76389D01*
Y151602D01*
X79689D01*
Y157300D01*
G37*
G36*
X84611D02*X81311D01*
Y151602D01*
X84611D01*
Y157300D01*
G37*
G36*
X89532D02*X86232D01*
Y151602D01*
X89532D01*
Y157300D01*
G37*
G36*
X94453D02*X91153D01*
Y151602D01*
X94453D01*
Y157300D01*
G37*
G36*
X99374D02*X96074D01*
Y151602D01*
X99374D01*
Y157300D01*
G37*
G36*
X35048Y159516D02*Y154398D01*
X40952D01*
Y159516D01*
X35048D01*
G37*
G36*
Y166602D02*Y161484D01*
X40952D01*
Y166602D01*
X35048D01*
G37*
G36*
X132016Y154952D02*X126898D01*
Y149048D01*
X132016D01*
Y154952D01*
G37*
G36*
X103448Y162162D02*Y158862D01*
X109150D01*
Y162162D01*
X103448D01*
G37*
G36*
Y167083D02*Y163783D01*
X109150D01*
Y167083D01*
X103448D01*
G37*
G36*
Y172004D02*Y168704D01*
X109150D01*
Y172004D01*
X103448D01*
G37*
G36*
Y181847D02*Y178547D01*
X109150D01*
Y181847D01*
X103448D01*
G37*
G36*
Y186768D02*Y183468D01*
X109150D01*
Y186768D01*
X103448D01*
G37*
G36*
Y191689D02*Y188389D01*
X109150D01*
Y191689D01*
X103448D01*
G37*
G36*
Y196611D02*Y193311D01*
X109150D01*
Y196611D01*
X103448D01*
G37*
G36*
Y201532D02*Y198232D01*
X109150D01*
Y201532D01*
X103448D01*
G37*
G36*
Y206453D02*Y203153D01*
X109150D01*
Y206453D01*
X103448D01*
G37*
G36*
Y211374D02*Y208074D01*
X109150D01*
Y211374D01*
X103448D01*
G37*
G36*
Y216296D02*Y212996D01*
X109150D01*
Y216296D01*
X103448D01*
G37*
G36*
Y221217D02*Y217917D01*
X109150D01*
Y221217D01*
X103448D01*
G37*
G36*
Y226138D02*Y222838D01*
X109150D01*
Y226138D01*
X103448D01*
G37*
G36*
X102548Y122016D02*Y116898D01*
X108452D01*
Y122016D01*
X102548D01*
G37*
G36*
Y129102D02*Y123984D01*
X108452D01*
Y129102D01*
X102548D01*
G37*
G36*
X92548Y122516D02*Y117398D01*
X98452D01*
Y122516D01*
X92548D01*
G37*
G36*
Y129602D02*Y124484D01*
X98452D01*
Y129602D01*
X92548D01*
G37*
G54D23*X246000Y175000D03*
Y171500D03*
Y167500D03*
Y164000D03*
X230500Y47500D03*
X266000Y175000D03*
Y171500D03*
X321500Y102500D03*
X290500Y47500D03*
X284500Y9500D03*
X287500Y6500D03*
X295500Y14500D03*
X291500D03*
X306000Y200000D03*
X302000D03*
X262000Y179500D03*
X258500D03*
X254000D03*
X202500Y178500D03*
X250500Y179500D03*
Y159500D03*
X254000D03*
X266000Y167500D03*
Y164000D03*
X258500Y159500D03*
X262000D03*
X192500Y165500D03*
Y160000D03*
Y155000D03*
Y150000D03*
X26500Y117400D03*
X112500Y160500D03*
X159000Y145500D03*
X38000Y151500D03*
X49000Y160500D03*
X21000Y193500D03*
X17000D03*
X45500Y173500D03*
X49000Y170500D03*
X149500Y190000D03*
X30100Y168100D03*
X30000Y178000D03*
X25000Y193500D03*
X49500Y205000D03*
Y199500D03*
Y195500D03*
X221500Y200000D03*
X209000D03*
X222000Y187500D03*
X115500Y191000D03*
X132500Y200500D03*
X115500Y194500D03*
X122000Y182000D03*
X124000Y200500D03*
X204000Y206000D03*
X182000Y41500D03*
X186000D03*
X190000D03*
X162500Y43500D03*
Y54500D03*
X166000Y61000D03*
X194500Y69500D03*
X161064Y100493D03*
X173064D03*
X166000Y64500D03*
X170000Y61000D03*
Y64500D03*
X169500Y43500D03*
G54D24*G54D25*G54D26*G54D27*G54D25*G54D28*G54D29*G54D26*G54D30*G54D29*M02*
