G04 start of page 13 for group -3984 idx -3984 *
G04 Title: (unknown), fab *
G04 Creator: pcb 4.0.2 *
G04 CreationDate: Sun Oct 16 04:01:38 2022 UTC *
G04 For: ndholmes *
G04 Format: Gerber/RS-274X *
G04 PCB-Dimensions (mil): 3350.00 2300.00 *
G04 PCB-Coordinate-Origin: lower left *
%MOIN*%
%FSLAX25Y25*%
%LNFAB*%
%ADD78C,0.0100*%
%ADD77C,0.0075*%
%ADD76C,0.0060*%
%ADD75R,0.0080X0.0080*%
G54D75*X318000Y20200D02*Y13800D01*
X314800Y17000D02*X321200D01*
X316400Y18600D02*X319600D01*
X316400D02*Y15400D01*
X319600D01*
Y18600D02*Y15400D01*
X17000Y216200D02*Y209800D01*
X13800Y213000D02*X20200D01*
X15400Y214600D02*X18600D01*
X15400D02*Y211400D01*
X18600D01*
Y214600D02*Y211400D01*
X17000Y20200D02*Y13800D01*
X13800Y17000D02*X20200D01*
X15400Y18600D02*X18600D01*
X15400D02*Y15400D01*
X18600D01*
Y18600D02*Y15400D01*
X318000Y216200D02*Y209800D01*
X314800Y213000D02*X321200D01*
X316400Y214600D02*X319600D01*
X316400D02*Y211400D01*
X319600D01*
Y214600D02*Y211400D01*
X15000Y244450D02*Y238050D01*
X11800Y241250D02*X18200D01*
X13400Y242850D02*X16600D01*
X13400D02*Y239650D01*
X16600D01*
Y242850D02*Y239650D01*
G54D76*X135000Y243500D02*X136500Y240500D01*
X138000Y243500D01*
X136500Y240500D02*Y237500D01*
X139800Y240800D02*X142050D01*
X139800Y237500D02*X142800D01*
X139800Y243500D02*Y237500D01*
Y243500D02*X142800D01*
X147600D02*X148350Y242750D01*
X145350Y243500D02*X147600D01*
X144600Y242750D02*X145350Y243500D01*
X144600Y242750D02*Y241250D01*
X145350Y240500D01*
X147600D01*
X148350Y239750D01*
Y238250D01*
X147600Y237500D02*X148350Y238250D01*
X145350Y237500D02*X147600D01*
X144600Y238250D02*X145350Y237500D01*
X98000Y239750D02*X101000Y243500D01*
X98000Y239750D02*X101750D01*
X101000Y243500D02*Y237500D01*
X45000Y238250D02*X45750Y237500D01*
X45000Y242750D02*Y238250D01*
Y242750D02*X45750Y243500D01*
X47250D01*
X48000Y242750D01*
Y238250D01*
X47250Y237500D02*X48000Y238250D01*
X45750Y237500D02*X47250D01*
X45000Y239000D02*X48000Y242000D01*
X49800Y237500D02*X50550D01*
X52350Y242300D02*X53550Y243500D01*
Y237500D01*
X52350D02*X54600D01*
X56400Y242750D02*X57150Y243500D01*
X59400D01*
X60150Y242750D01*
Y241250D01*
X56400Y237500D02*X60150Y241250D01*
X56400Y237500D02*X60150D01*
X62700D02*X64950Y240500D01*
Y242750D02*Y240500D01*
X64200Y243500D02*X64950Y242750D01*
X62700Y243500D02*X64200D01*
X61950Y242750D02*X62700Y243500D01*
X61950Y242750D02*Y241250D01*
X62700Y240500D01*
X64950D01*
X36500Y142000D02*Y138800D01*
Y142000D02*X39273Y143600D01*
X36500Y142000D02*X33727Y143600D01*
X34900Y142000D02*G75*G03X38100Y142000I1600J0D01*G01*
G75*G03X34900Y142000I-1600J0D01*G01*
X36500Y129500D02*Y126300D01*
Y129500D02*X39273Y131100D01*
X36500Y129500D02*X33727Y131100D01*
X34900Y129500D02*G75*G03X38100Y129500I1600J0D01*G01*
G75*G03X34900Y129500I-1600J0D01*G01*
X16500D02*Y126300D01*
Y129500D02*X19273Y131100D01*
X16500Y129500D02*X13727Y131100D01*
X14900Y129500D02*G75*G03X18100Y129500I1600J0D01*G01*
G75*G03X14900Y129500I-1600J0D01*G01*
X16500Y142000D02*Y138800D01*
Y142000D02*X19273Y143600D01*
X16500Y142000D02*X13727Y143600D01*
X14900Y142000D02*G75*G03X18100Y142000I1600J0D01*G01*
G75*G03X14900Y142000I-1600J0D01*G01*
X15000Y256250D02*Y253050D01*
Y256250D02*X17773Y257850D01*
X15000Y256250D02*X12227Y257850D01*
X13400Y256250D02*G75*G03X16600Y256250I1600J0D01*G01*
G75*G03X13400Y256250I-1600J0D01*G01*
X140000Y258500D02*Y252500D01*
Y258500D02*X143750Y252500D01*
Y258500D02*Y252500D01*
X145550Y257750D02*Y253250D01*
Y257750D02*X146300Y258500D01*
X147800D01*
X148550Y257750D01*
Y253250D01*
X147800Y252500D02*X148550Y253250D01*
X146300Y252500D02*X147800D01*
X145550Y253250D02*X146300Y252500D01*
X98000Y254750D02*X101000Y258500D01*
X98000Y254750D02*X101750D01*
X101000Y258500D02*Y252500D01*
X45000Y253250D02*X45750Y252500D01*
X45000Y257750D02*Y253250D01*
Y257750D02*X45750Y258500D01*
X47250D01*
X48000Y257750D01*
Y253250D01*
X47250Y252500D02*X48000Y253250D01*
X45750Y252500D02*X47250D01*
X45000Y254000D02*X48000Y257000D01*
X49800Y252500D02*X50550D01*
X52350Y253250D02*X53100Y252500D01*
X52350Y257750D02*Y253250D01*
Y257750D02*X53100Y258500D01*
X54600D01*
X55350Y257750D01*
Y253250D01*
X54600Y252500D02*X55350Y253250D01*
X53100Y252500D02*X54600D01*
X52350Y254000D02*X55350Y257000D01*
X57900Y252500D02*X60150Y255500D01*
Y257750D02*Y255500D01*
X59400Y258500D02*X60150Y257750D01*
X57900Y258500D02*X59400D01*
X57150Y257750D02*X57900Y258500D01*
X57150Y257750D02*Y256250D01*
X57900Y255500D01*
X60150D01*
X61950Y257750D02*X62700Y258500D01*
X64200D01*
X64950Y257750D01*
X64200Y252500D02*X64950Y253250D01*
X62700Y252500D02*X64200D01*
X61950Y253250D02*X62700Y252500D01*
Y255800D02*X64200D01*
X64950Y257750D02*Y256550D01*
Y255050D02*Y253250D01*
Y255050D02*X64200Y255800D01*
X64950Y256550D02*X64200Y255800D01*
X43132Y103746D02*X46332D01*
X43132D02*Y100546D01*
X46332D01*
Y103746D02*Y100546D01*
X134865Y103746D02*X138065D01*
X134865D02*Y100546D01*
X138065D01*
Y103746D02*Y100546D01*
X43132Y10045D02*X46332D01*
X43132D02*Y6845D01*
X46332D01*
Y10045D02*Y6845D01*
X134865Y10045D02*X138065D01*
X134865D02*Y6845D01*
X138065D01*
Y10045D02*Y6845D01*
X13400Y272850D02*X16600D01*
X13400D02*Y269650D01*
X16600D01*
Y272850D02*Y269650D01*
X140000Y273500D02*Y267500D01*
Y273500D02*X143750Y267500D01*
Y273500D02*Y267500D01*
X145550Y272750D02*Y268250D01*
Y272750D02*X146300Y273500D01*
X147800D01*
X148550Y272750D01*
Y268250D01*
X147800Y267500D02*X148550Y268250D01*
X146300Y267500D02*X147800D01*
X145550Y268250D02*X146300Y267500D01*
X98000Y269750D02*X101000Y273500D01*
X98000Y269750D02*X101750D01*
X101000Y273500D02*Y267500D01*
X45000Y268250D02*X45750Y267500D01*
X45000Y272750D02*Y268250D01*
Y272750D02*X45750Y273500D01*
X47250D01*
X48000Y272750D01*
Y268250D01*
X47250Y267500D02*X48000Y268250D01*
X45750Y267500D02*X47250D01*
X45000Y269000D02*X48000Y272000D01*
X49800Y267500D02*X50550D01*
X52350Y268250D02*X53100Y267500D01*
X52350Y272750D02*Y268250D01*
Y272750D02*X53100Y273500D01*
X54600D01*
X55350Y272750D01*
Y268250D01*
X54600Y267500D02*X55350Y268250D01*
X53100Y267500D02*X54600D01*
X52350Y269000D02*X55350Y272000D01*
X57900Y267500D02*X60900Y273500D01*
X57150D02*X60900D01*
X63450Y267500D02*X65700Y270500D01*
Y272750D02*Y270500D01*
X64950Y273500D02*X65700Y272750D01*
X63450Y273500D02*X64950D01*
X62700Y272750D02*X63450Y273500D01*
X62700Y272750D02*Y271250D01*
X63450Y270500D01*
X65700D01*
X166377Y24000D02*G75*G03X167977Y24000I800J0D01*G01*
G75*G03X166377Y24000I-800J0D01*G01*
X183700D02*G75*G03X185300Y24000I800J0D01*G01*
G75*G03X183700Y24000I-800J0D01*G01*
X14200Y286250D02*G75*G03X15800Y286250I800J0D01*G01*
G75*G03X14200Y286250I-800J0D01*G01*
X135000Y288500D02*X136500Y285500D01*
X138000Y288500D01*
X136500Y285500D02*Y282500D01*
X139800Y285800D02*X142050D01*
X139800Y282500D02*X142800D01*
X139800Y288500D02*Y282500D01*
Y288500D02*X142800D01*
X147600D02*X148350Y287750D01*
X145350Y288500D02*X147600D01*
X144600Y287750D02*X145350Y288500D01*
X144600Y287750D02*Y286250D01*
X145350Y285500D01*
X147600D01*
X148350Y284750D01*
Y283250D01*
X147600Y282500D02*X148350Y283250D01*
X145350Y282500D02*X147600D01*
X144600Y283250D02*X145350Y282500D01*
X98000Y287750D02*X98750Y288500D01*
X101000D01*
X101750Y287750D01*
Y286250D01*
X98000Y282500D02*X101750Y286250D01*
X98000Y282500D02*X101750D01*
X45000Y283250D02*X45750Y282500D01*
X45000Y287750D02*Y283250D01*
Y287750D02*X45750Y288500D01*
X47250D01*
X48000Y287750D01*
Y283250D01*
X47250Y282500D02*X48000Y283250D01*
X45750Y282500D02*X47250D01*
X45000Y284000D02*X48000Y287000D01*
X49800Y282500D02*X50550D01*
X52350Y283250D02*X53100Y282500D01*
X52350Y287750D02*Y283250D01*
Y287750D02*X53100Y288500D01*
X54600D01*
X55350Y287750D01*
Y283250D01*
X54600Y282500D02*X55350Y283250D01*
X53100Y282500D02*X54600D01*
X52350Y284000D02*X55350Y287000D01*
X57150Y284750D02*X60150Y288500D01*
X57150Y284750D02*X60900D01*
X60150Y288500D02*Y282500D01*
X62700Y287750D02*X63450Y288500D01*
X64950D01*
X65700Y287750D01*
X64950Y282500D02*X65700Y283250D01*
X63450Y282500D02*X64950D01*
X62700Y283250D02*X63450Y282500D01*
Y285800D02*X64950D01*
X65700Y287750D02*Y286550D01*
Y285050D02*Y283250D01*
Y285050D02*X64950Y285800D01*
X65700Y286550D02*X64950Y285800D01*
X25300Y143200D02*X27700Y140800D01*
X25300D02*X27700Y143200D01*
X29300Y123200D02*X31700Y120800D01*
X29300D02*X31700Y123200D01*
X21300D02*X23700Y120800D01*
X21300D02*X23700Y123200D01*
X13800Y302450D02*X16200Y300050D01*
X13800D02*X16200Y302450D01*
X140000Y303500D02*Y297500D01*
Y303500D02*X143750Y297500D01*
Y303500D02*Y297500D01*
X145550Y302750D02*Y298250D01*
Y302750D02*X146300Y303500D01*
X147800D01*
X148550Y302750D01*
Y298250D01*
X147800Y297500D02*X148550Y298250D01*
X146300Y297500D02*X147800D01*
X145550Y298250D02*X146300Y297500D01*
X98000Y302750D02*X98750Y303500D01*
X100250D01*
X101000Y302750D01*
X100250Y297500D02*X101000Y298250D01*
X98750Y297500D02*X100250D01*
X98000Y298250D02*X98750Y297500D01*
Y300800D02*X100250D01*
X101000Y302750D02*Y301550D01*
Y300050D02*Y298250D01*
Y300050D02*X100250Y300800D01*
X101000Y301550D02*X100250Y300800D01*
X45000Y298250D02*X45750Y297500D01*
X45000Y302750D02*Y298250D01*
Y302750D02*X45750Y303500D01*
X47250D01*
X48000Y302750D01*
Y298250D01*
X47250Y297500D02*X48000Y298250D01*
X45750Y297500D02*X47250D01*
X45000Y299000D02*X48000Y302000D01*
X49800Y297500D02*X50550D01*
X52350Y298250D02*X53100Y297500D01*
X52350Y302750D02*Y298250D01*
Y302750D02*X53100Y303500D01*
X54600D01*
X55350Y302750D01*
Y298250D01*
X54600Y297500D02*X55350Y298250D01*
X53100Y297500D02*X54600D01*
X52350Y299000D02*X55350Y302000D01*
X57150Y302750D02*X57900Y303500D01*
X59400D01*
X60150Y302750D01*
X59400Y297500D02*X60150Y298250D01*
X57900Y297500D02*X59400D01*
X57150Y298250D02*X57900Y297500D01*
Y300800D02*X59400D01*
X60150Y302750D02*Y301550D01*
Y300050D02*Y298250D01*
Y300050D02*X59400Y300800D01*
X60150Y301550D02*X59400Y300800D01*
X62700Y297500D02*X64950Y300500D01*
Y302750D02*Y300500D01*
X64200Y303500D02*X64950Y302750D01*
X62700Y303500D02*X64200D01*
X61950Y302750D02*X62700Y303500D01*
X61950Y302750D02*Y301250D01*
X62700Y300500D01*
X64950D01*
X75598Y105714D02*Y102514D01*
X73998Y104114D02*X77198D01*
X85598Y105714D02*Y102514D01*
X83998Y104114D02*X87198D01*
X95598Y105714D02*Y102514D01*
X93998Y104114D02*X97198D01*
X105598Y105714D02*Y102514D01*
X103998Y104114D02*X107198D01*
X15000Y317850D02*Y314650D01*
X13400Y316250D02*X16600D01*
X135000Y318500D02*X136500Y315500D01*
X138000Y318500D01*
X136500Y315500D02*Y312500D01*
X139800Y315800D02*X142050D01*
X139800Y312500D02*X142800D01*
X139800Y318500D02*Y312500D01*
Y318500D02*X142800D01*
X147600D02*X148350Y317750D01*
X145350Y318500D02*X147600D01*
X144600Y317750D02*X145350Y318500D01*
X144600Y317750D02*Y316250D01*
X145350Y315500D01*
X147600D01*
X148350Y314750D01*
Y313250D01*
X147600Y312500D02*X148350Y313250D01*
X145350Y312500D02*X147600D01*
X144600Y313250D02*X145350Y312500D01*
X98000Y314750D02*X101000Y318500D01*
X98000Y314750D02*X101750D01*
X101000Y318500D02*Y312500D01*
X45000Y313250D02*X45750Y312500D01*
X45000Y317750D02*Y313250D01*
Y317750D02*X45750Y318500D01*
X47250D01*
X48000Y317750D01*
Y313250D01*
X47250Y312500D02*X48000Y313250D01*
X45750Y312500D02*X47250D01*
X45000Y314000D02*X48000Y317000D01*
X49800Y312500D02*X50550D01*
X52350Y313250D02*X53100Y312500D01*
X52350Y317750D02*Y313250D01*
Y317750D02*X53100Y318500D01*
X54600D01*
X55350Y317750D01*
Y313250D01*
X54600Y312500D02*X55350Y313250D01*
X53100Y312500D02*X54600D01*
X52350Y314000D02*X55350Y317000D01*
X57150Y317750D02*X57900Y318500D01*
X59400D01*
X60150Y317750D01*
X59400Y312500D02*X60150Y313250D01*
X57900Y312500D02*X59400D01*
X57150Y313250D02*X57900Y312500D01*
Y315800D02*X59400D01*
X60150Y317750D02*Y316550D01*
Y315050D02*Y313250D01*
Y315050D02*X59400Y315800D01*
X60150Y316550D02*X59400Y315800D01*
X61950Y313250D02*X62700Y312500D01*
X61950Y314450D02*Y313250D01*
Y314450D02*X63000Y315500D01*
X63900D01*
X64950Y314450D01*
Y313250D01*
X64200Y312500D02*X64950Y313250D01*
X62700Y312500D02*X64200D01*
X61950Y316550D02*X63000Y315500D01*
X61950Y317750D02*Y316550D01*
Y317750D02*X62700Y318500D01*
X64200D01*
X64950Y317750D01*
Y316550D01*
X63900Y315500D02*X64950Y316550D01*
X246000Y175000D02*Y173400D01*
Y175000D02*X247387Y175800D01*
X246000Y175000D02*X244613Y175800D01*
X246000Y171500D02*Y169900D01*
Y171500D02*X247387Y172300D01*
X246000Y171500D02*X244613Y172300D01*
X246000Y167500D02*Y165900D01*
Y167500D02*X247387Y168300D01*
X246000Y167500D02*X244613Y168300D01*
X246000Y164000D02*Y162400D01*
Y164000D02*X247387Y164800D01*
X246000Y164000D02*X244613Y164800D01*
X262000Y179500D02*Y177900D01*
Y179500D02*X263387Y180300D01*
X262000Y179500D02*X260613Y180300D01*
X258500Y179500D02*Y177900D01*
Y179500D02*X259887Y180300D01*
X258500Y179500D02*X257113Y180300D01*
X254000Y179500D02*Y177900D01*
Y179500D02*X255387Y180300D01*
X254000Y179500D02*X252613Y180300D01*
X250500Y179500D02*Y177900D01*
Y179500D02*X251887Y180300D01*
X250500Y179500D02*X249113Y180300D01*
X266000Y175000D02*Y173400D01*
Y175000D02*X267387Y175800D01*
X266000Y175000D02*X264613Y175800D01*
X266000Y171500D02*Y169900D01*
Y171500D02*X267387Y172300D01*
X266000Y171500D02*X264613Y172300D01*
X266000Y167500D02*Y165900D01*
Y167500D02*X267387Y168300D01*
X266000Y167500D02*X264613Y168300D01*
X266000Y164000D02*Y162400D01*
Y164000D02*X267387Y164800D01*
X266000Y164000D02*X264613Y164800D01*
X250500Y159500D02*Y157900D01*
Y159500D02*X251887Y160300D01*
X250500Y159500D02*X249113Y160300D01*
X254000Y159500D02*Y157900D01*
Y159500D02*X255387Y160300D01*
X254000Y159500D02*X252613Y160300D01*
X258500Y159500D02*Y157900D01*
Y159500D02*X259887Y160300D01*
X258500Y159500D02*X257113Y160300D01*
X262000Y159500D02*Y157900D01*
Y159500D02*X263387Y160300D01*
X262000Y159500D02*X260613Y160300D01*
X221500Y200000D02*Y198400D01*
Y200000D02*X222887Y200800D01*
X221500Y200000D02*X220113Y200800D01*
X209000Y200000D02*Y198400D01*
Y200000D02*X210387Y200800D01*
X209000Y200000D02*X207613Y200800D01*
X26500Y117400D02*Y115800D01*
Y117400D02*X27887Y118200D01*
X26500Y117400D02*X25113Y118200D01*
X112500Y160500D02*Y158900D01*
Y160500D02*X113887Y161300D01*
X112500Y160500D02*X111113Y161300D01*
X115500Y191000D02*Y189400D01*
Y191000D02*X116887Y191800D01*
X115500Y191000D02*X114113Y191800D01*
X321500Y102500D02*Y100900D01*
Y102500D02*X322887Y103300D01*
X321500Y102500D02*X320113Y103300D01*
X230500Y47500D02*Y45900D01*
Y47500D02*X231887Y48300D01*
X230500Y47500D02*X229113Y48300D01*
X290500Y47500D02*Y45900D01*
Y47500D02*X291887Y48300D01*
X290500Y47500D02*X289113Y48300D01*
X284500Y9500D02*Y7900D01*
Y9500D02*X285887Y10300D01*
X284500Y9500D02*X283113Y10300D01*
X287500Y6500D02*Y4900D01*
Y6500D02*X288887Y7300D01*
X287500Y6500D02*X286113Y7300D01*
X295500Y14500D02*Y12900D01*
Y14500D02*X296887Y15300D01*
X295500Y14500D02*X294113Y15300D01*
X291500Y14500D02*Y12900D01*
Y14500D02*X292887Y15300D01*
X291500Y14500D02*X290113Y15300D01*
X159000Y145500D02*Y143900D01*
Y145500D02*X160387Y146300D01*
X159000Y145500D02*X157613Y146300D01*
X25000Y193500D02*Y191900D01*
Y193500D02*X26387Y194300D01*
X25000Y193500D02*X23613Y194300D01*
X21000Y193500D02*Y191900D01*
Y193500D02*X22387Y194300D01*
X21000Y193500D02*X19613Y194300D01*
X17000Y193500D02*Y191900D01*
Y193500D02*X18387Y194300D01*
X17000Y193500D02*X15613Y194300D01*
X49500Y205000D02*Y203400D01*
Y205000D02*X50887Y205800D01*
X49500Y205000D02*X48113Y205800D01*
X49500Y199500D02*Y197900D01*
Y199500D02*X50887Y200300D01*
X49500Y199500D02*X48113Y200300D01*
X49500Y195500D02*Y193900D01*
Y195500D02*X50887Y196300D01*
X49500Y195500D02*X48113Y196300D01*
X38000Y151500D02*Y149900D01*
Y151500D02*X39387Y152300D01*
X38000Y151500D02*X36613Y152300D01*
X222000Y187500D02*Y185900D01*
Y187500D02*X223387Y188300D01*
X222000Y187500D02*X220613Y188300D01*
X45500Y173500D02*Y171900D01*
Y173500D02*X46887Y174300D01*
X45500Y173500D02*X44113Y174300D01*
X49000Y160500D02*Y158900D01*
Y160500D02*X50387Y161300D01*
X49000Y160500D02*X47613Y161300D01*
X49000Y170500D02*Y168900D01*
Y170500D02*X50387Y171300D01*
X49000Y170500D02*X47613Y171300D01*
X132500Y200500D02*Y198900D01*
Y200500D02*X133887Y201300D01*
X132500Y200500D02*X131113Y201300D01*
X115500Y194500D02*Y192900D01*
Y194500D02*X116887Y195300D01*
X115500Y194500D02*X114113Y195300D01*
X122000Y182000D02*Y180400D01*
Y182000D02*X123387Y182800D01*
X122000Y182000D02*X120613Y182800D01*
X192500Y165500D02*Y163900D01*
Y165500D02*X193887Y166300D01*
X192500Y165500D02*X191113Y166300D01*
X192500Y160000D02*Y158400D01*
Y160000D02*X193887Y160800D01*
X192500Y160000D02*X191113Y160800D01*
X192500Y155000D02*Y153400D01*
Y155000D02*X193887Y155800D01*
X192500Y155000D02*X191113Y155800D01*
X192500Y150000D02*Y148400D01*
Y150000D02*X193887Y150800D01*
X192500Y150000D02*X191113Y150800D01*
X202500Y178500D02*Y176900D01*
Y178500D02*X203887Y179300D01*
X202500Y178500D02*X201113Y179300D01*
X149500Y190000D02*Y188400D01*
Y190000D02*X150887Y190800D01*
X149500Y190000D02*X148113Y190800D01*
X204000Y206000D02*Y204400D01*
Y206000D02*X205387Y206800D01*
X204000Y206000D02*X202613Y206800D01*
X124000Y200500D02*Y198900D01*
Y200500D02*X125387Y201300D01*
X124000Y200500D02*X122613Y201300D01*
X182000Y41500D02*Y39900D01*
Y41500D02*X183387Y42300D01*
X182000Y41500D02*X180613Y42300D01*
X186000Y41500D02*Y39900D01*
Y41500D02*X187387Y42300D01*
X186000Y41500D02*X184613Y42300D01*
X190000Y41500D02*Y39900D01*
Y41500D02*X191387Y42300D01*
X190000Y41500D02*X188613Y42300D01*
X162500Y43500D02*Y41900D01*
Y43500D02*X163887Y44300D01*
X162500Y43500D02*X161113Y44300D01*
X166000Y64500D02*Y62900D01*
Y64500D02*X167387Y65300D01*
X166000Y64500D02*X164613Y65300D01*
X162500Y54500D02*Y52900D01*
Y54500D02*X163887Y55300D01*
X162500Y54500D02*X161113Y55300D01*
X170000Y61000D02*Y59400D01*
Y61000D02*X171387Y61800D01*
X170000Y61000D02*X168613Y61800D01*
X170000Y64500D02*Y62900D01*
Y64500D02*X171387Y65300D01*
X170000Y64500D02*X168613Y65300D01*
X166000Y61000D02*Y59400D01*
Y61000D02*X167387Y61800D01*
X166000Y61000D02*X164613Y61800D01*
X194500Y69500D02*Y67900D01*
Y69500D02*X195887Y70300D01*
X194500Y69500D02*X193113Y70300D01*
X161064Y100493D02*Y98893D01*
Y100493D02*X162450Y101293D01*
X161064Y100493D02*X159677Y101293D01*
X173064Y100493D02*Y98893D01*
Y100493D02*X174450Y101293D01*
X173064Y100493D02*X171677Y101293D01*
X306000Y200000D02*Y198400D01*
Y200000D02*X307387Y200800D01*
X306000Y200000D02*X304613Y200800D01*
X302000Y200000D02*Y198400D01*
Y200000D02*X303387Y200800D01*
X302000Y200000D02*X300613Y200800D01*
X30100Y168100D02*Y166500D01*
Y168100D02*X31487Y168900D01*
X30100Y168100D02*X28713Y168900D01*
X30000Y178000D02*Y176400D01*
Y178000D02*X31387Y178800D01*
X30000Y178000D02*X28613Y178800D01*
X169500Y43500D02*Y41900D01*
Y43500D02*X170887Y44300D01*
X169500Y43500D02*X168113Y44300D01*
X15000Y331250D02*Y329650D01*
Y331250D02*X16387Y332050D01*
X15000Y331250D02*X13613Y332050D01*
X135000Y333500D02*X136500Y330500D01*
X138000Y333500D01*
X136500Y330500D02*Y327500D01*
X139800Y330800D02*X142050D01*
X139800Y327500D02*X142800D01*
X139800Y333500D02*Y327500D01*
Y333500D02*X142800D01*
X147600D02*X148350Y332750D01*
X145350Y333500D02*X147600D01*
X144600Y332750D02*X145350Y333500D01*
X144600Y332750D02*Y331250D01*
X145350Y330500D01*
X147600D01*
X148350Y329750D01*
Y328250D01*
X147600Y327500D02*X148350Y328250D01*
X145350Y327500D02*X147600D01*
X144600Y328250D02*X145350Y327500D01*
X100250Y333500D02*X101000Y332750D01*
X98750Y333500D02*X100250D01*
X98000Y332750D02*X98750Y333500D01*
X98000Y332750D02*Y328250D01*
X98750Y327500D01*
X100250Y330800D02*X101000Y330050D01*
X98000Y330800D02*X100250D01*
X98750Y327500D02*X100250D01*
X101000Y328250D01*
Y330050D02*Y328250D01*
X102800D02*X103550Y327500D01*
X102800Y329450D02*Y328250D01*
Y329450D02*X103850Y330500D01*
X104750D01*
X105800Y329450D01*
Y328250D01*
X105050Y327500D02*X105800Y328250D01*
X103550Y327500D02*X105050D01*
X102800Y331550D02*X103850Y330500D01*
X102800Y332750D02*Y331550D01*
Y332750D02*X103550Y333500D01*
X105050D01*
X105800Y332750D01*
Y331550D01*
X104750Y330500D02*X105800Y331550D01*
X45000Y328250D02*X45750Y327500D01*
X45000Y332750D02*Y328250D01*
Y332750D02*X45750Y333500D01*
X47250D01*
X48000Y332750D01*
Y328250D01*
X47250Y327500D02*X48000Y328250D01*
X45750Y327500D02*X47250D01*
X45000Y329000D02*X48000Y332000D01*
X49800Y327500D02*X50550D01*
X52350Y328250D02*X53100Y327500D01*
X52350Y332750D02*Y328250D01*
Y332750D02*X53100Y333500D01*
X54600D01*
X55350Y332750D01*
Y328250D01*
X54600Y327500D02*X55350Y328250D01*
X53100Y327500D02*X54600D01*
X52350Y329000D02*X55350Y332000D01*
X57150Y332300D02*X58350Y333500D01*
Y327500D01*
X57150D02*X59400D01*
X61200Y332750D02*X61950Y333500D01*
X64200D01*
X64950Y332750D01*
Y331250D01*
X61200Y327500D02*X64950Y331250D01*
X61200Y327500D02*X64950D01*
X3000Y348500D02*X3750Y347750D01*
X750Y348500D02*X3000D01*
X0Y347750D02*X750Y348500D01*
X0Y347750D02*Y346250D01*
X750Y345500D01*
X3000D01*
X3750Y344750D01*
Y343250D01*
X3000Y342500D02*X3750Y343250D01*
X750Y342500D02*X3000D01*
X0Y343250D02*X750Y342500D01*
X5550Y345500D02*Y343250D01*
X6300Y342500D01*
X8550Y345500D02*Y341000D01*
X7800Y340250D02*X8550Y341000D01*
X6300Y340250D02*X7800D01*
X5550Y341000D02*X6300Y340250D01*
Y342500D02*X7800D01*
X8550Y343250D01*
X11100Y344750D02*Y342500D01*
Y344750D02*X11850Y345500D01*
X12600D01*
X13350Y344750D01*
Y342500D01*
Y344750D02*X14100Y345500D01*
X14850D01*
X15600Y344750D01*
Y342500D01*
X10350Y345500D02*X11100Y344750D01*
X17400Y348500D02*Y342500D01*
Y343250D02*X18150Y342500D01*
X19650D01*
X20400Y343250D01*
Y344750D02*Y343250D01*
X19650Y345500D02*X20400Y344750D01*
X18150Y345500D02*X19650D01*
X17400Y344750D02*X18150Y345500D01*
X22200Y344750D02*Y343250D01*
Y344750D02*X22950Y345500D01*
X24450D01*
X25200Y344750D01*
Y343250D01*
X24450Y342500D02*X25200Y343250D01*
X22950Y342500D02*X24450D01*
X22200Y343250D02*X22950Y342500D01*
X27000Y348500D02*Y343250D01*
X27750Y342500D01*
X0Y339250D02*X29250D01*
X41750Y348500D02*Y342500D01*
X43700Y348500D02*X44750Y347450D01*
Y343550D01*
X43700Y342500D02*X44750Y343550D01*
X41000Y342500D02*X43700D01*
X41000Y348500D02*X43700D01*
G54D77*X46550Y347000D02*Y346850D01*
G54D76*Y344750D02*Y342500D01*
X50300Y345500D02*X51050Y344750D01*
X48800Y345500D02*X50300D01*
X48050Y344750D02*X48800Y345500D01*
X48050Y344750D02*Y343250D01*
X48800Y342500D01*
X51050Y345500D02*Y343250D01*
X51800Y342500D01*
X48800D02*X50300D01*
X51050Y343250D01*
X54350Y344750D02*Y342500D01*
Y344750D02*X55100Y345500D01*
X55850D01*
X56600Y344750D01*
Y342500D01*
Y344750D02*X57350Y345500D01*
X58100D01*
X58850Y344750D01*
Y342500D01*
X53600Y345500D02*X54350Y344750D01*
X60650Y342500D02*X61400D01*
X65900Y343250D02*X66650Y342500D01*
X65900Y347750D02*X66650Y348500D01*
X65900Y347750D02*Y343250D01*
X68450Y348500D02*X69950D01*
X69200D02*Y342500D01*
X68450D02*X69950D01*
X72500Y344750D02*Y342500D01*
Y344750D02*X73250Y345500D01*
X74000D01*
X74750Y344750D01*
Y342500D01*
X71750Y345500D02*X72500Y344750D01*
X77300Y345500D02*X79550D01*
X76550Y344750D02*X77300Y345500D01*
X76550Y344750D02*Y343250D01*
X77300Y342500D01*
X79550D01*
X81350Y348500D02*Y342500D01*
Y344750D02*X82100Y345500D01*
X83600D01*
X84350Y344750D01*
Y342500D01*
X86150Y348500D02*X86900Y347750D01*
Y343250D01*
X86150Y342500D02*X86900Y343250D01*
X41000Y339250D02*X88700D01*
X96050Y342500D02*X98000D01*
X95000Y343550D02*X96050Y342500D01*
X95000Y347450D02*Y343550D01*
Y347450D02*X96050Y348500D01*
X98000D01*
X99800Y344750D02*Y343250D01*
Y344750D02*X100550Y345500D01*
X102050D01*
X102800Y344750D01*
Y343250D01*
X102050Y342500D02*X102800Y343250D01*
X100550Y342500D02*X102050D01*
X99800Y343250D02*X100550Y342500D01*
X104600Y345500D02*Y343250D01*
X105350Y342500D01*
X106850D01*
X107600Y343250D01*
Y345500D02*Y343250D01*
X110150Y344750D02*Y342500D01*
Y344750D02*X110900Y345500D01*
X111650D01*
X112400Y344750D01*
Y342500D01*
X109400Y345500D02*X110150Y344750D01*
X114950Y348500D02*Y343250D01*
X115700Y342500D01*
X114200Y346250D02*X115700D01*
X95000Y339250D02*X117200D01*
X130750Y348500D02*Y342500D01*
X130000Y348500D02*X133000D01*
X133750Y347750D01*
Y346250D01*
X133000Y345500D02*X133750Y346250D01*
X130750Y345500D02*X133000D01*
X135550Y348500D02*Y343250D01*
X136300Y342500D01*
X140050Y345500D02*X140800Y344750D01*
X138550Y345500D02*X140050D01*
X137800Y344750D02*X138550Y345500D01*
X137800Y344750D02*Y343250D01*
X138550Y342500D01*
X140800Y345500D02*Y343250D01*
X141550Y342500D01*
X138550D02*X140050D01*
X140800Y343250D01*
X144100Y348500D02*Y343250D01*
X144850Y342500D01*
X143350Y346250D02*X144850D01*
X147100Y342500D02*X149350D01*
X146350Y343250D02*X147100Y342500D01*
X146350Y344750D02*Y343250D01*
Y344750D02*X147100Y345500D01*
X148600D01*
X149350Y344750D01*
X146350Y344000D02*X149350D01*
Y344750D02*Y344000D01*
X154150Y348500D02*Y342500D01*
X153400D02*X154150Y343250D01*
X151900Y342500D02*X153400D01*
X151150Y343250D02*X151900Y342500D01*
X151150Y344750D02*Y343250D01*
Y344750D02*X151900Y345500D01*
X153400D01*
X154150Y344750D01*
X157450Y345500D02*Y344750D01*
Y343250D02*Y342500D01*
X155950Y347750D02*Y347000D01*
Y347750D02*X156700Y348500D01*
X158200D01*
X158950Y347750D01*
Y347000D01*
X157450Y345500D02*X158950Y347000D01*
X130000Y339250D02*X160750D01*
X0Y363500D02*X3000D01*
X1500D02*Y357500D01*
X4800Y363500D02*Y357500D01*
Y359750D02*X5550Y360500D01*
X7050D01*
X7800Y359750D01*
Y357500D01*
X10350D02*X12600D01*
X9600Y358250D02*X10350Y357500D01*
X9600Y359750D02*Y358250D01*
Y359750D02*X10350Y360500D01*
X11850D01*
X12600Y359750D01*
X9600Y359000D02*X12600D01*
Y359750D02*Y359000D01*
X15150Y359750D02*Y357500D01*
Y359750D02*X15900Y360500D01*
X17400D01*
X14400D02*X15150Y359750D01*
X19950Y357500D02*X22200D01*
X19200Y358250D02*X19950Y357500D01*
X19200Y359750D02*Y358250D01*
Y359750D02*X19950Y360500D01*
X21450D01*
X22200Y359750D01*
X19200Y359000D02*X22200D01*
Y359750D02*Y359000D01*
X28950Y360500D02*X29700Y359750D01*
X27450Y360500D02*X28950D01*
X26700Y359750D02*X27450Y360500D01*
X26700Y359750D02*Y358250D01*
X27450Y357500D01*
X29700Y360500D02*Y358250D01*
X30450Y357500D01*
X27450D02*X28950D01*
X29700Y358250D01*
X33000Y359750D02*Y357500D01*
Y359750D02*X33750Y360500D01*
X35250D01*
X32250D02*X33000Y359750D01*
X37800Y357500D02*X40050D01*
X37050Y358250D02*X37800Y357500D01*
X37050Y359750D02*Y358250D01*
Y359750D02*X37800Y360500D01*
X39300D01*
X40050Y359750D01*
X37050Y359000D02*X40050D01*
Y359750D02*Y359000D01*
X45300Y357500D02*X48300Y363500D01*
X44550D02*X48300D01*
X55800D02*Y357500D01*
X55050D02*X55800Y358250D01*
X53550Y357500D02*X55050D01*
X52800Y358250D02*X53550Y357500D01*
X52800Y359750D02*Y358250D01*
Y359750D02*X53550Y360500D01*
X55050D01*
X55800Y359750D01*
G54D77*X57600Y362000D02*Y361850D01*
G54D76*Y359750D02*Y357500D01*
X59850Y362750D02*Y357500D01*
Y362750D02*X60600Y363500D01*
X61350D01*
X59100Y360500D02*X60600D01*
X63600Y362750D02*Y357500D01*
Y362750D02*X64350Y363500D01*
X65100D01*
X62850Y360500D02*X64350D01*
X67350Y357500D02*X69600D01*
X66600Y358250D02*X67350Y357500D01*
X66600Y359750D02*Y358250D01*
Y359750D02*X67350Y360500D01*
X68850D01*
X69600Y359750D01*
X66600Y359000D02*X69600D01*
Y359750D02*Y359000D01*
X72150Y359750D02*Y357500D01*
Y359750D02*X72900Y360500D01*
X74400D01*
X71400D02*X72150Y359750D01*
X76950Y357500D02*X79200D01*
X76200Y358250D02*X76950Y357500D01*
X76200Y359750D02*Y358250D01*
Y359750D02*X76950Y360500D01*
X78450D01*
X79200Y359750D01*
X76200Y359000D02*X79200D01*
Y359750D02*Y359000D01*
X81750Y359750D02*Y357500D01*
Y359750D02*X82500Y360500D01*
X83250D01*
X84000Y359750D01*
Y357500D01*
X81000Y360500D02*X81750Y359750D01*
X86550Y363500D02*Y358250D01*
X87300Y357500D01*
X85800Y361250D02*X87300D01*
X94500Y363500D02*Y357500D01*
X93750D02*X94500Y358250D01*
X92250Y357500D02*X93750D01*
X91500Y358250D02*X92250Y357500D01*
X91500Y359750D02*Y358250D01*
Y359750D02*X92250Y360500D01*
X93750D01*
X94500Y359750D01*
X97050D02*Y357500D01*
Y359750D02*X97800Y360500D01*
X99300D01*
X96300D02*X97050Y359750D01*
G54D77*X101100Y362000D02*Y361850D01*
G54D76*Y359750D02*Y357500D01*
X102600Y363500D02*Y358250D01*
X103350Y357500D01*
X104850Y363500D02*Y358250D01*
X105600Y357500D01*
X110550D02*X112800D01*
X113550Y358250D01*
X112800Y359000D02*X113550Y358250D01*
X110550Y359000D02*X112800D01*
X109800Y359750D02*X110550Y359000D01*
X109800Y359750D02*X110550Y360500D01*
X112800D01*
X113550Y359750D01*
X109800Y358250D02*X110550Y357500D01*
G54D77*X115350Y362000D02*Y361850D01*
G54D76*Y359750D02*Y357500D01*
X116850Y360500D02*X119850D01*
X116850Y357500D02*X119850Y360500D01*
X116850Y357500D02*X119850D01*
X122400D02*X124650D01*
X121650Y358250D02*X122400Y357500D01*
X121650Y359750D02*Y358250D01*
Y359750D02*X122400Y360500D01*
X123900D01*
X124650Y359750D01*
X121650Y359000D02*X124650D01*
Y359750D02*Y359000D01*
X127200Y357500D02*X129450D01*
X130200Y358250D01*
X129450Y359000D02*X130200Y358250D01*
X127200Y359000D02*X129450D01*
X126450Y359750D02*X127200Y359000D01*
X126450Y359750D02*X127200Y360500D01*
X129450D01*
X130200Y359750D01*
X126450Y358250D02*X127200Y357500D01*
X134700Y360500D02*Y358250D01*
X135450Y357500D01*
X136950D01*
X137700Y358250D01*
Y360500D02*Y358250D01*
X140250Y357500D02*X142500D01*
X143250Y358250D01*
X142500Y359000D02*X143250Y358250D01*
X140250Y359000D02*X142500D01*
X139500Y359750D02*X140250Y359000D01*
X139500Y359750D02*X140250Y360500D01*
X142500D01*
X143250Y359750D01*
X139500Y358250D02*X140250Y357500D01*
X145800D02*X148050D01*
X145050Y358250D02*X145800Y357500D01*
X145050Y359750D02*Y358250D01*
Y359750D02*X145800Y360500D01*
X147300D01*
X148050Y359750D01*
X145050Y359000D02*X148050D01*
Y359750D02*Y359000D01*
X152850Y363500D02*Y357500D01*
X152100D02*X152850Y358250D01*
X150600Y357500D02*X152100D01*
X149850Y358250D02*X150600Y357500D01*
X149850Y359750D02*Y358250D01*
Y359750D02*X150600Y360500D01*
X152100D01*
X152850Y359750D01*
G54D77*X157350Y362000D02*Y361850D01*
G54D76*Y359750D02*Y357500D01*
X159600Y359750D02*Y357500D01*
Y359750D02*X160350Y360500D01*
X161100D01*
X161850Y359750D01*
Y357500D01*
X158850Y360500D02*X159600Y359750D01*
X167100Y363500D02*Y358250D01*
X167850Y357500D01*
X166350Y361250D02*X167850D01*
X169350Y363500D02*Y357500D01*
Y359750D02*X170100Y360500D01*
X171600D01*
X172350Y359750D01*
Y357500D01*
G54D77*X174150Y362000D02*Y361850D01*
G54D76*Y359750D02*Y357500D01*
X176400D02*X178650D01*
X179400Y358250D01*
X178650Y359000D02*X179400Y358250D01*
X176400Y359000D02*X178650D01*
X175650Y359750D02*X176400Y359000D01*
X175650Y359750D02*X176400Y360500D01*
X178650D01*
X179400Y359750D01*
X175650Y358250D02*X176400Y357500D01*
X183900Y363500D02*Y358250D01*
X184650Y357500D01*
X188400Y360500D02*X189150Y359750D01*
X186900Y360500D02*X188400D01*
X186150Y359750D02*X186900Y360500D01*
X186150Y359750D02*Y358250D01*
X186900Y357500D01*
X189150Y360500D02*Y358250D01*
X189900Y357500D01*
X186900D02*X188400D01*
X189150Y358250D01*
X191700Y360500D02*Y358250D01*
X192450Y357500D01*
X194700Y360500D02*Y356000D01*
X193950Y355250D02*X194700Y356000D01*
X192450Y355250D02*X193950D01*
X191700Y356000D02*X192450Y355250D01*
Y357500D02*X193950D01*
X194700Y358250D01*
X196500Y359750D02*Y358250D01*
Y359750D02*X197250Y360500D01*
X198750D01*
X199500Y359750D01*
Y358250D01*
X198750Y357500D02*X199500Y358250D01*
X197250Y357500D02*X198750D01*
X196500Y358250D02*X197250Y357500D01*
X201300Y360500D02*Y358250D01*
X202050Y357500D01*
X203550D01*
X204300Y358250D01*
Y360500D02*Y358250D01*
X206850Y363500D02*Y358250D01*
X207600Y357500D01*
X206100Y361250D02*X207600D01*
X209100Y356000D02*X210600Y357500D01*
X215100Y358250D02*X215850Y357500D01*
X215100Y359450D02*Y358250D01*
Y359450D02*X216150Y360500D01*
X217050D01*
X218100Y359450D01*
Y358250D01*
X217350Y357500D02*X218100Y358250D01*
X215850Y357500D02*X217350D01*
X215100Y361550D02*X216150Y360500D01*
X215100Y362750D02*Y361550D01*
Y362750D02*X215850Y363500D01*
X217350D01*
X218100Y362750D01*
Y361550D01*
X217050Y360500D02*X218100Y361550D01*
X220650Y357500D02*X222900Y360500D01*
Y362750D02*Y360500D01*
X222150Y363500D02*X222900Y362750D01*
X220650Y363500D02*X222150D01*
X219900Y362750D02*X220650Y363500D01*
X219900Y362750D02*Y361250D01*
X220650Y360500D01*
X222900D01*
X227400Y363500D02*Y357500D01*
Y359750D02*X228150Y360500D01*
X229650D01*
X230400Y359750D01*
Y357500D01*
X232200Y359750D02*Y358250D01*
Y359750D02*X232950Y360500D01*
X234450D01*
X235200Y359750D01*
Y358250D01*
X234450Y357500D02*X235200Y358250D01*
X232950Y357500D02*X234450D01*
X232200Y358250D02*X232950Y357500D01*
X237000Y363500D02*Y358250D01*
X237750Y357500D01*
X240000D02*X242250D01*
X239250Y358250D02*X240000Y357500D01*
X239250Y359750D02*Y358250D01*
Y359750D02*X240000Y360500D01*
X241500D01*
X242250Y359750D01*
X239250Y359000D02*X242250D01*
Y359750D02*Y359000D01*
X244800Y357500D02*X247050D01*
X247800Y358250D01*
X247050Y359000D02*X247800Y358250D01*
X244800Y359000D02*X247050D01*
X244050Y359750D02*X244800Y359000D01*
X244050Y359750D02*X244800Y360500D01*
X247050D01*
X247800Y359750D01*
X244050Y358250D02*X244800Y357500D01*
X253050Y363500D02*Y358250D01*
X253800Y357500D01*
X252300Y361250D02*X253800D01*
X255300Y359750D02*Y358250D01*
Y359750D02*X256050Y360500D01*
X257550D01*
X258300Y359750D01*
Y358250D01*
X257550Y357500D02*X258300Y358250D01*
X256050Y357500D02*X257550D01*
X255300Y358250D02*X256050Y357500D01*
X260850Y363500D02*Y358250D01*
X261600Y357500D01*
X260100Y361250D02*X261600D01*
X265350Y360500D02*X266100Y359750D01*
X263850Y360500D02*X265350D01*
X263100Y359750D02*X263850Y360500D01*
X263100Y359750D02*Y358250D01*
X263850Y357500D01*
X266100Y360500D02*Y358250D01*
X266850Y357500D01*
X263850D02*X265350D01*
X266100Y358250D01*
X268650Y363500D02*Y358250D01*
X269400Y357500D01*
G54D78*X0Y230000D02*X335000D01*
Y0D01*
X0D01*
Y230000D01*
G54D76*X81175Y-9500D02*X84175D01*
X84925Y-8750D01*
Y-6950D02*Y-8750D01*
X84175Y-6200D02*X84925Y-6950D01*
X81925Y-6200D02*X84175D01*
X81925Y-3500D02*Y-9500D01*
X81175Y-3500D02*X84175D01*
X84925Y-4250D01*
Y-5450D01*
X84175Y-6200D02*X84925Y-5450D01*
X86725Y-7250D02*Y-8750D01*
Y-7250D02*X87475Y-6500D01*
X88975D01*
X89725Y-7250D01*
Y-8750D01*
X88975Y-9500D02*X89725Y-8750D01*
X87475Y-9500D02*X88975D01*
X86725Y-8750D02*X87475Y-9500D01*
X93775Y-6500D02*X94525Y-7250D01*
X92275Y-6500D02*X93775D01*
X91525Y-7250D02*X92275Y-6500D01*
X91525Y-7250D02*Y-8750D01*
X92275Y-9500D01*
X94525Y-6500D02*Y-8750D01*
X95275Y-9500D01*
X92275D02*X93775D01*
X94525Y-8750D01*
X97825Y-7250D02*Y-9500D01*
Y-7250D02*X98575Y-6500D01*
X100075D01*
X97075D02*X97825Y-7250D01*
X104875Y-3500D02*Y-9500D01*
X104125D02*X104875Y-8750D01*
X102625Y-9500D02*X104125D01*
X101875Y-8750D02*X102625Y-9500D01*
X101875Y-7250D02*Y-8750D01*
Y-7250D02*X102625Y-6500D01*
X104125D01*
X104875Y-7250D01*
X109375D02*Y-8750D01*
Y-7250D02*X110125Y-6500D01*
X111625D01*
X112375Y-7250D01*
Y-8750D01*
X111625Y-9500D02*X112375Y-8750D01*
X110125Y-9500D02*X111625D01*
X109375Y-8750D02*X110125Y-9500D01*
X114175Y-6500D02*Y-8750D01*
X114925Y-9500D01*
X116425D01*
X117175Y-8750D01*
Y-6500D02*Y-8750D01*
X119725Y-3500D02*Y-8750D01*
X120475Y-9500D01*
X118975Y-5750D02*X120475D01*
X121975Y-3500D02*Y-8750D01*
X122725Y-9500D01*
G54D77*X124225Y-5000D02*Y-5150D01*
G54D76*Y-7250D02*Y-9500D01*
X126475Y-7250D02*Y-9500D01*
Y-7250D02*X127225Y-6500D01*
X127975D01*
X128725Y-7250D01*
Y-9500D01*
X125725Y-6500D02*X126475Y-7250D01*
X131275Y-9500D02*X133525D01*
X130525Y-8750D02*X131275Y-9500D01*
X130525Y-7250D02*Y-8750D01*
Y-7250D02*X131275Y-6500D01*
X132775D01*
X133525Y-7250D01*
X130525Y-8000D02*X133525D01*
Y-7250D02*Y-8000D01*
G54D77*X138025Y-5000D02*Y-5150D01*
G54D76*Y-7250D02*Y-9500D01*
X140275D02*X142525D01*
X143275Y-8750D01*
X142525Y-8000D02*X143275Y-8750D01*
X140275Y-8000D02*X142525D01*
X139525Y-7250D02*X140275Y-8000D01*
X139525Y-7250D02*X140275Y-6500D01*
X142525D01*
X143275Y-7250D01*
X139525Y-8750D02*X140275Y-9500D01*
X148525Y-3500D02*Y-8750D01*
X149275Y-9500D01*
X147775Y-5750D02*X149275D01*
X150775Y-3500D02*Y-9500D01*
Y-7250D02*X151525Y-6500D01*
X153025D01*
X153775Y-7250D01*
Y-9500D01*
X156325D02*X158575D01*
X155575Y-8750D02*X156325Y-9500D01*
X155575Y-7250D02*Y-8750D01*
Y-7250D02*X156325Y-6500D01*
X157825D01*
X158575Y-7250D01*
X155575Y-8000D02*X158575D01*
Y-7250D02*Y-8000D01*
X163825Y-6500D02*X166075D01*
X163075Y-7250D02*X163825Y-6500D01*
X163075Y-7250D02*Y-8750D01*
X163825Y-9500D01*
X166075D01*
X168625D02*X170875D01*
X167875Y-8750D02*X168625Y-9500D01*
X167875Y-7250D02*Y-8750D01*
Y-7250D02*X168625Y-6500D01*
X170125D01*
X170875Y-7250D01*
X167875Y-8000D02*X170875D01*
Y-7250D02*Y-8000D01*
X173425Y-7250D02*Y-9500D01*
Y-7250D02*X174175Y-6500D01*
X174925D01*
X175675Y-7250D01*
Y-9500D01*
X172675Y-6500D02*X173425Y-7250D01*
X178225Y-3500D02*Y-8750D01*
X178975Y-9500D01*
X177475Y-5750D02*X178975D01*
X181225Y-9500D02*X183475D01*
X180475Y-8750D02*X181225Y-9500D01*
X180475Y-7250D02*Y-8750D01*
Y-7250D02*X181225Y-6500D01*
X182725D01*
X183475Y-7250D01*
X180475Y-8000D02*X183475D01*
Y-7250D02*Y-8000D01*
X186025Y-7250D02*Y-9500D01*
Y-7250D02*X186775Y-6500D01*
X188275D01*
X185275D02*X186025Y-7250D01*
X190075Y-3500D02*Y-8750D01*
X190825Y-9500D01*
G54D77*X192325Y-5000D02*Y-5150D01*
G54D76*Y-7250D02*Y-9500D01*
X194575Y-7250D02*Y-9500D01*
Y-7250D02*X195325Y-6500D01*
X196075D01*
X196825Y-7250D01*
Y-9500D01*
X193825Y-6500D02*X194575Y-7250D01*
X199375Y-9500D02*X201625D01*
X198625Y-8750D02*X199375Y-9500D01*
X198625Y-7250D02*Y-8750D01*
Y-7250D02*X199375Y-6500D01*
X200875D01*
X201625Y-7250D01*
X198625Y-8000D02*X201625D01*
Y-7250D02*Y-8000D01*
X206125Y-7250D02*Y-8750D01*
Y-7250D02*X206875Y-6500D01*
X208375D01*
X209125Y-7250D01*
Y-8750D01*
X208375Y-9500D02*X209125Y-8750D01*
X206875Y-9500D02*X208375D01*
X206125Y-8750D02*X206875Y-9500D01*
X211675Y-4250D02*Y-9500D01*
Y-4250D02*X212425Y-3500D01*
X213175D01*
X210925Y-6500D02*X212425D01*
X218125Y-3500D02*Y-8750D01*
X218875Y-9500D01*
X217375Y-5750D02*X218875D01*
X220375Y-3500D02*Y-9500D01*
Y-7250D02*X221125Y-6500D01*
X222625D01*
X223375Y-7250D01*
Y-9500D01*
G54D77*X225175Y-5000D02*Y-5150D01*
G54D76*Y-7250D02*Y-9500D01*
X227425D02*X229675D01*
X230425Y-8750D01*
X229675Y-8000D02*X230425Y-8750D01*
X227425Y-8000D02*X229675D01*
X226675Y-7250D02*X227425Y-8000D01*
X226675Y-7250D02*X227425Y-6500D01*
X229675D01*
X230425Y-7250D01*
X226675Y-8750D02*X227425Y-9500D01*
X235675Y-7250D02*Y-11750D01*
X234925Y-6500D02*X235675Y-7250D01*
X236425Y-6500D01*
X237925D01*
X238675Y-7250D01*
Y-8750D01*
X237925Y-9500D02*X238675Y-8750D01*
X236425Y-9500D02*X237925D01*
X235675Y-8750D02*X236425Y-9500D01*
X242725Y-6500D02*X243475Y-7250D01*
X241225Y-6500D02*X242725D01*
X240475Y-7250D02*X241225Y-6500D01*
X240475Y-7250D02*Y-8750D01*
X241225Y-9500D01*
X243475Y-6500D02*Y-8750D01*
X244225Y-9500D01*
X241225D02*X242725D01*
X243475Y-8750D01*
X246775Y-3500D02*Y-8750D01*
X247525Y-9500D01*
X246025Y-5750D02*X247525D01*
X249025Y-3500D02*Y-9500D01*
Y-7250D02*X249775Y-6500D01*
X251275D01*
X252025Y-7250D01*
Y-9500D01*
X200750Y258500D02*Y252500D01*
X202700Y258500D02*X203750Y257450D01*
Y253550D01*
X202700Y252500D02*X203750Y253550D01*
X200000Y252500D02*X202700D01*
X200000Y258500D02*X202700D01*
X207800Y255500D02*X208550Y254750D01*
X206300Y255500D02*X207800D01*
X205550Y254750D02*X206300Y255500D01*
X205550Y254750D02*Y253250D01*
X206300Y252500D01*
X208550Y255500D02*Y253250D01*
X209300Y252500D01*
X206300D02*X207800D01*
X208550Y253250D01*
X211850Y258500D02*Y253250D01*
X212600Y252500D01*
X211100Y256250D02*X212600D01*
X214850Y252500D02*X217100D01*
X214100Y253250D02*X214850Y252500D01*
X214100Y254750D02*Y253250D01*
Y254750D02*X214850Y255500D01*
X216350D01*
X217100Y254750D01*
X214100Y254000D02*X217100D01*
Y254750D02*Y254000D01*
X218900Y256250D02*X219650D01*
X218900Y254750D02*X219650D01*
X227150Y258500D02*X227900Y257750D01*
X224900Y258500D02*X227150D01*
X224150Y257750D02*X224900Y258500D01*
X224150Y257750D02*Y256250D01*
X224900Y255500D01*
X227150D01*
X227900Y254750D01*
Y253250D01*
X227150Y252500D02*X227900Y253250D01*
X224900Y252500D02*X227150D01*
X224150Y253250D02*X224900Y252500D01*
X229700Y255500D02*Y253250D01*
X230450Y252500D01*
X231950D01*
X232700Y253250D01*
Y255500D02*Y253250D01*
X235250Y254750D02*Y252500D01*
Y254750D02*X236000Y255500D01*
X236750D01*
X237500Y254750D01*
Y252500D01*
X234500Y255500D02*X235250Y254750D01*
X242000Y257750D02*Y253250D01*
Y257750D02*X242750Y258500D01*
X244250D01*
X245000Y257750D01*
Y253250D01*
X244250Y252500D02*X245000Y253250D01*
X242750Y252500D02*X244250D01*
X242000Y253250D02*X242750Y252500D01*
X247550Y255500D02*X249800D01*
X246800Y254750D02*X247550Y255500D01*
X246800Y254750D02*Y253250D01*
X247550Y252500D01*
X249800D01*
X252350Y258500D02*Y253250D01*
X253100Y252500D01*
X251600Y256250D02*X253100D01*
X257300Y257300D02*X258500Y258500D01*
Y252500D01*
X257300D02*X259550D01*
X263600Y258500D02*X264350Y257750D01*
X262100Y258500D02*X263600D01*
X261350Y257750D02*X262100Y258500D01*
X261350Y257750D02*Y253250D01*
X262100Y252500D01*
X263600Y255800D02*X264350Y255050D01*
X261350Y255800D02*X263600D01*
X262100Y252500D02*X263600D01*
X264350Y253250D01*
Y255050D02*Y253250D01*
X268850D02*X269600Y252500D01*
X268850Y257750D02*Y253250D01*
Y257750D02*X269600Y258500D01*
X271100D01*
X271850Y257750D01*
Y253250D01*
X271100Y252500D02*X271850Y253250D01*
X269600Y252500D02*X271100D01*
X268850Y254000D02*X271850Y257000D01*
X273650Y254750D02*X276650Y258500D01*
X273650Y254750D02*X277400D01*
X276650Y258500D02*Y252500D01*
X279200Y256250D02*X279950D01*
X279200Y254750D02*X279950D01*
X281750Y253250D02*X282500Y252500D01*
X281750Y257750D02*Y253250D01*
Y257750D02*X282500Y258500D01*
X284000D01*
X284750Y257750D01*
Y253250D01*
X284000Y252500D02*X284750Y253250D01*
X282500Y252500D02*X284000D01*
X281750Y254000D02*X284750Y257000D01*
X286550Y257300D02*X287750Y258500D01*
Y252500D01*
X286550D02*X288800D01*
X290600Y256250D02*X291350D01*
X290600Y254750D02*X291350D01*
X293150Y257750D02*X293900Y258500D01*
X295400D01*
X296150Y257750D01*
X295400Y252500D02*X296150Y253250D01*
X293900Y252500D02*X295400D01*
X293150Y253250D02*X293900Y252500D01*
Y255800D02*X295400D01*
X296150Y257750D02*Y256550D01*
Y255050D02*Y253250D01*
Y255050D02*X295400Y255800D01*
X296150Y256550D02*X295400Y255800D01*
X297950Y253250D02*X298700Y252500D01*
X297950Y254450D02*Y253250D01*
Y254450D02*X299000Y255500D01*
X299900D01*
X300950Y254450D01*
Y253250D01*
X300200Y252500D02*X300950Y253250D01*
X298700Y252500D02*X300200D01*
X297950Y256550D02*X299000Y255500D01*
X297950Y257750D02*Y256550D01*
Y257750D02*X298700Y258500D01*
X300200D01*
X300950Y257750D01*
Y256550D01*
X299900Y255500D02*X300950Y256550D01*
X305450Y257750D02*X306200Y258500D01*
X308450D01*
X309200Y257750D01*
Y256250D01*
X305450Y252500D02*X309200Y256250D01*
X305450Y252500D02*X309200D01*
X311000Y253250D02*X311750Y252500D01*
X311000Y257750D02*Y253250D01*
Y257750D02*X311750Y258500D01*
X313250D01*
X314000Y257750D01*
Y253250D01*
X313250Y252500D02*X314000Y253250D01*
X311750Y252500D02*X313250D01*
X311000Y254000D02*X314000Y257000D01*
X315800Y257750D02*X316550Y258500D01*
X318800D01*
X319550Y257750D01*
Y256250D01*
X315800Y252500D02*X319550Y256250D01*
X315800Y252500D02*X319550D01*
X321350Y257750D02*X322100Y258500D01*
X324350D01*
X325100Y257750D01*
Y256250D01*
X321350Y252500D02*X325100Y256250D01*
X321350Y252500D02*X325100D01*
X329600Y258500D02*Y253250D01*
X330350Y252500D01*
X331850D01*
X332600Y253250D01*
Y258500D02*Y253250D01*
X334400Y258500D02*X337400D01*
X335900D02*Y252500D01*
X340250D02*X342200D01*
X339200Y253550D02*X340250Y252500D01*
X339200Y257450D02*Y253550D01*
Y257450D02*X340250Y258500D01*
X342200D01*
X200000Y272000D02*Y267500D01*
Y272000D02*X201050Y273500D01*
X202700D01*
X203750Y272000D01*
Y267500D01*
X200000Y270500D02*X203750D01*
X205550D02*Y268250D01*
X206300Y267500D01*
X207800D01*
X208550Y268250D01*
Y270500D02*Y268250D01*
X211100Y273500D02*Y268250D01*
X211850Y267500D01*
X210350Y271250D02*X211850D01*
X213350Y273500D02*Y267500D01*
Y269750D02*X214100Y270500D01*
X215600D01*
X216350Y269750D01*
Y267500D01*
X218150Y269750D02*Y268250D01*
Y269750D02*X218900Y270500D01*
X220400D01*
X221150Y269750D01*
Y268250D01*
X220400Y267500D02*X221150Y268250D01*
X218900Y267500D02*X220400D01*
X218150Y268250D02*X218900Y267500D01*
X223700Y269750D02*Y267500D01*
Y269750D02*X224450Y270500D01*
X225950D01*
X222950D02*X223700Y269750D01*
X227750Y271250D02*X228500D01*
X227750Y269750D02*X228500D01*
X233000Y273500D02*Y267500D01*
Y273500D02*X236750Y267500D01*
Y273500D02*Y267500D01*
X240800Y270500D02*X241550Y269750D01*
X239300Y270500D02*X240800D01*
X238550Y269750D02*X239300Y270500D01*
X238550Y269750D02*Y268250D01*
X239300Y267500D01*
X241550Y270500D02*Y268250D01*
X242300Y267500D01*
X239300D02*X240800D01*
X241550Y268250D01*
X244850Y273500D02*Y268250D01*
X245600Y267500D01*
X244100Y271250D02*X245600D01*
X247100Y273500D02*Y267500D01*
Y269750D02*X247850Y270500D01*
X249350D01*
X250100Y269750D01*
Y267500D01*
X254150Y270500D02*X254900Y269750D01*
X252650Y270500D02*X254150D01*
X251900Y269750D02*X252650Y270500D01*
X251900Y269750D02*Y268250D01*
X252650Y267500D01*
X254900Y270500D02*Y268250D01*
X255650Y267500D01*
X252650D02*X254150D01*
X254900Y268250D01*
X258200Y269750D02*Y267500D01*
Y269750D02*X258950Y270500D01*
X259700D01*
X260450Y269750D01*
Y267500D01*
X257450Y270500D02*X258200Y269750D01*
X265700Y273500D02*Y267500D01*
X267650Y273500D02*X268700Y272450D01*
Y268550D01*
X267650Y267500D02*X268700Y268550D01*
X264950Y267500D02*X267650D01*
X264950Y273500D02*X267650D01*
X270500Y267500D02*X271250D01*
X275750Y273500D02*Y267500D01*
X279500Y273500D02*Y267500D01*
X275750Y270500D02*X279500D01*
X281300Y269750D02*Y268250D01*
Y269750D02*X282050Y270500D01*
X283550D01*
X284300Y269750D01*
Y268250D01*
X283550Y267500D02*X284300Y268250D01*
X282050Y267500D02*X283550D01*
X281300Y268250D02*X282050Y267500D01*
X286100Y273500D02*Y268250D01*
X286850Y267500D01*
X289100Y269750D02*Y267500D01*
Y269750D02*X289850Y270500D01*
X290600D01*
X291350Y269750D01*
Y267500D01*
Y269750D02*X292100Y270500D01*
X292850D01*
X293600Y269750D01*
Y267500D01*
X288350Y270500D02*X289100Y269750D01*
X296150Y267500D02*X298400D01*
X295400Y268250D02*X296150Y267500D01*
X295400Y269750D02*Y268250D01*
Y269750D02*X296150Y270500D01*
X297650D01*
X298400Y269750D01*
X295400Y269000D02*X298400D01*
Y269750D02*Y269000D01*
X300950Y267500D02*X303200D01*
X303950Y268250D01*
X303200Y269000D02*X303950Y268250D01*
X300950Y269000D02*X303200D01*
X300200Y269750D02*X300950Y269000D01*
X300200Y269750D02*X300950Y270500D01*
X303200D01*
X303950Y269750D01*
X300200Y268250D02*X300950Y267500D01*
X200000Y288500D02*X203000D01*
X201500D02*Y282500D01*
G54D77*X204800Y287000D02*Y286850D01*
G54D76*Y284750D02*Y282500D01*
X207050Y288500D02*Y283250D01*
X207800Y282500D01*
X206300Y286250D02*X207800D01*
X209300Y288500D02*Y283250D01*
X210050Y282500D01*
X212300D02*X214550D01*
X211550Y283250D02*X212300Y282500D01*
X211550Y284750D02*Y283250D01*
Y284750D02*X212300Y285500D01*
X213800D01*
X214550Y284750D01*
X211550Y284000D02*X214550D01*
Y284750D02*Y284000D01*
X216350Y286250D02*X217100D01*
X216350Y284750D02*X217100D01*
X221600Y283250D02*X222350Y282500D01*
X221600Y287750D02*X222350Y288500D01*
X221600Y287750D02*Y283250D01*
X224150Y285500D02*Y283250D01*
X224900Y282500D01*
X226400D01*
X227150Y283250D01*
Y285500D02*Y283250D01*
X229700Y284750D02*Y282500D01*
Y284750D02*X230450Y285500D01*
X231200D01*
X231950Y284750D01*
Y282500D01*
X228950Y285500D02*X229700Y284750D01*
X233750Y288500D02*Y282500D01*
Y284750D02*X236000Y282500D01*
X233750Y284750D02*X235250Y286250D01*
X238550Y284750D02*Y282500D01*
Y284750D02*X239300Y285500D01*
X240050D01*
X240800Y284750D01*
Y282500D01*
X237800Y285500D02*X238550Y284750D01*
X242600D02*Y283250D01*
Y284750D02*X243350Y285500D01*
X244850D01*
X245600Y284750D01*
Y283250D01*
X244850Y282500D02*X245600Y283250D01*
X243350Y282500D02*X244850D01*
X242600Y283250D02*X243350Y282500D01*
X247400Y285500D02*Y283250D01*
X248150Y282500D01*
X248900D01*
X249650Y283250D01*
Y285500D02*Y283250D01*
X250400Y282500D01*
X251150D01*
X251900Y283250D01*
Y285500D02*Y283250D01*
X254450Y284750D02*Y282500D01*
Y284750D02*X255200Y285500D01*
X255950D01*
X256700Y284750D01*
Y282500D01*
X253700Y285500D02*X254450Y284750D01*
X258500Y288500D02*X259250Y287750D01*
Y283250D01*
X258500Y282500D02*X259250Y283250D01*
X263750Y285500D02*X266750D01*
X271250Y288500D02*Y282500D01*
Y288500D02*X274250D01*
X271250Y285800D02*X273500D01*
X278300Y285500D02*X279050Y284750D01*
X276800Y285500D02*X278300D01*
X276050Y284750D02*X276800Y285500D01*
X276050Y284750D02*Y283250D01*
X276800Y282500D01*
X279050Y285500D02*Y283250D01*
X279800Y282500D01*
X276800D02*X278300D01*
X279050Y283250D01*
X281600Y288500D02*Y282500D01*
Y283250D02*X282350Y282500D01*
X283850D01*
X284600Y283250D01*
Y284750D02*Y283250D01*
X283850Y285500D02*X284600Y284750D01*
X282350Y285500D02*X283850D01*
X281600Y284750D02*X282350Y285500D01*
X287150Y284750D02*Y282500D01*
Y284750D02*X287900Y285500D01*
X289400D01*
X286400D02*X287150Y284750D01*
G54D77*X291200Y287000D02*Y286850D01*
G54D76*Y284750D02*Y282500D01*
X293450Y285500D02*X295700D01*
X292700Y284750D02*X293450Y285500D01*
X292700Y284750D02*Y283250D01*
X293450Y282500D01*
X295700D01*
X299750Y285500D02*X300500Y284750D01*
X298250Y285500D02*X299750D01*
X297500Y284750D02*X298250Y285500D01*
X297500Y284750D02*Y283250D01*
X298250Y282500D01*
X300500Y285500D02*Y283250D01*
X301250Y282500D01*
X298250D02*X299750D01*
X300500Y283250D01*
X303800Y288500D02*Y283250D01*
X304550Y282500D01*
X303050Y286250D02*X304550D01*
G54D77*X306050Y287000D02*Y286850D01*
G54D76*Y284750D02*Y282500D01*
X307550Y284750D02*Y283250D01*
Y284750D02*X308300Y285500D01*
X309800D01*
X310550Y284750D01*
Y283250D01*
X309800Y282500D02*X310550Y283250D01*
X308300Y282500D02*X309800D01*
X307550Y283250D02*X308300Y282500D01*
X313100Y284750D02*Y282500D01*
Y284750D02*X313850Y285500D01*
X314600D01*
X315350Y284750D01*
Y282500D01*
X312350Y285500D02*X313100Y284750D01*
X320600Y288500D02*Y282500D01*
X322550Y288500D02*X323600Y287450D01*
Y283550D01*
X322550Y282500D02*X323600Y283550D01*
X319850Y282500D02*X322550D01*
X319850Y288500D02*X322550D01*
X326150Y284750D02*Y282500D01*
Y284750D02*X326900Y285500D01*
X328400D01*
X325400D02*X326150Y284750D01*
X332450Y285500D02*X333200Y284750D01*
X330950Y285500D02*X332450D01*
X330200Y284750D02*X330950Y285500D01*
X330200Y284750D02*Y283250D01*
X330950Y282500D01*
X333200Y285500D02*Y283250D01*
X333950Y282500D01*
X330950D02*X332450D01*
X333200Y283250D01*
X335750Y285500D02*Y283250D01*
X336500Y282500D01*
X337250D01*
X338000Y283250D01*
Y285500D02*Y283250D01*
X338750Y282500D01*
X339500D01*
X340250Y283250D01*
Y285500D02*Y283250D01*
G54D77*X342050Y287000D02*Y286850D01*
G54D76*Y284750D02*Y282500D01*
X344300Y284750D02*Y282500D01*
Y284750D02*X345050Y285500D01*
X345800D01*
X346550Y284750D01*
Y282500D01*
X343550Y285500D02*X344300Y284750D01*
X350600Y285500D02*X351350Y284750D01*
X349100Y285500D02*X350600D01*
X348350Y284750D02*X349100Y285500D01*
X348350Y284750D02*Y283250D01*
X349100Y282500D01*
X350600D01*
X351350Y283250D01*
X348350Y281000D02*X349100Y280250D01*
X350600D01*
X351350Y281000D01*
Y285500D02*Y281000D01*
M02*
