G04 start of page 3 for group 1 idx 1 *
G04 Title: (unknown), bottom *
G04 Creator: pcb 4.0.2 *
G04 CreationDate: Sun Oct 16 04:01:38 2022 UTC *
G04 For: ndholmes *
G04 Format: Gerber/RS-274X *
G04 PCB-Dimensions (mil): 3350.00 2300.00 *
G04 PCB-Coordinate-Origin: lower left *
%MOIN*%
%FSLAX25Y25*%
%LNBOTTOM*%
%ADD44C,0.0390*%
%ADD43C,0.1285*%
%ADD42C,0.0433*%
%ADD41C,0.0380*%
%ADD40C,0.0935*%
%ADD39C,0.0790*%
%ADD38C,0.0120*%
%ADD37C,0.0260*%
%ADD36C,0.2937*%
%ADD35C,0.0633*%
%ADD34C,0.0680*%
%ADD33C,0.0250*%
%ADD32C,0.0100*%
%ADD31C,0.0001*%
G54D31*G36*
X44725Y39500D02*X101500D01*
Y26059D01*
X101495Y26000D01*
X101514Y25765D01*
X101569Y25535D01*
X101659Y25317D01*
X101783Y25116D01*
X101936Y24936D01*
X101981Y24898D01*
X106898Y19981D01*
X106936Y19936D01*
X107116Y19783D01*
X107317Y19659D01*
X107535Y19569D01*
X107765Y19514D01*
X108000Y19495D01*
X108059Y19500D01*
X131379D01*
X137621Y13258D01*
X137241Y13349D01*
X136465Y13410D01*
X135688Y13349D01*
X134930Y13167D01*
X134210Y12869D01*
X133546Y12462D01*
X132954Y11956D01*
X132448Y11363D01*
X132040Y10699D01*
X131742Y9979D01*
X131560Y9222D01*
X131499Y8445D01*
X131560Y7668D01*
X131742Y6911D01*
X132040Y6191D01*
X132448Y5526D01*
X132954Y4934D01*
X133546Y4428D01*
X134210Y4021D01*
X134930Y3723D01*
X135688Y3541D01*
X136465Y3480D01*
X137241Y3541D01*
X137999Y3723D01*
X138719Y4021D01*
X139383Y4428D01*
X139976Y4934D01*
X140482Y5526D01*
X140889Y6191D01*
X141187Y6911D01*
X141369Y7668D01*
X141415Y8445D01*
X141369Y9222D01*
X141278Y9601D01*
X145398Y5481D01*
X145436Y5436D01*
X145616Y5283D01*
X145817Y5159D01*
X146035Y5069D01*
X146265Y5014D01*
X146500Y4995D01*
X146559Y5000D01*
X153500D01*
Y2000D01*
X44725D01*
Y3480D01*
X44732Y3480D01*
X45509Y3541D01*
X46267Y3723D01*
X46986Y4021D01*
X47651Y4428D01*
X48243Y4934D01*
X48749Y5526D01*
X49156Y6191D01*
X49455Y6911D01*
X49636Y7668D01*
X49682Y8445D01*
X49636Y9222D01*
X49455Y9979D01*
X49156Y10699D01*
X48749Y11363D01*
X48243Y11956D01*
X47651Y12462D01*
X46986Y12869D01*
X46267Y13167D01*
X45509Y13349D01*
X44732Y13410D01*
X44725Y13410D01*
Y39500D01*
G37*
G36*
X2000D02*X44725D01*
Y13410D01*
X43956Y13349D01*
X43198Y13167D01*
X42478Y12869D01*
X41814Y12462D01*
X41221Y11956D01*
X40715Y11363D01*
X40308Y10699D01*
X40010Y9979D01*
X39828Y9222D01*
X39767Y8445D01*
X39828Y7668D01*
X40010Y6911D01*
X40308Y6191D01*
X40715Y5526D01*
X41221Y4934D01*
X41814Y4428D01*
X42478Y4021D01*
X43198Y3723D01*
X43956Y3541D01*
X44725Y3480D01*
Y2000D01*
X21705D01*
X21862Y2038D01*
X24142Y2982D01*
X26247Y4272D01*
X28124Y5876D01*
X29728Y7753D01*
X31018Y9858D01*
X31962Y12138D01*
X32539Y14539D01*
X32684Y17000D01*
X32539Y19461D01*
X31962Y21862D01*
X31018Y24142D01*
X29728Y26247D01*
X28124Y28124D01*
X26247Y29728D01*
X24142Y31018D01*
X21862Y31962D01*
X19461Y32539D01*
X17000Y32732D01*
X14539Y32539D01*
X12138Y31962D01*
X9858Y31018D01*
X7753Y29728D01*
X5876Y28124D01*
X4272Y26247D01*
X2982Y24142D01*
X2038Y21862D01*
X2000Y21705D01*
Y39500D01*
G37*
G36*
X107000Y36500D02*X152382D01*
Y11744D01*
X146377D01*
X133602Y24519D01*
X133564Y24564D01*
X133384Y24717D01*
X133183Y24841D01*
X132965Y24931D01*
X132735Y24986D01*
X132500Y25005D01*
X132441Y25000D01*
X109621D01*
X107000Y27621D01*
Y36500D01*
G37*
G36*
X313295Y2000D02*X184494D01*
Y5000D01*
X285756D01*
X285869Y4869D01*
X286144Y4634D01*
X286453Y4444D01*
X286787Y4306D01*
X287139Y4221D01*
X287500Y4193D01*
X287861Y4221D01*
X288213Y4306D01*
X288547Y4444D01*
X288856Y4634D01*
X289131Y4869D01*
X289366Y5144D01*
X289556Y5453D01*
X289694Y5787D01*
X289779Y6139D01*
X289800Y6500D01*
X289779Y6861D01*
X289694Y7213D01*
X289556Y7547D01*
X289366Y7856D01*
X289131Y8131D01*
X288856Y8366D01*
X288547Y8556D01*
X288213Y8694D01*
X287861Y8779D01*
X287500Y8807D01*
X287139Y8779D01*
X286882Y8717D01*
X286885Y8725D01*
X286977Y9108D01*
X287000Y9500D01*
X286977Y9892D01*
X286885Y10275D01*
X286734Y10638D01*
X286529Y10974D01*
X286273Y11273D01*
X285974Y11529D01*
X285638Y11734D01*
X285275Y11885D01*
X284892Y11977D01*
X284500Y12008D01*
X284108Y11977D01*
X283725Y11885D01*
X283455Y11773D01*
X283932Y12250D01*
X291020D01*
X291139Y12221D01*
X291500Y12193D01*
X291861Y12221D01*
X291980Y12250D01*
X295020D01*
X295139Y12221D01*
X295500Y12193D01*
X295861Y12221D01*
X296213Y12306D01*
X296547Y12444D01*
X296856Y12634D01*
X297131Y12869D01*
X297366Y13144D01*
X297556Y13453D01*
X297694Y13787D01*
X297779Y14139D01*
X297800Y14500D01*
X297779Y14861D01*
X297694Y15213D01*
X297556Y15547D01*
X297366Y15856D01*
X297131Y16131D01*
X296856Y16366D01*
X296547Y16556D01*
X296213Y16694D01*
X295861Y16779D01*
X295500Y16807D01*
X295139Y16779D01*
X295020Y16750D01*
X291980D01*
X291861Y16779D01*
X291500Y16807D01*
X291139Y16779D01*
X291020Y16750D01*
X283088D01*
X283000Y16757D01*
X282647Y16729D01*
X282303Y16646D01*
X281975Y16511D01*
X281673Y16326D01*
X281673Y16326D01*
X281404Y16096D01*
X281347Y16029D01*
X280068Y14750D01*
X184494D01*
Y19822D01*
X184500Y19822D01*
X185154Y19873D01*
X185791Y20026D01*
X186397Y20277D01*
X186956Y20620D01*
X187454Y21046D01*
X187880Y21544D01*
X188223Y22103D01*
X188474Y22709D01*
X188627Y23346D01*
X188665Y24000D01*
X188627Y24654D01*
X188474Y25291D01*
X188223Y25897D01*
X187880Y26456D01*
X187454Y26954D01*
X186956Y27380D01*
X186397Y27723D01*
X185791Y27974D01*
X185154Y28127D01*
X184500Y28178D01*
X184494Y28178D01*
Y37500D01*
X333000D01*
Y21705D01*
X332962Y21862D01*
X332018Y24142D01*
X330728Y26247D01*
X329124Y28124D01*
X327247Y29728D01*
X325142Y31018D01*
X322862Y31962D01*
X320461Y32539D01*
X318000Y32732D01*
X315539Y32539D01*
X313138Y31962D01*
X310858Y31018D01*
X308753Y29728D01*
X306876Y28124D01*
X305272Y26247D01*
X303982Y24142D01*
X303038Y21862D01*
X302461Y19461D01*
X302268Y17000D01*
X302461Y14539D01*
X303038Y12138D01*
X303982Y9858D01*
X305272Y7753D01*
X306876Y5876D01*
X308753Y4272D01*
X310858Y2982D01*
X313138Y2038D01*
X313295Y2000D01*
G37*
G36*
X184494Y14750D02*X177932D01*
X177250Y15432D01*
Y26912D01*
X177257Y27000D01*
X177229Y27353D01*
X177146Y27697D01*
X177107Y27793D01*
X177011Y28025D01*
X176896Y28212D01*
X176826Y28327D01*
X176826Y28327D01*
X176596Y28596D01*
X176529Y28653D01*
X171750Y33432D01*
Y37500D01*
X184494D01*
Y28178D01*
X183846Y28127D01*
X183209Y27974D01*
X182603Y27723D01*
X182044Y27380D01*
X181546Y26954D01*
X181120Y26456D01*
X180777Y25897D01*
X180526Y25291D01*
X180373Y24654D01*
X180322Y24000D01*
X180373Y23346D01*
X180526Y22709D01*
X180777Y22103D01*
X181120Y21544D01*
X181546Y21046D01*
X182044Y20620D01*
X182603Y20277D01*
X183209Y20026D01*
X183846Y19873D01*
X184494Y19822D01*
Y14750D01*
G37*
G36*
Y2000D02*X131000D01*
Y19500D01*
X131379D01*
X137621Y13258D01*
X137241Y13349D01*
X136465Y13410D01*
X135688Y13349D01*
X134930Y13167D01*
X134210Y12869D01*
X133546Y12462D01*
X132954Y11956D01*
X132448Y11363D01*
X132040Y10699D01*
X131742Y9979D01*
X131560Y9222D01*
X131499Y8445D01*
X131560Y7668D01*
X131742Y6911D01*
X132040Y6191D01*
X132448Y5526D01*
X132954Y4934D01*
X133546Y4428D01*
X134210Y4021D01*
X134930Y3723D01*
X135688Y3541D01*
X136465Y3480D01*
X137241Y3541D01*
X137999Y3723D01*
X138719Y4021D01*
X139383Y4428D01*
X139976Y4934D01*
X140482Y5526D01*
X140889Y6191D01*
X141187Y6911D01*
X141369Y7668D01*
X141415Y8445D01*
X141369Y9222D01*
X141278Y9601D01*
X145398Y5481D01*
X145436Y5436D01*
X145616Y5283D01*
X145817Y5159D01*
X146035Y5069D01*
X146265Y5014D01*
X146500Y4995D01*
X146559Y5000D01*
X184494D01*
Y2000D01*
G37*
G36*
X200931Y169465D02*X200841Y169683D01*
X200717Y169884D01*
X200564Y170064D01*
X200519Y170102D01*
X200000Y170621D01*
Y198441D01*
X200005Y198500D01*
X199986Y198735D01*
X199931Y198965D01*
X199841Y199183D01*
X199717Y199384D01*
X199564Y199564D01*
X199519Y199602D01*
X195121Y204000D01*
X202862D01*
X202953Y203944D01*
X203287Y203806D01*
X203639Y203721D01*
X204000Y203693D01*
X204361Y203721D01*
X204713Y203806D01*
X205047Y203944D01*
X205138Y204000D01*
X224379D01*
X226000Y202379D01*
Y193621D01*
X222172Y189794D01*
X222000Y189807D01*
X221639Y189779D01*
X221287Y189694D01*
X220953Y189556D01*
X220644Y189366D01*
X220369Y189131D01*
X220134Y188856D01*
X219944Y188547D01*
X219806Y188213D01*
X219721Y187861D01*
X219693Y187500D01*
X219721Y187139D01*
X219806Y186787D01*
X219944Y186453D01*
X220134Y186144D01*
X220369Y185869D01*
X220644Y185634D01*
X220953Y185444D01*
X221287Y185306D01*
X221639Y185221D01*
X222000Y185193D01*
X222361Y185221D01*
X222713Y185306D01*
X223047Y185444D01*
X223356Y185634D01*
X223631Y185869D01*
X223866Y186144D01*
X224056Y186453D01*
X224194Y186787D01*
X224279Y187139D01*
X224300Y187500D01*
X224290Y187669D01*
X228519Y191898D01*
X228564Y191936D01*
X228717Y192115D01*
X228717Y192116D01*
X228841Y192317D01*
X228931Y192535D01*
X228986Y192765D01*
X229005Y193000D01*
X229000Y193059D01*
Y202941D01*
X229005Y203000D01*
X228986Y203235D01*
X228931Y203465D01*
X228841Y203683D01*
X228717Y203884D01*
X228619Y204000D01*
X305121D01*
X305272Y203753D01*
X306876Y201876D01*
X308753Y200272D01*
X310858Y198982D01*
X313138Y198038D01*
X315539Y197461D01*
X318000Y197268D01*
X320461Y197461D01*
X322862Y198038D01*
X325142Y198982D01*
X327247Y200272D01*
X329124Y201876D01*
X330728Y203753D01*
X330879Y204000D01*
X333000D01*
Y21705D01*
X332962Y21862D01*
X332018Y24142D01*
X330728Y26247D01*
X329124Y28124D01*
X327247Y29728D01*
X325142Y31018D01*
X322862Y31962D01*
X320461Y32539D01*
X318000Y32732D01*
X315539Y32539D01*
X313138Y31962D01*
X310858Y31018D01*
X308753Y29728D01*
X306876Y28124D01*
X305272Y26247D01*
X303982Y24142D01*
X303038Y21862D01*
X302461Y19461D01*
X302346Y18000D01*
X184494D01*
Y19822D01*
X184500Y19822D01*
X185154Y19873D01*
X185791Y20026D01*
X186397Y20277D01*
X186956Y20620D01*
X187454Y21046D01*
X187880Y21544D01*
X188223Y22103D01*
X188474Y22709D01*
X188627Y23346D01*
X188665Y24000D01*
X188627Y24654D01*
X188474Y25291D01*
X188223Y25897D01*
X187880Y26456D01*
X187454Y26954D01*
X186956Y27380D01*
X186397Y27723D01*
X185791Y27974D01*
X185154Y28127D01*
X184500Y28178D01*
X184494Y28178D01*
Y197500D01*
X189379D01*
X191000Y195879D01*
Y167244D01*
X190869Y167131D01*
X190634Y166856D01*
X190444Y166547D01*
X190306Y166213D01*
X190221Y165861D01*
X190193Y165500D01*
X190221Y165139D01*
X190306Y164787D01*
X190444Y164453D01*
X190634Y164144D01*
X190869Y163869D01*
X191144Y163634D01*
X191453Y163444D01*
X191787Y163306D01*
X192139Y163221D01*
X192500Y163193D01*
X192861Y163221D01*
X193213Y163306D01*
X193547Y163444D01*
X193856Y163634D01*
X194000Y163756D01*
Y163621D01*
X192672Y162294D01*
X192500Y162307D01*
X192139Y162279D01*
X191787Y162194D01*
X191453Y162056D01*
X191144Y161866D01*
X190869Y161631D01*
X190634Y161356D01*
X190444Y161047D01*
X190306Y160713D01*
X190221Y160361D01*
X190193Y160000D01*
X190221Y159639D01*
X190306Y159287D01*
X190444Y158953D01*
X190634Y158644D01*
X190869Y158369D01*
X191144Y158134D01*
X191453Y157944D01*
X191787Y157806D01*
X192139Y157721D01*
X192500Y157693D01*
X192861Y157721D01*
X193176Y157797D01*
X192672Y157294D01*
X192500Y157307D01*
X192139Y157279D01*
X191787Y157194D01*
X191453Y157056D01*
X191144Y156866D01*
X190869Y156631D01*
X190634Y156356D01*
X190444Y156047D01*
X190306Y155713D01*
X190221Y155361D01*
X190193Y155000D01*
X190221Y154639D01*
X190306Y154287D01*
X190444Y153953D01*
X190634Y153644D01*
X190869Y153369D01*
X191144Y153134D01*
X191453Y152944D01*
X191787Y152806D01*
X192139Y152721D01*
X192500Y152693D01*
X192861Y152721D01*
X193176Y152797D01*
X192672Y152294D01*
X192500Y152307D01*
X192139Y152279D01*
X191787Y152194D01*
X191453Y152056D01*
X191144Y151866D01*
X190869Y151631D01*
X190634Y151356D01*
X190444Y151047D01*
X190306Y150713D01*
X190221Y150361D01*
X190193Y150000D01*
X190221Y149639D01*
X190306Y149287D01*
X190444Y148953D01*
X190634Y148644D01*
X190869Y148369D01*
X191144Y148134D01*
X191453Y147944D01*
X191787Y147806D01*
X192139Y147721D01*
X192500Y147693D01*
X192861Y147721D01*
X193213Y147806D01*
X193547Y147944D01*
X193856Y148134D01*
X194131Y148369D01*
X194366Y148644D01*
X194556Y148953D01*
X194694Y149287D01*
X194779Y149639D01*
X194800Y150000D01*
X194790Y150169D01*
X200519Y155898D01*
X200564Y155936D01*
X200717Y156115D01*
X200717Y156116D01*
X200841Y156317D01*
X200931Y156535D01*
X200986Y156765D01*
X201005Y157000D01*
X201000Y157059D01*
Y168941D01*
X201005Y169000D01*
X200986Y169235D01*
X200931Y169465D01*
G37*
G36*
X184494Y18000D02*X177250D01*
Y26912D01*
X177257Y27000D01*
X177229Y27353D01*
X177146Y27697D01*
X177107Y27793D01*
X177011Y28025D01*
X176896Y28212D01*
X176826Y28327D01*
X176826Y28327D01*
X176596Y28596D01*
X176529Y28653D01*
X171750Y33432D01*
Y43020D01*
X171779Y43139D01*
X171800Y43500D01*
X171779Y43861D01*
X171694Y44213D01*
X171556Y44547D01*
X171366Y44856D01*
X171131Y45131D01*
X170856Y45366D01*
X170547Y45556D01*
X170213Y45694D01*
X169861Y45779D01*
X169500Y45807D01*
X169139Y45779D01*
X168787Y45694D01*
X168453Y45556D01*
X168144Y45366D01*
X167869Y45131D01*
X167634Y44856D01*
X167444Y44547D01*
X167306Y44213D01*
X167221Y43861D01*
X167193Y43500D01*
X167221Y43139D01*
X167250Y43020D01*
Y32588D01*
X167243Y32500D01*
X167271Y32147D01*
Y32147D01*
X167354Y31803D01*
X167489Y31475D01*
X167559Y31361D01*
X167674Y31173D01*
X167674Y31173D01*
X167904Y30904D01*
X167971Y30847D01*
X172750Y26068D01*
Y18000D01*
X167171D01*
Y19822D01*
X167177Y19822D01*
X167831Y19873D01*
X168468Y20026D01*
X169074Y20277D01*
X169633Y20620D01*
X170132Y21046D01*
X170557Y21544D01*
X170900Y22103D01*
X171151Y22709D01*
X171304Y23346D01*
X171343Y24000D01*
X171304Y24654D01*
X171151Y25291D01*
X170900Y25897D01*
X170557Y26456D01*
X170132Y26954D01*
X169633Y27380D01*
X169074Y27723D01*
X168468Y27974D01*
X167831Y28127D01*
X167177Y28178D01*
X167171Y28178D01*
Y197500D01*
X184494D01*
Y28178D01*
X183846Y28127D01*
X183209Y27974D01*
X182603Y27723D01*
X182044Y27380D01*
X181546Y26954D01*
X181120Y26456D01*
X180777Y25897D01*
X180526Y25291D01*
X180373Y24654D01*
X180322Y24000D01*
X180373Y23346D01*
X180526Y22709D01*
X180777Y22103D01*
X181120Y21544D01*
X181546Y21046D01*
X182044Y20620D01*
X182603Y20277D01*
X183209Y20026D01*
X183846Y19873D01*
X184494Y19822D01*
Y18000D01*
G37*
G36*
X167171D02*X158000D01*
Y197500D01*
X167171D01*
Y28178D01*
X166524Y28127D01*
X165886Y27974D01*
X165280Y27723D01*
X164721Y27380D01*
X164223Y26954D01*
X163797Y26456D01*
X163454Y25897D01*
X163203Y25291D01*
X163050Y24654D01*
X162999Y24000D01*
X163050Y23346D01*
X163203Y22709D01*
X163454Y22103D01*
X163797Y21544D01*
X164223Y21046D01*
X164721Y20620D01*
X165280Y20277D01*
X165886Y20026D01*
X166524Y19873D01*
X167171Y19822D01*
Y18000D01*
G37*
G36*
X169000Y197500D02*Y45745D01*
X168787Y45694D01*
X168453Y45556D01*
X168144Y45366D01*
X167869Y45131D01*
X167634Y44856D01*
X167444Y44547D01*
X167306Y44213D01*
X167221Y43861D01*
X167193Y43500D01*
X167221Y43139D01*
X167250Y43020D01*
Y32588D01*
X167243Y32500D01*
X167271Y32147D01*
Y32147D01*
X167354Y31803D01*
X167479Y31500D01*
X136457D01*
Y97181D01*
X136465Y97180D01*
X137241Y97242D01*
X137999Y97423D01*
X138719Y97722D01*
X139383Y98129D01*
X139976Y98635D01*
X140482Y99227D01*
X140889Y99891D01*
X141187Y100611D01*
X141369Y101369D01*
X141415Y102146D01*
X141369Y102922D01*
X141187Y103680D01*
X140889Y104400D01*
X140482Y105064D01*
X139976Y105657D01*
X139383Y106163D01*
X138719Y106570D01*
X137999Y106868D01*
X137241Y107050D01*
X136465Y107111D01*
X136457Y107110D01*
Y196345D01*
X136564Y196436D01*
X136602Y196481D01*
X137621Y197500D01*
X169000D01*
G37*
G36*
X136457Y31500D02*X107000D01*
Y99411D01*
X107117Y99440D01*
X107830Y99735D01*
X108487Y100138D01*
X109074Y100639D01*
X109575Y101225D01*
X109978Y101883D01*
X110273Y102595D01*
X110453Y103345D01*
X110498Y104114D01*
X110453Y104883D01*
X110273Y105633D01*
X109978Y106346D01*
X109575Y107003D01*
X109074Y107590D01*
X108487Y108091D01*
X107830Y108494D01*
X107117Y108789D01*
X106367Y108969D01*
X105598Y109029D01*
X104830Y108969D01*
X104080Y108789D01*
X103367Y108494D01*
X102709Y108091D01*
X102123Y107590D01*
X101622Y107003D01*
X101219Y106346D01*
X100924Y105633D01*
X100744Y104883D01*
X100683Y104114D01*
X100744Y103345D01*
X100892Y102730D01*
X100419Y103203D01*
X100453Y103345D01*
X100498Y104114D01*
X100453Y104883D01*
X100273Y105633D01*
X99978Y106346D01*
X99575Y107003D01*
X99074Y107590D01*
X98487Y108091D01*
X97830Y108494D01*
X97117Y108789D01*
X96367Y108969D01*
X95598Y109029D01*
X94830Y108969D01*
X94080Y108789D01*
X93367Y108494D01*
X92709Y108091D01*
X92123Y107590D01*
X91622Y107003D01*
X91219Y106346D01*
X90924Y105633D01*
X90744Y104883D01*
X90683Y104114D01*
X90744Y103345D01*
X90924Y102595D01*
X91219Y101883D01*
X91622Y101225D01*
X92123Y100639D01*
X92709Y100138D01*
X93367Y99735D01*
X94080Y99440D01*
X94830Y99260D01*
X95598Y99199D01*
X96367Y99260D01*
X97117Y99440D01*
X97830Y99735D01*
X98487Y100138D01*
X98894Y100485D01*
X101500Y97879D01*
Y31500D01*
X85591D01*
Y99200D01*
X85598Y99199D01*
X86367Y99260D01*
X87117Y99440D01*
X87830Y99735D01*
X88487Y100138D01*
X89074Y100639D01*
X89575Y101225D01*
X89978Y101883D01*
X90273Y102595D01*
X90453Y103345D01*
X90498Y104114D01*
X90453Y104883D01*
X90273Y105633D01*
X89978Y106346D01*
X89575Y107003D01*
X89074Y107590D01*
X88487Y108091D01*
X87830Y108494D01*
X87117Y108789D01*
X86367Y108969D01*
X85598Y109029D01*
X85591Y109029D01*
Y196500D01*
X125379D01*
X120981Y192102D01*
X120936Y192064D01*
X120783Y191884D01*
X120659Y191683D01*
X120569Y191465D01*
X120514Y191235D01*
X120514Y191235D01*
X120495Y191000D01*
X120500Y190941D01*
Y183744D01*
X120369Y183631D01*
X120134Y183356D01*
X119944Y183047D01*
X119806Y182713D01*
X119721Y182361D01*
X119693Y182000D01*
X119721Y181639D01*
X119806Y181287D01*
X119944Y180953D01*
X120134Y180644D01*
X120369Y180369D01*
X120644Y180134D01*
X120953Y179944D01*
X121287Y179806D01*
X121639Y179721D01*
X122000Y179693D01*
X122361Y179721D01*
X122713Y179806D01*
X123047Y179944D01*
X123356Y180134D01*
X123631Y180369D01*
X123866Y180644D01*
X124056Y180953D01*
X124194Y181287D01*
X124279Y181639D01*
X124300Y182000D01*
X124279Y182361D01*
X124194Y182713D01*
X124056Y183047D01*
X123866Y183356D01*
X123631Y183631D01*
X123500Y183744D01*
Y190379D01*
X129121Y196000D01*
X135441D01*
X135500Y195995D01*
X135735Y196014D01*
X135735Y196014D01*
X135965Y196069D01*
X136183Y196159D01*
X136384Y196283D01*
X136457Y196345D01*
Y107110D01*
X135688Y107050D01*
X134930Y106868D01*
X134210Y106570D01*
X133546Y106163D01*
X132954Y105657D01*
X132448Y105064D01*
X132040Y104400D01*
X131742Y103680D01*
X131560Y102922D01*
X131499Y102146D01*
X131560Y101369D01*
X131742Y100611D01*
X132040Y99891D01*
X132448Y99227D01*
X132954Y98635D01*
X133546Y98129D01*
X134210Y97722D01*
X134930Y97423D01*
X135688Y97242D01*
X136457Y97181D01*
Y31500D01*
G37*
G36*
X85591D02*X79748D01*
Y101462D01*
X79866Y101471D01*
X79981Y101499D01*
X80090Y101544D01*
X80191Y101606D01*
X80280Y101682D01*
X80357Y101772D01*
X80419Y101873D01*
X80464Y101982D01*
X80491Y102096D01*
X80498Y102214D01*
Y106014D01*
X80491Y106132D01*
X80464Y106247D01*
X80419Y106356D01*
X80357Y106456D01*
X80280Y106546D01*
X80191Y106623D01*
X80090Y106684D01*
X79981Y106730D01*
X79866Y106757D01*
X79748Y106766D01*
Y196500D01*
X85591D01*
Y109029D01*
X84830Y108969D01*
X84080Y108789D01*
X83367Y108494D01*
X82709Y108091D01*
X82123Y107590D01*
X81622Y107003D01*
X81219Y106346D01*
X80924Y105633D01*
X80744Y104883D01*
X80683Y104114D01*
X80744Y103345D01*
X80924Y102595D01*
X81219Y101883D01*
X81622Y101225D01*
X82123Y100639D01*
X82709Y100138D01*
X83367Y99735D01*
X84080Y99440D01*
X84830Y99260D01*
X85591Y99200D01*
Y31500D01*
G37*
G36*
X79748D02*X75598D01*
Y99214D01*
X77498D01*
X77616Y99221D01*
X77731Y99249D01*
X77840Y99294D01*
X77941Y99356D01*
X78030Y99432D01*
X78107Y99522D01*
X78169Y99623D01*
X78214Y99732D01*
X78241Y99846D01*
X78251Y99964D01*
X78241Y100082D01*
X78214Y100197D01*
X78169Y100306D01*
X78107Y100406D01*
X78030Y100496D01*
X77941Y100573D01*
X77840Y100634D01*
X77731Y100680D01*
X77616Y100707D01*
X77498Y100714D01*
X75598D01*
Y107514D01*
X77498D01*
X77616Y107521D01*
X77731Y107549D01*
X77840Y107594D01*
X77941Y107656D01*
X78030Y107732D01*
X78107Y107822D01*
X78169Y107923D01*
X78214Y108032D01*
X78241Y108146D01*
X78251Y108264D01*
X78241Y108382D01*
X78214Y108497D01*
X78169Y108606D01*
X78107Y108706D01*
X78030Y108796D01*
X77941Y108873D01*
X77840Y108934D01*
X77731Y108980D01*
X77616Y109007D01*
X77498Y109014D01*
X75598D01*
Y196500D01*
X79748D01*
Y106766D01*
X79631Y106757D01*
X79516Y106730D01*
X79407Y106684D01*
X79306Y106623D01*
X79216Y106546D01*
X79140Y106456D01*
X79078Y106356D01*
X79033Y106247D01*
X79005Y106132D01*
X78998Y106014D01*
Y102214D01*
X79005Y102096D01*
X79033Y101982D01*
X79078Y101873D01*
X79140Y101772D01*
X79216Y101682D01*
X79306Y101606D01*
X79407Y101544D01*
X79516Y101499D01*
X79631Y101471D01*
X79748Y101462D01*
Y31500D01*
G37*
G36*
X75598D02*X71448D01*
Y101462D01*
X71566Y101471D01*
X71681Y101499D01*
X71790Y101544D01*
X71891Y101606D01*
X71980Y101682D01*
X72057Y101772D01*
X72119Y101873D01*
X72164Y101982D01*
X72191Y102096D01*
X72198Y102214D01*
Y106014D01*
X72191Y106132D01*
X72164Y106247D01*
X72119Y106356D01*
X72057Y106456D01*
X71980Y106546D01*
X71891Y106623D01*
X71790Y106684D01*
X71681Y106730D01*
X71566Y106757D01*
X71448Y106766D01*
Y196500D01*
X75598D01*
Y109014D01*
X73698D01*
X73581Y109007D01*
X73466Y108980D01*
X73357Y108934D01*
X73256Y108873D01*
X73166Y108796D01*
X73090Y108706D01*
X73028Y108606D01*
X72983Y108497D01*
X72955Y108382D01*
X72946Y108264D01*
X72955Y108146D01*
X72983Y108032D01*
X73028Y107923D01*
X73090Y107822D01*
X73166Y107732D01*
X73256Y107656D01*
X73357Y107594D01*
X73466Y107549D01*
X73581Y107521D01*
X73698Y107514D01*
X75598D01*
Y100714D01*
X73698D01*
X73581Y100707D01*
X73466Y100680D01*
X73357Y100634D01*
X73256Y100573D01*
X73166Y100496D01*
X73090Y100406D01*
X73028Y100306D01*
X72983Y100197D01*
X72955Y100082D01*
X72946Y99964D01*
X72955Y99846D01*
X72983Y99732D01*
X73028Y99623D01*
X73090Y99522D01*
X73166Y99432D01*
X73256Y99356D01*
X73357Y99294D01*
X73466Y99249D01*
X73581Y99221D01*
X73698Y99214D01*
X75598D01*
Y31500D01*
G37*
G36*
X44725Y198000D02*X47756D01*
X47869Y197869D01*
X48144Y197634D01*
X48362Y197500D01*
X48144Y197366D01*
X47869Y197131D01*
X47634Y196856D01*
X47444Y196547D01*
X47306Y196213D01*
X47221Y195861D01*
X47193Y195500D01*
X47221Y195139D01*
X47306Y194787D01*
X47444Y194453D01*
X47634Y194144D01*
X47869Y193869D01*
X48144Y193634D01*
X48453Y193444D01*
X48787Y193306D01*
X49139Y193221D01*
X49500Y193193D01*
X49861Y193221D01*
X50213Y193306D01*
X50547Y193444D01*
X50856Y193634D01*
X51131Y193869D01*
X51244Y194000D01*
X52879D01*
X44725Y185846D01*
Y198000D01*
G37*
G36*
X71448Y31500D02*X44725D01*
Y97181D01*
X44732Y97180D01*
X45509Y97242D01*
X46267Y97423D01*
X46986Y97722D01*
X47651Y98129D01*
X48243Y98635D01*
X48749Y99227D01*
X49156Y99891D01*
X49455Y100611D01*
X49636Y101369D01*
X49682Y102146D01*
X49636Y102922D01*
X49455Y103680D01*
X49156Y104400D01*
X48749Y105064D01*
X48243Y105657D01*
X47651Y106163D01*
X46986Y106570D01*
X46267Y106868D01*
X45509Y107050D01*
X44732Y107111D01*
X44725Y107110D01*
Y156216D01*
X44817Y156159D01*
X45035Y156069D01*
X45265Y156014D01*
X45500Y155995D01*
X45735Y156014D01*
X45965Y156069D01*
X46183Y156159D01*
X46384Y156283D01*
X46564Y156436D01*
X46717Y156616D01*
X46841Y156817D01*
X46931Y157035D01*
X46986Y157265D01*
X47000Y157500D01*
Y171756D01*
X47131Y171869D01*
X47366Y172144D01*
X47556Y172453D01*
X47694Y172787D01*
X47779Y173139D01*
X47800Y173500D01*
X47779Y173861D01*
X47694Y174213D01*
X47556Y174547D01*
X47366Y174856D01*
X47131Y175131D01*
X47000Y175244D01*
Y183879D01*
X59621Y196500D01*
X71448D01*
Y106766D01*
X71331Y106757D01*
X71216Y106730D01*
X71107Y106684D01*
X71006Y106623D01*
X70916Y106546D01*
X70840Y106456D01*
X70778Y106356D01*
X70733Y106247D01*
X70705Y106132D01*
X70698Y106014D01*
Y102214D01*
X70705Y102096D01*
X70733Y101982D01*
X70778Y101873D01*
X70840Y101772D01*
X70916Y101682D01*
X71006Y101606D01*
X71107Y101544D01*
X71216Y101499D01*
X71331Y101471D01*
X71448Y101462D01*
Y31500D01*
G37*
G36*
X44725D02*X36491D01*
Y123808D01*
X36500Y123807D01*
X37391Y123878D01*
X38259Y124086D01*
X39084Y124428D01*
X39846Y124895D01*
X40525Y125475D01*
X41105Y126154D01*
X41572Y126916D01*
X41914Y127741D01*
X42122Y128609D01*
X42175Y129500D01*
X42122Y130391D01*
X41914Y131259D01*
X41572Y132084D01*
X41105Y132846D01*
X40525Y133525D01*
X39846Y134105D01*
X39084Y134572D01*
X38259Y134914D01*
X37391Y135122D01*
X36500Y135193D01*
X36491Y135192D01*
Y136308D01*
X36500Y136307D01*
X37391Y136378D01*
X38259Y136586D01*
X39084Y136928D01*
X39846Y137395D01*
X40525Y137975D01*
X41105Y138654D01*
X41572Y139416D01*
X41914Y140241D01*
X42122Y141109D01*
X42175Y142000D01*
X42122Y142891D01*
X41914Y143759D01*
X41572Y144584D01*
X41105Y145346D01*
X40525Y146025D01*
X39846Y146605D01*
X39084Y147072D01*
X38259Y147414D01*
X37391Y147622D01*
X36500Y147693D01*
X36491Y147692D01*
Y198000D01*
X44725D01*
Y185846D01*
X44481Y185602D01*
X44436Y185564D01*
X44283Y185384D01*
X44159Y185183D01*
X44069Y184965D01*
X44014Y184735D01*
X44014Y184735D01*
X43995Y184500D01*
X44000Y184441D01*
Y175244D01*
X43869Y175131D01*
X43634Y174856D01*
X43444Y174547D01*
X43306Y174213D01*
X43221Y173861D01*
X43193Y173500D01*
X43221Y173139D01*
X43306Y172787D01*
X43444Y172453D01*
X43634Y172144D01*
X43869Y171869D01*
X44000Y171756D01*
Y157500D01*
X44014Y157265D01*
X44069Y157035D01*
X44159Y156817D01*
X44283Y156616D01*
X44436Y156436D01*
X44616Y156283D01*
X44725Y156216D01*
Y107110D01*
X43956Y107050D01*
X43198Y106868D01*
X42478Y106570D01*
X41814Y106163D01*
X41221Y105657D01*
X40715Y105064D01*
X40308Y104400D01*
X40010Y103680D01*
X39828Y102922D01*
X39767Y102146D01*
X39828Y101369D01*
X40010Y100611D01*
X40308Y99891D01*
X40715Y99227D01*
X41221Y98635D01*
X41814Y98129D01*
X42478Y97722D01*
X43198Y97423D01*
X43956Y97242D01*
X44725Y97181D01*
Y31500D01*
G37*
G36*
X36491D02*X30046D01*
Y119077D01*
X30500Y119041D01*
X30963Y119077D01*
X31414Y119186D01*
X31843Y119363D01*
X32239Y119606D01*
X32592Y119908D01*
X32894Y120261D01*
X33137Y120657D01*
X33314Y121086D01*
X33423Y121537D01*
X33450Y122000D01*
X33423Y122463D01*
X33314Y122914D01*
X33137Y123343D01*
X32894Y123739D01*
X32592Y124092D01*
X32239Y124394D01*
X31843Y124637D01*
X31414Y124814D01*
X30963Y124923D01*
X30500Y124959D01*
X30046Y124923D01*
Y165797D01*
X30100Y165793D01*
X30461Y165821D01*
X30813Y165906D01*
X31147Y166044D01*
X31456Y166234D01*
X31731Y166469D01*
X31966Y166744D01*
X32156Y167053D01*
X32294Y167387D01*
X32379Y167739D01*
X32400Y168100D01*
X32379Y168461D01*
X32294Y168813D01*
X32156Y169147D01*
X31966Y169456D01*
X31731Y169731D01*
X31500Y169929D01*
Y176256D01*
X31631Y176369D01*
X31866Y176644D01*
X32056Y176953D01*
X32194Y177287D01*
X32279Y177639D01*
X32300Y178000D01*
X32279Y178361D01*
X32194Y178713D01*
X32056Y179047D01*
X31866Y179356D01*
X31631Y179631D01*
X31356Y179866D01*
X31047Y180056D01*
X30713Y180194D01*
X30361Y180279D01*
X30046Y180303D01*
Y198000D01*
X36491D01*
Y147692D01*
X35609Y147622D01*
X34741Y147414D01*
X33916Y147072D01*
X33154Y146605D01*
X32475Y146025D01*
X31895Y145346D01*
X31428Y144584D01*
X31086Y143759D01*
X30878Y142891D01*
X30807Y142000D01*
X30878Y141109D01*
X31086Y140241D01*
X31428Y139416D01*
X31895Y138654D01*
X32475Y137975D01*
X33154Y137395D01*
X33916Y136928D01*
X34741Y136586D01*
X35609Y136378D01*
X36491Y136308D01*
Y135192D01*
X35609Y135122D01*
X34741Y134914D01*
X33916Y134572D01*
X33154Y134105D01*
X32475Y133525D01*
X31895Y132846D01*
X31428Y132084D01*
X31086Y131259D01*
X30878Y130391D01*
X30807Y129500D01*
X30878Y128609D01*
X31086Y127741D01*
X31428Y126916D01*
X31895Y126154D01*
X32475Y125475D01*
X33154Y124895D01*
X33916Y124428D01*
X34741Y124086D01*
X35609Y123878D01*
X36491Y123808D01*
Y31500D01*
G37*
G36*
X30046D02*X26495D01*
Y139041D01*
X26500Y139041D01*
X26963Y139077D01*
X27414Y139186D01*
X27843Y139363D01*
X28239Y139606D01*
X28592Y139908D01*
X28894Y140261D01*
X29137Y140657D01*
X29314Y141086D01*
X29423Y141537D01*
X29450Y142000D01*
X29423Y142463D01*
X29314Y142914D01*
X29137Y143343D01*
X28894Y143739D01*
X28592Y144092D01*
X28239Y144394D01*
X27843Y144637D01*
X27414Y144814D01*
X26963Y144923D01*
X26500Y144959D01*
X26495Y144959D01*
Y198000D01*
X30046D01*
Y180303D01*
X30000Y180307D01*
X29639Y180279D01*
X29287Y180194D01*
X28953Y180056D01*
X28644Y179866D01*
X28369Y179631D01*
X28134Y179356D01*
X27944Y179047D01*
X27806Y178713D01*
X27721Y178361D01*
X27693Y178000D01*
X27721Y177639D01*
X27806Y177287D01*
X27944Y176953D01*
X28134Y176644D01*
X28369Y176369D01*
X28500Y176256D01*
Y169758D01*
X28469Y169731D01*
X28234Y169456D01*
X28044Y169147D01*
X27906Y168813D01*
X27821Y168461D01*
X27793Y168100D01*
X27821Y167739D01*
X27906Y167387D01*
X28044Y167053D01*
X28234Y166744D01*
X28469Y166469D01*
X28744Y166234D01*
X29053Y166044D01*
X29387Y165906D01*
X29739Y165821D01*
X30046Y165797D01*
Y124923D01*
X30037Y124923D01*
X29586Y124814D01*
X29157Y124637D01*
X28761Y124394D01*
X28408Y124092D01*
X28106Y123739D01*
X27863Y123343D01*
X27686Y122914D01*
X27577Y122463D01*
X27541Y122000D01*
X27577Y121537D01*
X27686Y121086D01*
X27863Y120657D01*
X28106Y120261D01*
X28408Y119908D01*
X28761Y119606D01*
X29157Y119363D01*
X29586Y119186D01*
X30037Y119077D01*
X30046Y119077D01*
Y31500D01*
G37*
G36*
X26495D02*X22978D01*
X22495Y31700D01*
Y119041D01*
X22500Y119041D01*
X22963Y119077D01*
X23414Y119186D01*
X23843Y119363D01*
X24239Y119606D01*
X24592Y119908D01*
X24894Y120261D01*
X25137Y120657D01*
X25314Y121086D01*
X25423Y121537D01*
X25450Y122000D01*
X25423Y122463D01*
X25314Y122914D01*
X25137Y123343D01*
X24894Y123739D01*
X24592Y124092D01*
X24239Y124394D01*
X23843Y124637D01*
X23414Y124814D01*
X22963Y124923D01*
X22500Y124959D01*
X22495Y124959D01*
Y198000D01*
X26495D01*
Y144959D01*
X26037Y144923D01*
X25586Y144814D01*
X25157Y144637D01*
X24761Y144394D01*
X24408Y144092D01*
X24106Y143739D01*
X23863Y143343D01*
X23686Y142914D01*
X23577Y142463D01*
X23541Y142000D01*
X23577Y141537D01*
X23686Y141086D01*
X23863Y140657D01*
X24106Y140261D01*
X24408Y139908D01*
X24761Y139606D01*
X25157Y139363D01*
X25586Y139186D01*
X26037Y139077D01*
X26495Y139041D01*
Y31500D01*
G37*
G36*
X22495Y31700D02*X21862Y31962D01*
X19461Y32539D01*
X17000Y32732D01*
X16491Y32692D01*
Y123808D01*
X16500Y123807D01*
X17391Y123878D01*
X18259Y124086D01*
X19084Y124428D01*
X19846Y124895D01*
X20525Y125475D01*
X21105Y126154D01*
X21572Y126916D01*
X21914Y127741D01*
X22122Y128609D01*
X22175Y129500D01*
X22122Y130391D01*
X21914Y131259D01*
X21572Y132084D01*
X21105Y132846D01*
X20525Y133525D01*
X19846Y134105D01*
X19084Y134572D01*
X18259Y134914D01*
X17391Y135122D01*
X16500Y135193D01*
X16491Y135192D01*
Y136308D01*
X16500Y136307D01*
X17391Y136378D01*
X18259Y136586D01*
X19084Y136928D01*
X19846Y137395D01*
X20525Y137975D01*
X21105Y138654D01*
X21572Y139416D01*
X21914Y140241D01*
X22122Y141109D01*
X22175Y142000D01*
X22122Y142891D01*
X21914Y143759D01*
X21572Y144584D01*
X21105Y145346D01*
X20525Y146025D01*
X19846Y146605D01*
X19084Y147072D01*
X18259Y147414D01*
X17391Y147622D01*
X16500Y147693D01*
X16491Y147692D01*
Y197308D01*
X17000Y197268D01*
X19461Y197461D01*
X21705Y198000D01*
X22495D01*
Y124959D01*
X22037Y124923D01*
X21586Y124814D01*
X21157Y124637D01*
X20761Y124394D01*
X20408Y124092D01*
X20106Y123739D01*
X19863Y123343D01*
X19686Y122914D01*
X19577Y122463D01*
X19541Y122000D01*
X19577Y121537D01*
X19686Y121086D01*
X19863Y120657D01*
X20106Y120261D01*
X20408Y119908D01*
X20761Y119606D01*
X21157Y119363D01*
X21586Y119186D01*
X22037Y119077D01*
X22495Y119041D01*
Y31700D01*
G37*
G36*
X16491Y32692D02*X14539Y32539D01*
X12138Y31962D01*
X11022Y31500D01*
X2000D01*
Y198000D01*
X12295D01*
X14539Y197461D01*
X16491Y197308D01*
Y147692D01*
X15609Y147622D01*
X14741Y147414D01*
X13916Y147072D01*
X13154Y146605D01*
X12475Y146025D01*
X11895Y145346D01*
X11428Y144584D01*
X11086Y143759D01*
X10878Y142891D01*
X10807Y142000D01*
X10878Y141109D01*
X11086Y140241D01*
X11428Y139416D01*
X11895Y138654D01*
X12475Y137975D01*
X13154Y137395D01*
X13916Y136928D01*
X14741Y136586D01*
X15609Y136378D01*
X16491Y136308D01*
Y135192D01*
X15609Y135122D01*
X14741Y134914D01*
X13916Y134572D01*
X13154Y134105D01*
X12475Y133525D01*
X11895Y132846D01*
X11428Y132084D01*
X11086Y131259D01*
X10878Y130391D01*
X10807Y129500D01*
X10878Y128609D01*
X11086Y127741D01*
X11428Y126916D01*
X11895Y126154D01*
X12475Y125475D01*
X13154Y124895D01*
X13916Y124428D01*
X14741Y124086D01*
X15609Y123878D01*
X16491Y123808D01*
Y32692D01*
G37*
G36*
X167171Y36000D02*X167250D01*
Y32588D01*
X167243Y32500D01*
X167271Y32147D01*
Y32147D01*
X167354Y31803D01*
X167489Y31475D01*
X167559Y31361D01*
X167674Y31173D01*
X167674Y31173D01*
X167904Y30904D01*
X167971Y30847D01*
X172750Y26068D01*
Y14588D01*
X172743Y14500D01*
X172771Y14147D01*
Y14147D01*
X172854Y13803D01*
X172989Y13475D01*
X173059Y13361D01*
X173174Y13173D01*
X173174Y13173D01*
X173404Y12904D01*
X173471Y12847D01*
X175318Y11000D01*
X167171D01*
Y19822D01*
X167177Y19822D01*
X167831Y19873D01*
X168468Y20026D01*
X169074Y20277D01*
X169633Y20620D01*
X170132Y21046D01*
X170557Y21544D01*
X170900Y22103D01*
X171151Y22709D01*
X171304Y23346D01*
X171343Y24000D01*
X171304Y24654D01*
X171151Y25291D01*
X170900Y25897D01*
X170557Y26456D01*
X170132Y26954D01*
X169633Y27380D01*
X169074Y27723D01*
X168468Y27974D01*
X167831Y28127D01*
X167177Y28178D01*
X167171Y28178D01*
Y36000D01*
G37*
G36*
X143000D02*X167171D01*
Y28178D01*
X166524Y28127D01*
X165886Y27974D01*
X165280Y27723D01*
X164721Y27380D01*
X164223Y26954D01*
X163797Y26456D01*
X163454Y25897D01*
X163203Y25291D01*
X163050Y24654D01*
X162999Y24000D01*
X163050Y23346D01*
X163203Y22709D01*
X163454Y22103D01*
X163797Y21544D01*
X164223Y21046D01*
X164721Y20620D01*
X165280Y20277D01*
X165886Y20026D01*
X166524Y19873D01*
X167171Y19822D01*
Y11000D01*
X147121D01*
X143000Y15121D01*
Y36000D01*
G37*
G54D32*X55500Y203000D02*X145000D01*
X49500Y205000D02*X145000D01*
X58000Y200500D02*X122000D01*
X59000Y198000D02*X125500D01*
X124000Y200500D02*X121000D01*
X49500Y195500D02*X53000D01*
X58000Y200500D01*
X45500Y184500D02*X59000Y198000D01*
X52000Y199500D02*X55500Y203000D01*
X49500Y199500D02*X52000D01*
X45500Y157500D02*Y184500D01*
X30000Y178000D02*Y168200D01*
X30100Y168100D01*
X135500Y200500D02*X136000Y201000D01*
X145000D01*
X137000Y199000D02*X135500Y197500D01*
X132500D01*
Y23500D02*X109000D01*
X105500Y27000D01*
Y104500D01*
X95500Y104000D02*X97500D01*
X103000Y98500D01*
Y26000D01*
X284500Y9500D02*X146500D01*
X132500Y23500D01*
G54D33*X175000Y14500D02*X177000Y12500D01*
X281000D01*
X283000Y14500D01*
X295500D01*
G54D32*X103000Y26000D02*X108000Y21000D01*
X132000D01*
X146500Y6500D01*
G54D33*X169500Y43500D02*Y32500D01*
X175000Y27000D01*
Y14500D01*
G54D32*X146500Y6500D02*X287500D01*
X222000Y187500D02*X227500Y193000D01*
X190000Y199000D02*X192500Y196500D01*
X191000Y201000D02*X194500Y197500D01*
X191500Y203000D02*X196500Y198000D01*
X192000Y205000D02*X198500Y198500D01*
X227500Y193000D02*Y203000D01*
X224500Y206000D01*
X204000D01*
X125500Y198000D02*X128000Y200500D01*
X122000Y182000D02*Y191000D01*
X128500Y197500D01*
X133500D01*
X128000Y200500D02*X135500D01*
X137000Y199000D02*X190000D01*
X144000Y201000D02*X191000D01*
X144500Y203000D02*X191500D01*
X143500Y205000D02*X192000D01*
X194500Y168000D02*X195500Y167000D01*
Y164500D01*
Y165000D02*Y163000D01*
X199500Y169000D02*Y157000D01*
X192500Y196500D02*Y165500D01*
X194500Y197500D02*Y168000D01*
X196500Y198000D02*Y169000D01*
X198500Y198500D02*Y170000D01*
X196500Y169000D02*X197500Y168000D01*
X198500Y170000D02*X199500Y169000D01*
X197500Y168000D02*Y160000D01*
X195500Y163000D02*X192500Y160000D01*
X197500D02*X192500Y155000D01*
X199500Y157000D02*X192500Y150000D01*
G54D31*G36*
X72198Y107514D02*Y100714D01*
X78998D01*
Y107514D01*
X72198D01*
G37*
G54D34*X85598Y104114D03*
X95598D03*
X105598D03*
G54D35*X167177Y24000D03*
X184500D03*
G54D36*X318000Y17000D03*
Y213000D03*
X17000D03*
Y17000D03*
G54D37*X246000Y175000D03*
Y171500D03*
Y167500D03*
Y164000D03*
X230500Y47500D03*
X266000Y175000D03*
Y171500D03*
X321500Y102500D03*
X290500Y47500D03*
X284500Y9500D03*
X287500Y6500D03*
X295500Y14500D03*
X291500D03*
X306000Y200000D03*
X302000D03*
X262000Y179500D03*
X258500D03*
X254000D03*
X202500Y178500D03*
X250500Y179500D03*
Y159500D03*
X254000D03*
X266000Y167500D03*
Y164000D03*
X258500Y159500D03*
X262000D03*
X192500Y165500D03*
Y160000D03*
Y155000D03*
Y150000D03*
X26500Y117400D03*
X112500Y160500D03*
X159000Y145500D03*
X38000Y151500D03*
X49000Y160500D03*
X21000Y193500D03*
X17000D03*
X45500Y173500D03*
X49000Y170500D03*
X149500Y190000D03*
X30100Y168100D03*
X30000Y178000D03*
X25000Y193500D03*
X49500Y205000D03*
Y199500D03*
Y195500D03*
X221500Y200000D03*
X209000D03*
X222000Y187500D03*
X115500Y191000D03*
X132500Y200500D03*
X115500Y194500D03*
X122000Y182000D03*
X124000Y200500D03*
X204000Y206000D03*
X182000Y41500D03*
X186000D03*
X190000D03*
X162500Y43500D03*
Y54500D03*
X166000Y61000D03*
X194500Y69500D03*
X161064Y100493D03*
X173064D03*
X166000Y64500D03*
X170000Y61000D03*
Y64500D03*
X169500Y43500D03*
G54D38*G54D39*G54D40*G54D41*G54D39*G54D42*G54D43*G54D40*G54D44*G54D43*M02*
