G04 start of page 7 for group -4063 idx -4063 *
G04 Title: (unknown), componentmask *
G04 Creator: pcb 4.0.2 *
G04 CreationDate: Sun Oct 16 04:01:38 2022 UTC *
G04 For: ndholmes *
G04 Format: Gerber/RS-274X *
G04 PCB-Dimensions (mil): 3350.00 2300.00 *
G04 PCB-Coordinate-Origin: lower left *
%MOIN*%
%FSLAX25Y25*%
%LNTOPMASK*%
%ADD61C,0.0370*%
%ADD60C,0.0490*%
%ADD59C,0.1025*%
%ADD58C,0.2997*%
%ADD57C,0.0693*%
%ADD56C,0.0750*%
%ADD55C,0.0001*%
%ADD54C,0.1035*%
%ADD53C,0.0299*%
G54D53*X44732Y8445D03*
G54D54*X36500Y142000D03*
Y129500D03*
G54D55*G36*
X71848Y107864D02*Y100364D01*
X79348D01*
Y107864D01*
X71848D01*
G37*
G54D56*X85598Y104114D03*
X95598D03*
X105598D03*
G54D53*X44732Y102146D03*
X136465D03*
Y8445D03*
G54D57*X167177Y24000D03*
X184500D03*
G54D58*X318000Y17000D03*
Y213000D03*
X17000D03*
G54D59*X16500Y129500D03*
G54D54*Y142000D03*
G54D60*X26500D03*
X30500Y122000D03*
X22500D03*
G54D58*X17000Y17000D03*
G54D55*G36*
X191248Y84402D02*Y78684D01*
X197752D01*
Y84402D01*
X191248D01*
G37*
G36*
Y77316D02*Y71598D01*
X197752D01*
Y77316D01*
X191248D01*
G37*
G36*
X228000Y52650D02*X223000D01*
Y42450D01*
X228000D01*
Y52650D01*
G37*
G36*
Y86550D02*X223000D01*
Y76350D01*
X228000D01*
Y86550D01*
G37*
G36*
X238000Y52650D02*X233000D01*
Y42450D01*
X238000D01*
Y52650D01*
G37*
G36*
Y86550D02*X233000D01*
Y76350D01*
X238000D01*
Y86550D01*
G37*
G36*
X248000Y52650D02*X243000D01*
Y42450D01*
X248000D01*
Y52650D01*
G37*
G36*
Y86550D02*X243000D01*
Y76350D01*
X248000D01*
Y86550D01*
G37*
G36*
X258000Y52650D02*X253000D01*
Y42450D01*
X258000D01*
Y52650D01*
G37*
G36*
Y86550D02*X253000D01*
Y76350D01*
X258000D01*
Y86550D01*
G37*
G36*
X268000D02*X263000D01*
Y76350D01*
X268000D01*
Y86550D01*
G37*
G36*
X278000D02*X273000D01*
Y76350D01*
X278000D01*
Y86550D01*
G37*
G36*
X288000D02*X283000D01*
Y76350D01*
X288000D01*
Y86550D01*
G37*
G36*
X298000D02*X293000D01*
Y76350D01*
X298000D01*
Y86550D01*
G37*
G36*
X268000Y52650D02*X263000D01*
Y42450D01*
X268000D01*
Y52650D01*
G37*
G36*
X278000D02*X273000D01*
Y42450D01*
X278000D01*
Y52650D01*
G37*
G36*
X288000D02*X283000D01*
Y42450D01*
X288000D01*
Y52650D01*
G37*
G36*
X298000D02*X293000D01*
Y42450D01*
X298000D01*
Y52650D01*
G37*
G36*
X172402Y52252D02*X166684D01*
Y45748D01*
X172402D01*
Y52252D01*
G37*
G36*
X165316D02*X159598D01*
Y45748D01*
X165316D01*
Y52252D01*
G37*
G36*
X177123Y38080D02*X174554D01*
Y31180D01*
X177123D01*
Y38080D01*
G37*
G36*
Y37095D02*X174554D01*
Y32361D01*
X177123D01*
Y37095D01*
G37*
G36*
X170824Y38080D02*X168255D01*
Y31180D01*
X170824D01*
Y38080D01*
G37*
G36*
Y37095D02*X168255D01*
Y32361D01*
X170824D01*
Y37095D01*
G37*
G36*
X173973Y38080D02*X171405D01*
Y31180D01*
X173973D01*
Y38080D01*
G37*
G36*
Y37095D02*X171405D01*
Y32361D01*
X173973D01*
Y37095D01*
G37*
G36*
X162162Y38080D02*X155263D01*
Y29606D01*
X162162D01*
Y38080D01*
G37*
G36*
X172500Y66300D02*Y60100D01*
X185300D01*
Y66300D01*
X172500D01*
G37*
G36*
Y75300D02*Y69100D01*
X185300D01*
Y75300D01*
X172500D01*
G37*
G36*
X160900Y83100D02*X148100D01*
Y61300D01*
X160900D01*
Y83100D01*
G37*
G36*
X172500Y84400D02*Y78200D01*
X185300D01*
Y84400D01*
X172500D01*
G37*
G36*
X180272Y38080D02*X177704D01*
Y31180D01*
X180272D01*
Y38080D01*
G37*
G36*
Y37095D02*X177704D01*
Y32361D01*
X180272D01*
Y37095D01*
G37*
G36*
X183422Y38080D02*X180854D01*
Y31180D01*
X183422D01*
Y38080D01*
G37*
G36*
Y37095D02*X180854D01*
Y32361D01*
X183422D01*
Y37095D01*
G37*
G36*
X162162Y16426D02*X155263D01*
Y7952D01*
X162162D01*
Y16426D01*
G37*
G36*
X196414D02*X189515D01*
Y7952D01*
X196414D01*
Y16426D01*
G37*
G36*
Y38080D02*X189515D01*
Y29606D01*
X196414D01*
Y38080D01*
G37*
G36*
X224298Y162083D02*Y157940D01*
X230804D01*
Y162083D01*
X224298D01*
G37*
G36*
Y157083D02*Y152940D01*
X230804D01*
Y157083D01*
X224298D01*
G37*
G36*
Y152083D02*Y147940D01*
X230804D01*
Y152083D01*
X224298D01*
G37*
G36*
Y147083D02*Y142940D01*
X230804D01*
Y147083D01*
X224298D01*
G37*
G36*
Y142083D02*Y137940D01*
X230804D01*
Y142083D01*
X224298D01*
G37*
G36*
Y137083D02*Y132940D01*
X230804D01*
Y137083D01*
X224298D01*
G37*
G36*
X236552Y133343D02*X232409D01*
Y126838D01*
X236552D01*
Y133343D01*
G37*
G36*
X241552D02*X237409D01*
Y126838D01*
X241552D01*
Y133343D01*
G37*
G36*
X246552D02*X242409D01*
Y126838D01*
X246552D01*
Y133343D01*
G37*
G36*
X254023Y177202D02*Y173058D01*
X258166D01*
Y177202D01*
X254023D01*
G37*
G36*
X248511D02*Y173058D01*
X252654D01*
Y177202D01*
X248511D01*
G37*
G36*
X254023Y171690D02*Y167546D01*
X258166D01*
Y171690D01*
X254023D01*
G37*
G36*
X248511D02*Y167546D01*
X252654D01*
Y171690D01*
X248511D01*
G37*
G36*
X254023Y166178D02*Y162035D01*
X258166D01*
Y166178D01*
X254023D01*
G37*
G36*
X248511D02*Y162035D01*
X252654D01*
Y166178D01*
X248511D01*
G37*
G36*
X259535Y177202D02*Y173058D01*
X263678D01*
Y177202D01*
X259535D01*
G37*
G36*
Y171690D02*Y167546D01*
X263678D01*
Y171690D01*
X259535D01*
G37*
G36*
Y166178D02*Y162035D01*
X263678D01*
Y166178D01*
X259535D01*
G37*
G36*
X224298Y187083D02*Y182940D01*
X230804D01*
Y187083D01*
X224298D01*
G37*
G36*
Y182083D02*Y177940D01*
X230804D01*
Y182083D01*
X224298D01*
G37*
G36*
Y177083D02*Y172940D01*
X230804D01*
Y177083D01*
X224298D01*
G37*
G36*
Y172083D02*Y167940D01*
X230804D01*
Y172083D01*
X224298D01*
G37*
G36*
Y202083D02*Y197940D01*
X230804D01*
Y202083D01*
X224298D01*
G37*
G36*
Y197083D02*Y192940D01*
X230804D01*
Y197083D01*
X224298D01*
G37*
G36*
Y192083D02*Y187940D01*
X230804D01*
Y192083D01*
X224298D01*
G37*
G36*
Y167083D02*Y162940D01*
X230804D01*
Y167083D01*
X224298D01*
G37*
G36*
X216859Y176752D02*X211141D01*
Y170248D01*
X216859D01*
Y176752D01*
G37*
G36*
Y186252D02*X211141D01*
Y179748D01*
X216859D01*
Y186252D01*
G37*
G36*
X209773D02*X204055D01*
Y179748D01*
X209773D01*
Y186252D01*
G37*
G36*
X211748Y195316D02*Y189598D01*
X218252D01*
Y195316D01*
X211748D01*
G37*
G36*
Y202402D02*Y196684D01*
X218252D01*
Y202402D01*
X211748D01*
G37*
G36*
X170450Y176500D02*X164350D01*
Y167600D01*
X170450D01*
Y176500D01*
G37*
G36*
X152650D02*X146550D01*
Y167600D01*
X152650D01*
Y176500D01*
G37*
G36*
X139402Y155252D02*X133684D01*
Y148748D01*
X139402D01*
Y155252D01*
G37*
G36*
X161402D02*X155684D01*
Y148748D01*
X161402D01*
Y155252D01*
G37*
G36*
X154316D02*X148598D01*
Y148748D01*
X154316D01*
Y155252D01*
G37*
G36*
X251552Y133343D02*X247409D01*
Y126838D01*
X251552D01*
Y133343D01*
G37*
G36*
X256552D02*X252409D01*
Y126838D01*
X256552D01*
Y133343D01*
G37*
G36*
X261552D02*X257409D01*
Y126838D01*
X261552D01*
Y133343D01*
G37*
G36*
X266552D02*X262409D01*
Y126838D01*
X266552D01*
Y133343D01*
G37*
G36*
X271552D02*X267409D01*
Y126838D01*
X271552D01*
Y133343D01*
G37*
G36*
X276552D02*X272409D01*
Y126838D01*
X276552D01*
Y133343D01*
G37*
G36*
X281552D02*X277409D01*
Y126838D01*
X281552D01*
Y133343D01*
G37*
G36*
X286552D02*X282409D01*
Y126838D01*
X286552D01*
Y133343D01*
G37*
G36*
X291591D02*X287448D01*
Y126838D01*
X291591D01*
Y133343D01*
G37*
G36*
X293196Y202083D02*Y197940D01*
X299702D01*
Y202083D01*
X293196D01*
G37*
G36*
Y197083D02*Y192940D01*
X299702D01*
Y197083D01*
X293196D01*
G37*
G36*
Y192083D02*Y187940D01*
X299702D01*
Y192083D01*
X293196D01*
G37*
G36*
Y187083D02*Y182940D01*
X299702D01*
Y187083D01*
X293196D01*
G37*
G36*
Y182083D02*Y177940D01*
X299702D01*
Y182083D01*
X293196D01*
G37*
G36*
Y177083D02*Y172940D01*
X299702D01*
Y177083D01*
X293196D01*
G37*
G36*
Y172083D02*Y167940D01*
X299702D01*
Y172083D01*
X293196D01*
G37*
G36*
Y167083D02*Y162940D01*
X299702D01*
Y167083D01*
X293196D01*
G37*
G36*
Y162083D02*Y157940D01*
X299702D01*
Y162083D01*
X293196D01*
G37*
G36*
Y157083D02*Y152940D01*
X299702D01*
Y157083D01*
X293196D01*
G37*
G36*
Y152083D02*Y147940D01*
X299702D01*
Y152083D01*
X293196D01*
G37*
G36*
Y147083D02*Y142940D01*
X299702D01*
Y147083D01*
X293196D01*
G37*
G36*
Y142083D02*Y137940D01*
X299702D01*
Y142083D01*
X293196D01*
G37*
G36*
Y137083D02*Y132940D01*
X299702D01*
Y137083D01*
X293196D01*
G37*
G36*
X310576Y98607D02*X306432D01*
Y92102D01*
X310576D01*
Y98607D01*
G37*
G36*
X323568D02*X319424D01*
Y92102D01*
X323568D01*
Y98607D01*
G37*
G36*
X310576Y117898D02*X306432D01*
Y111393D01*
X310576D01*
Y117898D01*
G37*
G36*
X323568D02*X319424D01*
Y111393D01*
X323568D01*
Y117898D01*
G37*
G36*
X139902Y127252D02*X134184D01*
Y120748D01*
X139902D01*
Y127252D01*
G37*
G36*
X161902D02*X156184D01*
Y120748D01*
X161902D01*
Y127252D01*
G37*
G36*
X154816D02*X149098D01*
Y120748D01*
X154816D01*
Y127252D01*
G37*
G36*
X161402Y141252D02*X155684D01*
Y134748D01*
X161402D01*
Y141252D01*
G37*
G36*
X154316D02*X148598D01*
Y134748D01*
X154316D01*
Y141252D01*
G37*
G36*
X132816Y127252D02*X127098D01*
Y120748D01*
X132816D01*
Y127252D01*
G37*
G36*
X139902Y141252D02*X134184D01*
Y134748D01*
X139902D01*
Y141252D01*
G37*
G36*
X132816D02*X127098D01*
Y134748D01*
X132816D01*
Y141252D01*
G37*
G36*
X163812Y96309D02*Y90591D01*
X170316D01*
Y96309D01*
X163812D01*
G37*
G36*
Y103395D02*Y97677D01*
X170316D01*
Y103395D01*
X163812D01*
G37*
G36*
X209773Y176752D02*X204055D01*
Y170248D01*
X209773D01*
Y176752D01*
G37*
G36*
X25902Y181252D02*X20184D01*
Y174748D01*
X25902D01*
Y181252D01*
G37*
G36*
X18816D02*X13098D01*
Y174748D01*
X18816D01*
Y181252D01*
G37*
G36*
X51550Y177226D02*Y173326D01*
X57852D01*
Y177226D01*
X51550D01*
G37*
G36*
X103148D02*Y173326D01*
X109450D01*
Y177226D01*
X103148D01*
G37*
G54D61*X24000Y137000D03*
X29000D03*
X24000Y132000D03*
Y127000D03*
X29000Y132000D03*
Y127000D03*
G54D55*G36*
X41316Y196752D02*X35598D01*
Y190248D01*
X41316D01*
Y196752D01*
G37*
G36*
X34230D02*X28512D01*
Y190248D01*
X34230D01*
Y196752D01*
G37*
G36*
X40748Y210316D02*Y204598D01*
X47252D01*
Y210316D01*
X40748D01*
G37*
G36*
Y217402D02*Y211684D01*
X47252D01*
Y217402D01*
X40748D01*
G37*
G36*
X51550Y216596D02*Y212696D01*
X57852D01*
Y216596D01*
X51550D01*
G37*
G36*
Y211674D02*Y207774D01*
X57852D01*
Y211674D01*
X51550D01*
G37*
G36*
Y206753D02*Y202853D01*
X57852D01*
Y206753D01*
X51550D01*
G37*
G36*
Y201832D02*Y197932D01*
X57852D01*
Y201832D01*
X51550D01*
G37*
G36*
Y196911D02*Y193011D01*
X57852D01*
Y196911D01*
X51550D01*
G37*
G36*
Y191989D02*Y188089D01*
X57852D01*
Y191989D01*
X51550D01*
G37*
G36*
X170450Y212400D02*X164350D01*
Y203500D01*
X170450D01*
Y212400D01*
G37*
G36*
X152650D02*X146550D01*
Y203500D01*
X152650D01*
Y212400D01*
G37*
G36*
X51550Y187068D02*Y183168D01*
X57852D01*
Y187068D01*
X51550D01*
G37*
G36*
Y182147D02*Y178247D01*
X57852D01*
Y182147D01*
X51550D01*
G37*
G36*
Y172304D02*Y168404D01*
X57852D01*
Y172304D01*
X51550D01*
G37*
G36*
Y167383D02*Y163483D01*
X57852D01*
Y167383D01*
X51550D01*
G37*
G36*
Y162462D02*Y158562D01*
X57852D01*
Y162462D01*
X51550D01*
G37*
G36*
X65226Y157600D02*X61326D01*
Y151302D01*
X65226D01*
Y157600D01*
G37*
G36*
X70147D02*X66247D01*
Y151302D01*
X70147D01*
Y157600D01*
G37*
G36*
X75068D02*X71168D01*
Y151302D01*
X75068D01*
Y157600D01*
G37*
G36*
X79989D02*X76089D01*
Y151302D01*
X79989D01*
Y157600D01*
G37*
G36*
X84911D02*X81011D01*
Y151302D01*
X84911D01*
Y157600D01*
G37*
G36*
X89832D02*X85932D01*
Y151302D01*
X89832D01*
Y157600D01*
G37*
G36*
X94753D02*X90853D01*
Y151302D01*
X94753D01*
Y157600D01*
G37*
G36*
X99674D02*X95774D01*
Y151302D01*
X99674D01*
Y157600D01*
G37*
G36*
X34748Y159816D02*Y154098D01*
X41252D01*
Y159816D01*
X34748D01*
G37*
G36*
Y166902D02*Y161184D01*
X41252D01*
Y166902D01*
X34748D01*
G37*
G36*
X132316Y155252D02*X126598D01*
Y148748D01*
X132316D01*
Y155252D01*
G37*
G36*
X103148Y162462D02*Y158562D01*
X109450D01*
Y162462D01*
X103148D01*
G37*
G36*
Y167383D02*Y163483D01*
X109450D01*
Y167383D01*
X103148D01*
G37*
G36*
Y172304D02*Y168404D01*
X109450D01*
Y172304D01*
X103148D01*
G37*
G36*
Y182147D02*Y178247D01*
X109450D01*
Y182147D01*
X103148D01*
G37*
G36*
Y187068D02*Y183168D01*
X109450D01*
Y187068D01*
X103148D01*
G37*
G36*
Y191989D02*Y188089D01*
X109450D01*
Y191989D01*
X103148D01*
G37*
G36*
Y196911D02*Y193011D01*
X109450D01*
Y196911D01*
X103148D01*
G37*
G36*
Y201832D02*Y197932D01*
X109450D01*
Y201832D01*
X103148D01*
G37*
G36*
Y206753D02*Y202853D01*
X109450D01*
Y206753D01*
X103148D01*
G37*
G36*
Y211674D02*Y207774D01*
X109450D01*
Y211674D01*
X103148D01*
G37*
G36*
Y216596D02*Y212696D01*
X109450D01*
Y216596D01*
X103148D01*
G37*
G36*
Y221517D02*Y217617D01*
X109450D01*
Y221517D01*
X103148D01*
G37*
G36*
Y226438D02*Y222538D01*
X109450D01*
Y226438D01*
X103148D01*
G37*
G36*
X102248Y122316D02*Y116598D01*
X108752D01*
Y122316D01*
X102248D01*
G37*
G36*
Y129402D02*Y123684D01*
X108752D01*
Y129402D01*
X102248D01*
G37*
G36*
X92248Y122816D02*Y117098D01*
X98752D01*
Y122816D01*
X92248D01*
G37*
G36*
Y129902D02*Y124184D01*
X98752D01*
Y129902D01*
X92248D01*
G37*
M02*
