G04 start of page 9 for group -4079 idx -4079 *
G04 Title: (unknown), topsilk *
G04 Creator: pcb 4.0.2 *
G04 CreationDate: Sat May 14 18:06:43 2022 UTC *
G04 For: railfan *
G04 Format: Gerber/RS-274X *
G04 PCB-Dimensions (mil): 3350.00 2300.00 *
G04 PCB-Coordinate-Origin: lower left *
%MOIN*%
%FSLAX25Y25*%
%LNTOPSILK*%
%ADD72C,0.0080*%
%ADD71C,0.0100*%
%ADD70C,0.0001*%
G54D70*G36*
X194043Y94709D02*X193647Y94980D01*
X193511Y95425D01*
X193565Y95740D01*
X193761Y95990D01*
X193891Y96104D01*
Y97986D01*
X193218D01*
X192741Y97981D01*
X192545Y97964D01*
X192453Y97840D01*
X192100Y97617D01*
X191672D01*
X191373Y97807D01*
X191189Y98100D01*
X191162Y98431D01*
X191270Y98724D01*
X191487Y98946D01*
X191802Y99066D01*
X192182Y99012D01*
X192491Y98773D01*
X192556Y98675D01*
X193224D01*
X193891Y98670D01*
Y100167D01*
X191558D01*
Y100900D01*
X191553Y101627D01*
X191455Y101697D01*
X191287Y101876D01*
X191178Y102093D01*
X191189Y102527D01*
X191373Y102815D01*
X191661Y102994D01*
X191997Y103026D01*
X192290Y102923D01*
X192513Y102701D01*
X192632Y102381D01*
X192578Y102006D01*
X192339Y101697D01*
X192242Y101627D01*
Y100851D01*
X193891D01*
Y103156D01*
X194357Y103748D01*
X194829Y104339D01*
Y106406D01*
X193918D01*
Y107193D01*
X198302D01*
Y108566D01*
X195486D01*
Y107193D01*
X194829D01*
Y108566D01*
X193918D01*
Y109325D01*
X194819D01*
Y110692D01*
X195502Y110719D01*
X195497Y110057D01*
X195491Y109586D01*
X195502Y109368D01*
X195567Y109358D01*
X195790Y109347D01*
X196224Y109341D01*
X196907Y109336D01*
X198302D01*
Y110719D01*
X195502D01*
X194819Y110692D01*
X193918D01*
Y111452D01*
X194829D01*
X195486Y111479D01*
X198302D01*
Y112852D01*
X195486D01*
Y111479D01*
X194829Y111452D01*
Y112824D01*
X193918D01*
Y113584D01*
X194819D01*
X194829Y114962D01*
X195486Y115005D01*
Y114327D01*
X195491Y113844D01*
X195508Y113627D01*
X195920Y113617D01*
X196907Y113611D01*
X198291D01*
X198296Y114300D01*
Y114316D01*
X198307Y115005D01*
X195486D01*
X194829Y114962D01*
X193918D01*
Y115722D01*
X194819D01*
Y117094D01*
X195502Y117148D01*
X195497Y116492D01*
X195491Y116015D01*
X195502Y115797D01*
X195567Y115787D01*
X195790Y115776D01*
X196224Y115770D01*
X196907Y115765D01*
X198307D01*
X198296Y116459D01*
X198291Y117148D01*
X195502D01*
X194819Y117094D01*
X193918D01*
Y117854D01*
X194829D01*
Y119096D01*
X195486D01*
Y117854D01*
X198302D01*
Y119096D01*
X198991D01*
Y117854D01*
X199902D01*
Y117094D01*
X198991D01*
Y115694D01*
X199902D01*
Y114935D01*
X198991D01*
Y113541D01*
X199902D01*
Y112781D01*
X198991D01*
Y111408D01*
X199902D01*
Y110649D01*
X198991D01*
Y109255D01*
X199902D01*
Y108495D01*
X198991D01*
Y107122D01*
X199902D01*
Y106336D01*
X198991D01*
X198985Y105750D01*
Y105158D01*
X197569Y103368D01*
X196148Y101583D01*
Y97574D01*
X197124Y96597D01*
X199544D01*
Y98719D01*
X199539Y99543D01*
Y100216D01*
X199533Y100672D01*
X199528Y100834D01*
X199403Y100927D01*
X199159Y101393D01*
X199294Y101909D01*
X199870Y102218D01*
X200472Y101947D01*
X200629Y101382D01*
X200331Y100872D01*
X200233Y100802D01*
Y95914D01*
X196842D01*
X195486Y97270D01*
Y101844D01*
X196896Y103623D01*
X198302Y105403D01*
Y106341D01*
X195486D01*
Y104003D01*
X194574Y102853D01*
Y96022D01*
X194640Y95990D01*
X194819Y95821D01*
X194949Y95588D01*
X194916Y95073D01*
X194569Y94693D01*
X194303Y94633D01*
X194043Y94644D01*
Y94709D01*
G37*
G36*
X209885Y95729D02*X208067Y96071D01*
X206483Y96793D01*
X205376Y97671D01*
X204432Y98778D01*
X203570Y100341D01*
X202924Y102196D01*
X202826Y102565D01*
X205246Y103081D01*
X206179Y103281D01*
X206955Y103444D01*
X207481Y103547D01*
X207682Y103580D01*
X207736Y103368D01*
X207785Y103118D01*
X207867Y102782D01*
X208230Y101757D01*
X208745Y100932D01*
X209391Y100324D01*
X210162Y99961D01*
X210400Y99918D01*
X210796Y99901D01*
X211187Y99918D01*
X211442Y99961D01*
X212462Y100547D01*
X213021Y101583D01*
X213075Y102212D01*
X213021Y102809D01*
X213623Y102983D01*
X213661Y101567D01*
X213303Y100617D01*
X212673Y99885D01*
X211816Y99424D01*
X210780Y99256D01*
X209451Y99559D01*
X208382Y100384D01*
X207590Y101627D01*
X207389Y102153D01*
X207243Y102657D01*
X207194Y102826D01*
X207145Y102842D01*
X206993Y102815D01*
X206635Y102739D01*
X206109Y102625D01*
X205479Y102489D01*
X204329Y102245D01*
X203792Y102126D01*
X203629Y102077D01*
Y102044D01*
X203678Y101860D01*
X203803Y101491D01*
X203949Y101084D01*
X204074Y100758D01*
X205072Y98979D01*
X206358Y97650D01*
X207932Y96782D01*
X209803Y96364D01*
X210199Y96353D01*
X210747D01*
X211295Y96369D01*
X211718Y96402D01*
X213048Y96657D01*
X214209Y97091D01*
X215109Y97623D01*
X215863Y98279D01*
X216466Y99060D01*
X216932Y99966D01*
X217160Y100661D01*
X217317Y101447D01*
X217366Y102402D01*
X217317Y103336D01*
X217090Y104323D01*
X216732Y105213D01*
X216211Y106032D01*
X215527Y106813D01*
X214827Y107459D01*
X214019Y108056D01*
X212945Y108717D01*
X211453Y109547D01*
X210308Y110182D01*
X209516Y110660D01*
X208963Y111061D01*
X208534Y111463D01*
X207986Y112249D01*
X207818Y113117D01*
X207964Y114159D01*
X208398Y114973D01*
X209103Y115537D01*
X210058Y115819D01*
X210639Y115836D01*
X211214Y115770D01*
X211984Y115477D01*
X212652Y114951D01*
X213227Y114186D01*
X213721Y113166D01*
X213807Y112966D01*
X213867Y112922D01*
X214030Y112971D01*
X214409Y113074D01*
X214919Y113226D01*
X215505Y113394D01*
X216081Y113562D01*
X216580Y113714D01*
X216938Y113817D01*
X217079Y113861D01*
X217052Y113985D01*
X216965Y114262D01*
X216840Y114604D01*
X216721Y114919D01*
X216043Y116134D01*
X215153Y117138D01*
X214079Y117913D01*
X212825Y118440D01*
X211068Y118743D01*
X209147Y118657D01*
X207400Y118196D01*
X206000Y117360D01*
X205300Y116633D01*
X204758Y115749D01*
X204389Y114723D01*
X204188Y113573D01*
X204161Y112797D01*
X204199Y112087D01*
X204438Y111105D01*
X204877Y110199D01*
X205517Y109358D01*
X206380Y108566D01*
X206922Y108159D01*
X207552Y107746D01*
X208355Y107269D01*
X209440Y106661D01*
X210167Y106260D01*
X210709Y105951D01*
X211133Y105696D01*
X211507Y105457D01*
X212939Y104247D01*
X213623Y102983D01*
X213021Y102809D01*
X212424Y103878D01*
X211165Y104925D01*
X210802Y105158D01*
X210395Y105403D01*
X209879Y105696D01*
X209185Y106075D01*
X207807Y106851D01*
X206792Y107480D01*
X206017Y108045D01*
X205360Y108625D01*
X204611Y109466D01*
X204074Y110350D01*
X203656Y111533D01*
X203526Y112846D01*
X203618Y114132D01*
X203911Y115331D01*
X204671Y116855D01*
X205832Y118038D01*
X207362Y118863D01*
X209234Y119302D01*
X210693Y119384D01*
X212077Y119259D01*
X213352Y118933D01*
X214491Y118407D01*
X215630Y117561D01*
X216569Y116476D01*
X217296Y115174D01*
X217789Y113671D01*
X217849Y113416D01*
X215647Y112776D01*
X214784Y112532D01*
X214079Y112331D01*
X213601Y112201D01*
X213422Y112157D01*
X213346Y112358D01*
X213118Y112960D01*
X212858Y113535D01*
X212098Y114604D01*
X211149Y115136D01*
X210514Y115201D01*
X209863Y115152D01*
X209006Y114680D01*
X208669Y114219D01*
X208485Y113622D01*
X208447Y113139D01*
X208485Y112727D01*
X208832Y112076D01*
X209559Y111408D01*
X209912Y111164D01*
X210351Y110888D01*
X210926Y110562D01*
X211697Y110139D01*
X212565Y109667D01*
X213248Y109282D01*
X213807Y108951D01*
X214285Y108642D01*
X215511Y107714D01*
X216477Y106726D01*
X217204Y105674D01*
X217692Y104534D01*
X217968Y103162D01*
X217974Y101730D01*
X217719Y100330D01*
X217209Y99066D01*
X216412Y97948D01*
X215370Y97037D01*
X214100Y96359D01*
X212635Y95914D01*
X211257Y95740D01*
X209885Y95735D01*
Y95729D01*
G37*
G36*
X220470Y107535D02*X221110Y107540D01*
X221104Y96641D01*
X232530D01*
Y99798D01*
X224756D01*
Y106319D01*
X230441D01*
Y109488D01*
X224756D01*
Y115271D01*
X232216D01*
Y118440D01*
X221121D01*
X221110Y107540D01*
X220470Y107535D01*
Y119064D01*
X232850D01*
Y114653D01*
X225390D01*
Y110133D01*
X231071D01*
Y105723D01*
X225407D01*
X225396Y103091D01*
X225390Y100460D01*
X233154D01*
Y96022D01*
X220470D01*
Y107535D01*
G37*
G36*
X197607Y97623D02*X197325Y97812D01*
X197146Y98100D01*
X197141Y98534D01*
X197368Y98887D01*
X197499Y98979D01*
X197510Y99440D01*
X197515Y100552D01*
Y102126D01*
X198611Y103504D01*
X199701Y104887D01*
X201031D01*
X201117Y105007D01*
X201345Y105202D01*
X201497Y105267D01*
X201703Y105278D01*
X201904Y105272D01*
X202056Y105202D01*
X202278Y105012D01*
X202414Y104768D01*
X202430Y104486D01*
X202365Y104214D01*
X202089Y103927D01*
X201703Y103813D01*
X201145Y104062D01*
X201020Y104198D01*
X200032D01*
X199115Y103043D01*
X198204Y101887D01*
Y98990D01*
X198307Y98919D01*
X198567Y98523D01*
X198535Y98024D01*
X198150Y97650D01*
X197607Y97617D01*
Y97623D01*
G37*
G36*
X196441Y121782D02*X195556Y122069D01*
X194791Y122628D01*
X194243Y123360D01*
X193956Y124223D01*
X193918Y124863D01*
X193999Y125482D01*
X194309Y126247D01*
X194829Y126898D01*
X195676Y127473D01*
X196647Y127716D01*
X197656Y127629D01*
X198600Y127202D01*
X199153Y126697D01*
X199577Y126079D01*
X199810Y125395D01*
X199880Y124668D01*
X199772Y123941D01*
X199506Y123268D01*
X199099Y122720D01*
X198584Y122275D01*
X197982Y121955D01*
X197331Y121782D01*
X196880Y121760D01*
X196441Y121782D01*
G37*
G54D71*X334500Y229500D02*Y500D01*
X500Y229500D02*X334500D01*
X500Y500D02*Y229500D01*
X219000Y25000D02*Y10500D01*
X260000D01*
Y25000D01*
X334500Y500D02*X500D01*
X270500Y44000D02*Y33000D01*
X262500D01*
X229000Y33500D02*X220500D01*
Y44000D01*
X219000Y25000D02*X260000D01*
G54D72*X44500Y138000D02*X47000Y142000D01*
X44500D02*X47000Y138000D01*
X48200D02*X50200D01*
X50700Y138500D01*
Y139700D02*Y138500D01*
X50200Y140200D02*X50700Y139700D01*
X48700Y140200D02*X50200D01*
X48700Y142000D02*Y138000D01*
X48200Y142000D02*X50200D01*
X50700Y141500D01*
Y140700D01*
X50200Y140200D02*X50700Y140700D01*
X51900Y140200D02*X53400D01*
X51900Y138000D02*X53900D01*
X51900Y142000D02*Y138000D01*
Y142000D02*X53900D01*
X55100Y140200D02*X56600D01*
X55100Y138000D02*X57100D01*
X55100Y142000D02*Y138000D01*
Y142000D02*X57100D01*
X45000Y135500D02*Y131500D01*
X44500Y135500D02*X46500D01*
X47000Y135000D01*
Y134000D01*
X46500Y133500D02*X47000Y134000D01*
X45000Y133500D02*X46500D01*
X48200Y135500D02*X50200D01*
X50700Y135000D01*
Y134000D01*
X50200Y133500D02*X50700Y134000D01*
X48700Y133500D02*X50200D01*
X48700Y135500D02*Y131500D01*
X49500Y133500D02*X50700Y131500D01*
X51900Y135000D02*Y132000D01*
Y135000D02*X52400Y135500D01*
X53400D01*
X53900Y135000D01*
Y132000D01*
X53400Y131500D02*X53900Y132000D01*
X52400Y131500D02*X53400D01*
X51900Y132000D02*X52400Y131500D01*
X57100Y135500D02*X57600Y135000D01*
X55600Y135500D02*X57100D01*
X55100Y135000D02*X55600Y135500D01*
X55100Y135000D02*Y132000D01*
X55600Y131500D01*
X57100D01*
X57600Y132000D01*
Y133000D02*Y132000D01*
X57100Y133500D02*X57600Y133000D01*
X56100Y133500D02*X57100D01*
X145000Y221840D02*X148320D01*
X149150Y221010D01*
Y219350D01*
X148320Y218520D02*X149150Y219350D01*
X145830Y218520D02*X148320D01*
X145830Y221840D02*Y215200D01*
X147158Y218520D02*X149150Y215200D01*
X151142Y218852D02*X153632D01*
X151142Y215200D02*X154462D01*
X151142Y221840D02*Y215200D01*
Y221840D02*X154462D01*
X159774D02*X160604Y221010D01*
X157284Y221840D02*X159774D01*
X156454Y221010D02*X157284Y221840D01*
X156454Y221010D02*Y219350D01*
X157284Y218520D01*
X159774D01*
X160604Y217690D01*
Y216030D01*
X159774Y215200D02*X160604Y216030D01*
X157284Y215200D02*X159774D01*
X156454Y216030D02*X157284Y215200D01*
X162596Y218852D02*X165086D01*
X162596Y215200D02*X165916D01*
X162596Y221840D02*Y215200D01*
Y221840D02*X165916D01*
X167908D02*X171228D01*
X169568D02*Y215200D01*
X164720Y127060D02*Y121300D01*
X164000Y127060D02*X166880D01*
X167600Y126340D01*
Y124900D01*
X166880Y124180D02*X167600Y124900D01*
X164720Y124180D02*X166880D01*
X169328Y126340D02*Y122020D01*
Y126340D02*X170048Y127060D01*
X171488D01*
X172208Y126340D01*
Y122020D01*
X171488Y121300D02*X172208Y122020D01*
X170048Y121300D02*X171488D01*
X169328Y122020D02*X170048Y121300D01*
X173936Y127060D02*Y124180D01*
X174656Y121300D01*
X176096Y124180D01*
X177536Y121300D01*
X178256Y124180D01*
Y127060D02*Y124180D01*
X179984Y124468D02*X182144D01*
X179984Y121300D02*X182864D01*
X179984Y127060D02*Y121300D01*
Y127060D02*X182864D01*
X184592D02*X187472D01*
X188192Y126340D01*
Y124900D01*
X187472Y124180D02*X188192Y124900D01*
X185312Y124180D02*X187472D01*
X185312Y127060D02*Y121300D01*
X186464Y124180D02*X188192Y121300D01*
X164500Y154560D02*X167380D01*
X168100Y153840D01*
Y152400D01*
X167380Y151680D02*X168100Y152400D01*
X165220Y151680D02*X167380D01*
X165220Y154560D02*Y148800D01*
X166372Y151680D02*X168100Y148800D01*
X172708Y154560D02*X173428Y153840D01*
X170548Y154560D02*X172708D01*
X169828Y153840D02*X170548Y154560D01*
X169828Y153840D02*Y152400D01*
X170548Y151680D01*
X172708D01*
X173428Y150960D01*
Y149520D01*
X172708Y148800D02*X173428Y149520D01*
X170548Y148800D02*X172708D01*
X169828Y149520D02*X170548Y148800D01*
X178036Y154560D02*X178756Y153840D01*
X175876Y154560D02*X178036D01*
X175156Y153840D02*X175876Y154560D01*
X175156Y153840D02*Y152400D01*
X175876Y151680D01*
X178036D01*
X178756Y150960D01*
Y149520D01*
X178036Y148800D02*X178756Y149520D01*
X175876Y148800D02*X178036D01*
X175156Y149520D02*X175876Y148800D01*
X180484Y154560D02*X181924D01*
X181204D02*Y148800D01*
X180484D02*X181924D01*
X164500Y139620D02*Y135300D01*
Y139620D02*X165508Y141060D01*
X167092D01*
X168100Y139620D01*
Y135300D01*
X164500Y138180D02*X168100D01*
X172708Y141060D02*X173428Y140340D01*
X170548Y141060D02*X172708D01*
X169828Y140340D02*X170548Y141060D01*
X169828Y140340D02*Y138900D01*
X170548Y138180D01*
X172708D01*
X173428Y137460D01*
Y136020D01*
X172708Y135300D02*X173428Y136020D01*
X170548Y135300D02*X172708D01*
X169828Y136020D02*X170548Y135300D01*
X178036Y141060D02*X178756Y140340D01*
X175876Y141060D02*X178036D01*
X175156Y140340D02*X175876Y141060D01*
X175156Y140340D02*Y138900D01*
X175876Y138180D01*
X178036D01*
X178756Y137460D01*
Y136020D01*
X178036Y135300D02*X178756Y136020D01*
X175876Y135300D02*X178036D01*
X175156Y136020D02*X175876Y135300D01*
X180484Y140340D02*Y136020D01*
Y140340D02*X181204Y141060D01*
X182644D01*
X183364Y140340D01*
Y136020D01*
X182644Y135300D02*X183364Y136020D01*
X181204Y135300D02*X182644D01*
X180484Y136020D02*X181204Y135300D01*
X186100D02*X187972D01*
X185092Y136308D02*X186100Y135300D01*
X185092Y140052D02*Y136308D01*
Y140052D02*X186100Y141060D01*
X187972D01*
X223000Y40200D02*X223800Y41000D01*
Y37000D01*
X223000D02*X224500D01*
X227200Y41000D02*X227700Y40500D01*
X226200Y41000D02*X227200D01*
X225700Y40500D02*X226200Y41000D01*
X225700Y40500D02*Y37500D01*
X226200Y37000D01*
X227200Y39200D02*X227700Y38700D01*
X225700Y39200D02*X227200D01*
X226200Y37000D02*X227200D01*
X227700Y37500D01*
Y38700D02*Y37500D01*
X234500D02*X235000Y37000D01*
X234500Y38300D02*Y37500D01*
Y38300D02*X235200Y39000D01*
X235800D01*
X236500Y38300D01*
Y37500D01*
X236000Y37000D02*X236500Y37500D01*
X235000Y37000D02*X236000D01*
X234500Y39700D02*X235200Y39000D01*
X234500Y40500D02*Y39700D01*
Y40500D02*X235000Y41000D01*
X236000D01*
X236500Y40500D01*
Y39700D01*
X235800Y39000D02*X236500Y39700D01*
X244500Y38500D02*X246500Y41000D01*
X244500Y38500D02*X247000D01*
X246500Y41000D02*Y37000D01*
X254500Y40500D02*X255000Y41000D01*
X256500D01*
X257000Y40500D01*
Y39500D01*
X254500Y37000D02*X257000Y39500D01*
X254500Y37000D02*X257000D01*
X265000Y40200D02*X265800Y41000D01*
Y37000D01*
X265000D02*X266500D01*
X236000Y98000D02*Y96500D01*
X236500Y96000D01*
X237000D01*
X237500Y96500D01*
Y98000D02*Y96500D01*
X238000Y96000D01*
X238500D01*
X239000Y96500D01*
Y98000D02*Y96500D01*
X240200Y98000D02*Y96500D01*
X240700Y96000D01*
X241200D01*
X241700Y96500D01*
Y98000D02*Y96500D01*
X242200Y96000D01*
X242700D01*
X243200Y96500D01*
Y98000D02*Y96500D01*
X244400Y98000D02*Y96500D01*
X244900Y96000D01*
X245400D01*
X245900Y96500D01*
Y98000D02*Y96500D01*
X246400Y96000D01*
X246900D01*
X247400Y96500D01*
Y98000D02*Y96500D01*
X248600Y96000D02*X249100D01*
X250300Y99000D02*Y98900D01*
Y97500D02*Y96000D01*
X252800Y98000D02*X253300Y97500D01*
X251800Y98000D02*X252800D01*
X251300Y97500D02*X251800Y98000D01*
X251300Y97500D02*Y96500D01*
X251800Y96000D01*
X253300Y98000D02*Y96500D01*
X253800Y96000D01*
X251800D02*X252800D01*
X253300Y96500D01*
X255500Y96000D02*X257000D01*
X257500Y96500D01*
X257000Y97000D02*X257500Y96500D01*
X255500Y97000D02*X257000D01*
X255000Y97500D02*X255500Y97000D01*
X255000Y97500D02*X255500Y98000D01*
X257000D01*
X257500Y97500D01*
X255000Y96500D02*X255500Y96000D01*
X259200Y98000D02*X260700D01*
X258700Y97500D02*X259200Y98000D01*
X258700Y97500D02*Y96500D01*
X259200Y96000D01*
X260700D01*
X263400Y98000D02*X263900Y97500D01*
X262400Y98000D02*X263400D01*
X261900Y97500D02*X262400Y98000D01*
X261900Y97500D02*Y96500D01*
X262400Y96000D01*
X263900Y98000D02*Y96500D01*
X264400Y96000D01*
X262400D02*X263400D01*
X263900Y96500D01*
X265600Y100000D02*Y96500D01*
X266100Y96000D01*
X267600D02*X269100D01*
X267100Y96500D02*X267600Y96000D01*
X267100Y97500D02*Y96500D01*
Y97500D02*X267600Y98000D01*
X268600D01*
X269100Y97500D01*
X267100Y97000D02*X269100D01*
Y97500D02*Y97000D01*
X272300Y100000D02*Y96000D01*
X271800D02*X272300Y96500D01*
X270800Y96000D02*X271800D01*
X270300Y96500D02*X270800Y96000D01*
X270300Y97500D02*Y96500D01*
Y97500D02*X270800Y98000D01*
X271800D01*
X272300Y97500D01*
X273500Y96000D02*X274000D01*
X275700Y98000D02*X277200D01*
X275200Y97500D02*X275700Y98000D01*
X275200Y97500D02*Y96500D01*
X275700Y96000D01*
X277200D01*
X278400Y97500D02*Y96500D01*
Y97500D02*X278900Y98000D01*
X279900D01*
X280400Y97500D01*
Y96500D01*
X279900Y96000D02*X280400Y96500D01*
X278900Y96000D02*X279900D01*
X278400Y96500D02*X278900Y96000D01*
X282100Y97500D02*Y96000D01*
Y97500D02*X282600Y98000D01*
X283100D01*
X283600Y97500D01*
Y96000D01*
Y97500D02*X284100Y98000D01*
X284600D01*
X285100Y97500D01*
Y96000D01*
X281600Y98000D02*X282100Y97500D01*
X236000Y120000D02*X237000D01*
X236500D02*Y116000D01*
X236000D02*X237000D01*
X238200Y117500D02*Y116500D01*
Y117500D02*X238700Y118000D01*
X239700D01*
X240200Y117500D01*
Y116500D01*
X239700Y116000D02*X240200Y116500D01*
X238700Y116000D02*X239700D01*
X238200Y116500D02*X238700Y116000D01*
X241400Y118000D02*Y116500D01*
X241900Y116000D01*
X242400D01*
X242900Y116500D01*
Y118000D02*Y116500D01*
X243400Y116000D01*
X243900D01*
X244400Y116500D01*
Y118000D02*Y116500D01*
X247100Y118000D02*X247600Y117500D01*
X246100Y118000D02*X247100D01*
X245600Y117500D02*X246100Y118000D01*
X245600Y117500D02*Y116500D01*
X246100Y116000D01*
X247600Y118000D02*Y116500D01*
X248100Y116000D01*
X246100D02*X247100D01*
X247600Y116500D01*
X253100Y120000D02*X253600Y119500D01*
X251600Y120000D02*X253100D01*
X251100Y119500D02*X251600Y120000D01*
X251100Y119500D02*Y118500D01*
X251600Y118000D01*
X253100D01*
X253600Y117500D01*
Y116500D01*
X253100Y116000D02*X253600Y116500D01*
X251600Y116000D02*X253100D01*
X251100Y116500D02*X251600Y116000D01*
X255300Y118000D02*X256800D01*
X254800Y117500D02*X255300Y118000D01*
X254800Y117500D02*Y116500D01*
X255300Y116000D01*
X256800D01*
X259500Y118000D02*X260000Y117500D01*
X258500Y118000D02*X259500D01*
X258000Y117500D02*X258500Y118000D01*
X258000Y117500D02*Y116500D01*
X258500Y116000D01*
X260000Y118000D02*Y116500D01*
X260500Y116000D01*
X258500D02*X259500D01*
X260000Y116500D01*
X261700Y120000D02*Y116500D01*
X262200Y116000D01*
X263700D02*X265200D01*
X263200Y116500D02*X263700Y116000D01*
X263200Y117500D02*Y116500D01*
Y117500D02*X263700Y118000D01*
X264700D01*
X265200Y117500D01*
X263200Y117000D02*X265200D01*
Y117500D02*Y117000D01*
X268400Y120000D02*Y116000D01*
X267900D02*X268400Y116500D01*
X266900Y116000D02*X267900D01*
X266400Y116500D02*X266900Y116000D01*
X266400Y117500D02*Y116500D01*
Y117500D02*X266900Y118000D01*
X267900D01*
X268400Y117500D01*
X271400Y118200D02*X272900D01*
X271400Y116000D02*X273400D01*
X271400Y120000D02*Y116000D01*
Y120000D02*X273400D01*
X275100Y117500D02*Y116000D01*
Y117500D02*X275600Y118000D01*
X276100D01*
X276600Y117500D01*
Y116000D01*
X274600Y118000D02*X275100Y117500D01*
X279300Y118000D02*X279800Y117500D01*
X278300Y118000D02*X279300D01*
X277800Y117500D02*X278300Y118000D01*
X277800Y117500D02*Y116500D01*
X278300Y116000D01*
X279300D01*
X279800Y116500D01*
X277800Y115000D02*X278300Y114500D01*
X279300D01*
X279800Y115000D01*
Y118000D02*Y115000D01*
X281000Y119000D02*Y118900D01*
Y117500D02*Y116000D01*
X282500Y117500D02*Y116000D01*
Y117500D02*X283000Y118000D01*
X283500D01*
X284000Y117500D01*
Y116000D01*
X282000Y118000D02*X282500Y117500D01*
X285700Y116000D02*X287200D01*
X285200Y116500D02*X285700Y116000D01*
X285200Y117500D02*Y116500D01*
Y117500D02*X285700Y118000D01*
X286700D01*
X287200Y117500D01*
X285200Y117000D02*X287200D01*
Y117500D02*Y117000D01*
X288900Y116000D02*X290400D01*
X288400Y116500D02*X288900Y116000D01*
X288400Y117500D02*Y116500D01*
Y117500D02*X288900Y118000D01*
X289900D01*
X290400Y117500D01*
X288400Y117000D02*X290400D01*
Y117500D02*Y117000D01*
X292100Y117500D02*Y116000D01*
Y117500D02*X292600Y118000D01*
X293600D01*
X291600D02*X292100Y117500D01*
X294800Y119000D02*Y118900D01*
Y117500D02*Y116000D01*
X296300Y117500D02*Y116000D01*
Y117500D02*X296800Y118000D01*
X297300D01*
X297800Y117500D01*
Y116000D01*
X295800Y118000D02*X296300Y117500D01*
X300500Y118000D02*X301000Y117500D01*
X299500Y118000D02*X300500D01*
X299000Y117500D02*X299500Y118000D01*
X299000Y117500D02*Y116500D01*
X299500Y116000D01*
X300500D01*
X301000Y116500D01*
X299000Y115000D02*X299500Y114500D01*
X300500D01*
X301000Y115000D01*
Y118000D02*Y115000D01*
X236000Y112500D02*Y108500D01*
Y112500D02*X237500Y110500D01*
X239000Y112500D01*
Y108500D01*
X240200Y112500D02*X242200D01*
X242700Y112000D01*
Y111000D01*
X242200Y110500D02*X242700Y111000D01*
X240700Y110500D02*X242200D01*
X240700Y112500D02*Y108500D01*
X241500Y110500D02*X242700Y108500D01*
X243900D02*X245900D01*
X246400Y109000D01*
Y110200D02*Y109000D01*
X245900Y110700D02*X246400Y110200D01*
X244400Y110700D02*X245900D01*
X244400Y112500D02*Y108500D01*
X243900Y112500D02*X245900D01*
X246400Y112000D01*
Y111200D01*
X245900Y110700D02*X246400Y111200D01*
X247600Y112500D02*Y110500D01*
X248100Y108500D01*
X249100Y110500D01*
X250100Y108500D01*
X250600Y110500D01*
Y112500D02*Y110500D01*
X251800D02*X253800D01*
X255000Y112500D02*Y110500D01*
X255500Y108500D01*
X256500Y110500D01*
X257500Y108500D01*
X258000Y110500D01*
Y112500D02*Y110500D01*
X259200Y112500D02*X260200D01*
X259700D02*Y108500D01*
X259200D02*X260200D01*
X261400Y112500D02*Y108500D01*
Y112500D02*X263400D01*
X261400Y110700D02*X262900D01*
X264600Y112500D02*X265600D01*
X265100D02*Y108500D01*
X264600D02*X265600D01*
X268600Y110500D02*X269600Y108500D01*
X270600Y110500D02*X269600Y108500D01*
X271800Y111700D02*X272600Y112500D01*
Y108500D01*
X271800D02*X273300D01*
X274500D02*X275000D01*
X276200Y109000D02*X276700Y108500D01*
X276200Y112000D02*Y109000D01*
Y112000D02*X276700Y112500D01*
X277700D01*
X278200Y112000D01*
Y109000D01*
X277700Y108500D02*X278200Y109000D01*
X276700Y108500D02*X277700D01*
X276200Y109500D02*X278200Y111500D01*
X236000Y102000D02*X236500Y101500D01*
X236000Y105000D02*X236500Y105500D01*
X236000Y105000D02*Y102000D01*
X238400Y101500D02*X239700D01*
X237700Y102200D02*X238400Y101500D01*
X237700Y104800D02*Y102200D01*
Y104800D02*X238400Y105500D01*
X239700D01*
X240900D02*X241400Y105000D01*
Y102000D01*
X240900Y101500D02*X241400Y102000D01*
X244400Y105000D02*X244900Y105500D01*
X246400D01*
X246900Y105000D01*
Y104000D01*
X244400Y101500D02*X246900Y104000D01*
X244400Y101500D02*X246900D01*
X248100Y102000D02*X248600Y101500D01*
X248100Y105000D02*Y102000D01*
Y105000D02*X248600Y105500D01*
X249600D01*
X250100Y105000D01*
Y102000D01*
X249600Y101500D02*X250100Y102000D01*
X248600Y101500D02*X249600D01*
X248100Y102500D02*X250100Y104500D01*
X251300Y105000D02*X251800Y105500D01*
X253300D01*
X253800Y105000D01*
Y104000D01*
X251300Y101500D02*X253800Y104000D01*
X251300Y101500D02*X253800D01*
X255000Y105000D02*X255500Y105500D01*
X257000D01*
X257500Y105000D01*
Y104000D01*
X255000Y101500D02*X257500Y104000D01*
X255000Y101500D02*X257500D01*
X263000D02*X264300D01*
X262300Y102200D02*X263000Y101500D01*
X262300Y104800D02*Y102200D01*
Y104800D02*X263000Y105500D01*
X264300D01*
X266200Y101500D02*X267500D01*
X265500Y102200D02*X266200Y101500D01*
X265500Y104800D02*Y102200D01*
Y104800D02*X266200Y105500D01*
X267500D01*
X270500Y101500D02*X272500D01*
X273000Y102000D01*
Y103200D02*Y102000D01*
X272500Y103700D02*X273000Y103200D01*
X271000Y103700D02*X272500D01*
X271000Y105500D02*Y101500D01*
X270500Y105500D02*X272500D01*
X273000Y105000D01*
Y104200D01*
X272500Y103700D02*X273000Y104200D01*
X274200Y105500D02*X275200Y103500D01*
X276200Y105500D01*
X275200Y103500D02*Y101500D01*
X277400Y103500D02*X279400D01*
X282600Y105500D02*X283100Y105000D01*
X281100Y105500D02*X282600D01*
X280600Y105000D02*X281100Y105500D01*
X280600Y105000D02*Y104000D01*
X281100Y103500D01*
X282600D01*
X283100Y103000D01*
Y102000D01*
X282600Y101500D02*X283100Y102000D01*
X281100Y101500D02*X282600D01*
X280600Y102000D02*X281100Y101500D01*
X284300Y104500D02*Y101500D01*
Y104500D02*X285000Y105500D01*
X286100D01*
X286800Y104500D01*
Y101500D01*
X284300Y103500D02*X286800D01*
X230500Y31000D02*X232500D01*
X233000Y31500D01*
Y32700D02*Y31500D01*
X232500Y33200D02*X233000Y32700D01*
X231000Y33200D02*X232500D01*
X231000Y35000D02*Y31000D01*
X230500Y35000D02*X232500D01*
X233000Y34500D01*
Y33700D01*
X232500Y33200D02*X233000Y33700D01*
X234200Y34000D02*Y31000D01*
Y34000D02*X234900Y35000D01*
X236000D01*
X236700Y34000D01*
Y31000D01*
X234200Y33000D02*X236700D01*
X239900Y35000D02*X240400Y34500D01*
X238400Y35000D02*X239900D01*
X237900Y34500D02*X238400Y35000D01*
X237900Y34500D02*Y33500D01*
X238400Y33000D01*
X239900D01*
X240400Y32500D01*
Y31500D01*
X239900Y31000D02*X240400Y31500D01*
X238400Y31000D02*X239900D01*
X237900Y31500D02*X238400Y31000D01*
X241600Y33200D02*X243100D01*
X241600Y31000D02*X243600D01*
X241600Y35000D02*Y31000D01*
Y35000D02*X243600D01*
X246600Y34000D02*Y31000D01*
Y34000D02*X247300Y35000D01*
X248400D01*
X249100Y34000D01*
Y31000D01*
X246600Y33000D02*X249100D01*
X250800Y35000D02*Y31000D01*
X252100Y35000D02*X252800Y34300D01*
Y31700D01*
X252100Y31000D02*X252800Y31700D01*
X250300Y31000D02*X252100D01*
X250300Y35000D02*X252100D01*
X254500D02*Y31000D01*
X255800Y35000D02*X256500Y34300D01*
Y31700D01*
X255800Y31000D02*X256500Y31700D01*
X254000Y31000D02*X255800D01*
X254000Y35000D02*X255800D01*
X257700D02*X259700D01*
X260200Y34500D01*
Y33500D01*
X259700Y33000D02*X260200Y33500D01*
X258200Y33000D02*X259700D01*
X258200Y35000D02*Y31000D01*
X259000Y33000D02*X260200Y31000D01*
X221500Y23000D02*Y19000D01*
X221000Y23000D02*X223000D01*
X223500Y22500D01*
Y21500D01*
X223000Y21000D02*X223500Y21500D01*
X221500Y21000D02*X223000D01*
X225200Y20500D02*Y19000D01*
Y20500D02*X225700Y21000D01*
X226700D01*
X224700D02*X225200Y20500D01*
X227900D02*Y19500D01*
Y20500D02*X228400Y21000D01*
X229400D01*
X229900Y20500D01*
Y19500D01*
X229400Y19000D02*X229900Y19500D01*
X228400Y19000D02*X229400D01*
X227900Y19500D02*X228400Y19000D01*
X231600Y23000D02*Y19500D01*
X232100Y19000D01*
X231100Y21500D02*X232100D01*
X233100Y20500D02*Y19500D01*
Y20500D02*X233600Y21000D01*
X234600D01*
X235100Y20500D01*
Y19500D01*
X234600Y19000D02*X235100Y19500D01*
X233600Y19000D02*X234600D01*
X233100Y19500D02*X233600Y19000D01*
X236300Y23000D02*X238300D01*
X237300D02*Y19000D01*
X239500Y23000D02*Y19000D01*
Y20500D02*X240000Y21000D01*
X241000D01*
X241500Y20500D01*
Y19000D01*
X243200Y20500D02*Y19000D01*
Y20500D02*X243700Y21000D01*
X244700D01*
X242700D02*X243200Y20500D01*
X245900D02*Y19500D01*
Y20500D02*X246400Y21000D01*
X247400D01*
X247900Y20500D01*
Y19500D01*
X247400Y19000D02*X247900Y19500D01*
X246400Y19000D02*X247400D01*
X245900Y19500D02*X246400Y19000D01*
X249600Y23000D02*Y19500D01*
X250100Y19000D01*
X249100Y21500D02*X250100D01*
X251600Y23000D02*Y19500D01*
X252100Y19000D01*
X251100Y21500D02*X252100D01*
X253100Y23000D02*Y19500D01*
X253600Y19000D01*
X255100D02*X256600D01*
X254600Y19500D02*X255100Y19000D01*
X254600Y20500D02*Y19500D01*
Y20500D02*X255100Y21000D01*
X256100D01*
X256600Y20500D01*
X254600Y20000D02*X256600D01*
Y20500D02*Y20000D01*
X221000Y16500D02*X223000D01*
X223500Y16000D01*
Y15000D01*
X223000Y14500D02*X223500Y15000D01*
X221500Y14500D02*X223000D01*
X221500Y16500D02*Y12500D01*
X222300Y14500D02*X223500Y12500D01*
X225200D02*X226700D01*
X224700Y13000D02*X225200Y12500D01*
X224700Y14000D02*Y13000D01*
Y14000D02*X225200Y14500D01*
X226200D01*
X226700Y14000D01*
X224700Y13500D02*X226700D01*
Y14000D02*Y13500D01*
X228400Y14500D02*X229900D01*
X227900Y14000D02*X228400Y14500D01*
X227900Y14000D02*Y13000D01*
X228400Y12500D01*
X229900D01*
X231600D02*X233100D01*
X231100Y13000D02*X231600Y12500D01*
X231100Y14000D02*Y13000D01*
Y14000D02*X231600Y14500D01*
X232600D01*
X233100Y14000D01*
X231100Y13500D02*X233100D01*
Y14000D02*Y13500D01*
X234300Y15500D02*Y15400D01*
Y14000D02*Y12500D01*
X235300Y14500D02*X236300Y12500D01*
X237300Y14500D02*X236300Y12500D01*
X239000D02*X240500D01*
X238500Y13000D02*X239000Y12500D01*
X238500Y14000D02*Y13000D01*
Y14000D02*X239000Y14500D01*
X240000D01*
X240500Y14000D01*
X238500Y13500D02*X240500D01*
Y14000D02*Y13500D01*
X242200Y14000D02*Y12500D01*
Y14000D02*X242700Y14500D01*
X243700D01*
X241700D02*X242200Y14000D01*
X293000Y36500D02*X295000D01*
X295500Y37000D01*
Y38200D02*Y37000D01*
X295000Y38700D02*X295500Y38200D01*
X293500Y38700D02*X295000D01*
X293500Y40500D02*Y36500D01*
X293000Y40500D02*X295000D01*
X295500Y40000D01*
Y39200D01*
X295000Y38700D02*X295500Y39200D01*
X296700Y40500D02*Y36500D01*
X298700D01*
X307500Y77010D02*Y72030D01*
Y77010D02*X308330Y77840D01*
X309990D01*
X310820Y77010D01*
Y72030D01*
X309990Y71200D02*X310820Y72030D01*
X308330Y71200D02*X309990D01*
X307500Y72030D02*X308330Y71200D01*
X312812Y77840D02*Y71200D01*
Y77840D02*X316962Y71200D01*
Y77840D02*Y71200D01*
X307500Y57010D02*Y52030D01*
Y57010D02*X308330Y57840D01*
X309990D01*
X310820Y57010D01*
Y52030D01*
X309990Y51200D02*X310820Y52030D01*
X308330Y51200D02*X309990D01*
X307500Y52030D02*X308330Y51200D01*
X312812Y57840D02*Y51200D01*
Y57840D02*X316132D01*
X312812Y54852D02*X315302D01*
X318124Y57840D02*Y51200D01*
Y57840D02*X321444D01*
X318124Y54852D02*X320614D01*
X327500Y120000D02*X329500Y118000D01*
X327500D02*X329500Y120000D01*
X327500Y119000D02*X329500D01*
X328500Y120000D02*Y118000D01*
X312500Y128500D02*X314500D01*
X315000Y129000D01*
Y130200D02*Y129000D01*
X314500Y130700D02*X315000Y130200D01*
X313000Y130700D02*X314500D01*
X313000Y132500D02*Y128500D01*
X312500Y132500D02*X314500D01*
X315000Y132000D01*
Y131200D01*
X314500Y130700D02*X315000Y131200D01*
X316200Y132000D02*Y129000D01*
Y132000D02*X316700Y132500D01*
X317700D01*
X318200Y132000D01*
Y129000D01*
X317700Y128500D02*X318200Y129000D01*
X316700Y128500D02*X317700D01*
X316200Y129000D02*X316700Y128500D01*
X319400Y132000D02*Y129000D01*
Y132000D02*X319900Y132500D01*
X320900D01*
X321400Y132000D01*
Y129000D01*
X320900Y128500D02*X321400Y129000D01*
X319900Y128500D02*X320900D01*
X319400Y129000D02*X319900Y128500D01*
X322600Y132500D02*X324600D01*
X323600D02*Y128500D01*
X307500Y126500D02*X308000Y126000D01*
X306000Y126500D02*X307500D01*
X305500Y126000D02*X306000Y126500D01*
X305500Y126000D02*Y125000D01*
X306000Y124500D01*
X307500D01*
X308000Y124000D01*
Y123000D01*
X307500Y122500D02*X308000Y123000D01*
X306000Y122500D02*X307500D01*
X305500Y123000D02*X306000Y122500D01*
X309200Y126500D02*X311200D01*
X310200D02*Y122500D01*
X312400Y125500D02*Y122500D01*
Y125500D02*X313100Y126500D01*
X314200D01*
X314900Y125500D01*
Y122500D01*
X312400Y124500D02*X314900D01*
X316100Y126500D02*X318100D01*
X317100D02*Y122500D01*
X319300Y126500D02*Y123000D01*
X319800Y122500D01*
X320800D01*
X321300Y123000D01*
Y126500D02*Y123000D01*
X324500Y126500D02*X325000Y126000D01*
X323000Y126500D02*X324500D01*
X322500Y126000D02*X323000Y126500D01*
X322500Y126000D02*Y125000D01*
X323000Y124500D01*
X324500D01*
X325000Y124000D01*
Y123000D01*
X324500Y122500D02*X325000Y123000D01*
X323000Y122500D02*X324500D01*
X322500Y123000D02*X323000Y122500D01*
X283000Y40500D02*Y36500D01*
Y40500D02*X285000D01*
X283000Y38700D02*X284500D01*
X286200Y40500D02*X288200D01*
X288700Y40000D01*
Y39000D01*
X288200Y38500D02*X288700Y39000D01*
X286700Y38500D02*X288200D01*
X286700Y40500D02*Y36500D01*
X287500Y38500D02*X288700Y36500D01*
X274500Y39500D02*Y36500D01*
Y39500D02*X275200Y40500D01*
X276300D01*
X277000Y39500D01*
Y36500D01*
X274500Y38500D02*X277000D01*
X204500Y76510D02*Y71530D01*
Y76510D02*X205330Y77340D01*
X206990D01*
X207820Y76510D01*
Y71530D01*
X206990Y70700D02*X207820Y71530D01*
X205330Y70700D02*X206990D01*
X204500Y71530D02*X205330Y70700D01*
X209812Y77340D02*Y70700D01*
Y77340D02*X213962Y70700D01*
Y77340D02*Y70700D01*
X200500Y57010D02*Y52030D01*
Y57010D02*X201330Y57840D01*
X202990D01*
X203820Y57010D01*
Y52030D01*
X202990Y51200D02*X203820Y52030D01*
X201330Y51200D02*X202990D01*
X200500Y52030D02*X201330Y51200D01*
X205812Y57840D02*Y51200D01*
Y57840D02*X209132D01*
X205812Y54852D02*X208302D01*
X211124Y57840D02*Y51200D01*
Y57840D02*X214444D01*
X211124Y54852D02*X213614D01*
X207000Y66500D02*X207500Y66000D01*
X205500Y66500D02*X207000D01*
X205000Y66000D02*X205500Y66500D01*
X205000Y66000D02*Y65000D01*
X205500Y64500D01*
X207000D01*
X207500Y64000D01*
Y63000D01*
X207000Y62500D02*X207500Y63000D01*
X205500Y62500D02*X207000D01*
X205000Y63000D02*X205500Y62500D01*
X208700Y66500D02*Y64500D01*
X209200Y62500D01*
X210200Y64500D01*
X211200Y62500D01*
X211700Y64500D01*
Y66500D02*Y64500D01*
X212900Y65700D02*X213700Y66500D01*
Y62500D01*
X212900D02*X214400D01*
G54D71*X226567Y229500D02*X297433D01*
Y203909D01*
Y131862D02*Y129106D01*
X226567Y229500D02*Y203909D01*
Y131862D02*Y129106D01*
X297433D02*X292906D01*
X231094D02*X226567D01*
Y229500D02*X297433Y205878D01*
Y229500D02*X226567Y205878D01*
X297433D01*
X303976Y119961D02*Y90039D01*
X326024Y119961D02*Y90039D01*
X303976D02*X326024D01*
X303976Y119961D02*X326024D01*
X210064Y170745D02*X210850D01*
X210064Y176255D02*X210850D01*
X210064Y180245D02*X210850D01*
X210064Y185755D02*X210850D01*
X212245Y196393D02*Y195607D01*
X217755Y196393D02*Y195607D01*
X155107Y121245D02*X155893D01*
X155107Y126755D02*X155893D01*
X164309Y97386D02*Y96600D01*
X169819Y97386D02*Y96600D01*
X41245Y211393D02*Y210607D01*
X46755Y211393D02*Y210607D01*
X34521Y190745D02*X35307D01*
X34521Y196255D02*X35307D01*
X53850Y229600D02*X107150D01*
Y153600D01*
X53850D01*
Y229600D01*
X59000Y213500D02*X102000D01*
X59000D02*Y229600D01*
X102000Y213500D02*Y229600D01*
X59000Y213500D02*X102000Y229600D01*
X59000D02*X102000Y213500D01*
X92745Y123893D02*Y123107D01*
X98255Y123893D02*Y123107D01*
X146700Y201800D02*Y178200D01*
X170300Y201800D02*Y178200D01*
X146700Y201800D02*X170300D01*
X146700Y178200D02*X170300D01*
X149650Y200325D02*Y179675D01*
X167350Y200325D02*Y179675D01*
X161450Y198850D02*X167350D01*
X149650D02*X155550D01*
X161450Y200325D02*X155550Y198850D01*
X151600Y190000D02*G75*G03X151600Y190000I6900J0D01*G01*
G75*G03X165400Y190000I6900J0D01*G01*
X133107Y135245D02*X133893D01*
X133107Y140755D02*X133893D01*
X154607Y135245D02*X155393D01*
X154607Y140755D02*X155393D01*
X132607Y149245D02*X133393D01*
X132607Y154755D02*X133393D01*
X154607Y149245D02*X155393D01*
X154607Y154755D02*X155393D01*
X36858Y110020D02*X144339D01*
X36858Y571D02*X144339D01*
Y110020D02*Y571D01*
X36858Y110020D02*Y571D01*
X47803Y84941D02*X133394D01*
X47803Y42185D02*X133394D01*
X47803Y84941D02*Y42185D01*
X133394Y84941D02*Y42185D01*
X133107Y121245D02*X133893D01*
X133107Y126755D02*X133893D01*
X102745Y123393D02*Y122607D01*
X108255Y123393D02*Y122607D01*
X197255Y78393D02*Y77607D01*
X191745Y78393D02*Y77607D01*
X146000Y58000D02*X187400D01*
Y86500D02*Y58000D01*
X146000Y86500D02*X187400D01*
X146000D02*Y58000D01*
X165607Y46245D02*X166393D01*
X165607Y51755D02*X166393D01*
X19107Y175245D02*X19893D01*
X19107Y180755D02*X19893D01*
X35245Y160893D02*Y160107D01*
X40755Y160893D02*Y160107D01*
X303500Y74500D02*Y54500D01*
X217500Y74500D02*X303500D01*
X217500Y54500D02*X303500D01*
X217500Y74500D02*Y54500D01*
Y74500D02*X224500Y64500D01*
X217500Y54500D02*X224500Y64500D01*
X153339Y378D02*X198339D01*
X153339Y36378D02*Y378D01*
X198339Y36378D02*Y378D01*
G54D72*X72500Y116500D02*Y112500D01*
X73800Y116500D02*X74500Y115800D01*
Y113200D01*
X73800Y112500D02*X74500Y113200D01*
X72000Y112500D02*X73800D01*
X72000Y116500D02*X73800D01*
X75700D02*X76700D01*
X76200D02*Y112500D01*
X75700D02*X76700D01*
X79900Y116500D02*X80400Y116000D01*
X78400Y116500D02*X79900D01*
X77900Y116000D02*X78400Y116500D01*
X77900Y116000D02*Y115000D01*
X78400Y114500D01*
X79900D01*
X80400Y114000D01*
Y113000D01*
X79900Y112500D02*X80400Y113000D01*
X78400Y112500D02*X79900D01*
X77900Y113000D02*X78400Y112500D01*
X82100Y116500D02*Y112500D01*
X81600Y116500D02*X83600D01*
X84100Y116000D01*
Y115000D01*
X83600Y114500D02*X84100Y115000D01*
X82100Y114500D02*X83600D01*
X85300Y115700D02*X86100Y116500D01*
Y112500D01*
X85300D02*X86800D01*
X131043Y119500D02*X133043D01*
X133543Y119000D01*
Y118000D01*
X133043Y117500D02*X133543Y118000D01*
X131543Y117500D02*X133043D01*
X131543Y119500D02*Y115500D01*
X132343Y117500D02*X133543Y115500D01*
X134743Y119000D02*X135243Y119500D01*
X136243D01*
X136743Y119000D01*
X136243Y115500D02*X136743Y116000D01*
X135243Y115500D02*X136243D01*
X134743Y116000D02*X135243Y115500D01*
Y117700D02*X136243D01*
X136743Y119000D02*Y118200D01*
Y117200D02*Y116000D01*
Y117200D02*X136243Y117700D01*
X136743Y118200D02*X136243Y117700D01*
X112000Y227500D02*Y224000D01*
X112500Y223500D01*
X113500D01*
X114000Y224000D01*
Y227500D02*Y224000D01*
X115200Y227000D02*X115700Y227500D01*
X116700D01*
X117200Y227000D01*
X116700Y223500D02*X117200Y224000D01*
X115700Y223500D02*X116700D01*
X115200Y224000D02*X115700Y223500D01*
Y225700D02*X116700D01*
X117200Y227000D02*Y226200D01*
Y225200D02*Y224000D01*
Y225200D02*X116700Y225700D01*
X117200Y226200D02*X116700Y225700D01*
X130393Y147150D02*X132393D01*
X132893Y146650D01*
Y145650D01*
X132393Y145150D02*X132893Y145650D01*
X130893Y145150D02*X132393D01*
X130893Y147150D02*Y143150D01*
X131693Y145150D02*X132893Y143150D01*
X134093Y147150D02*X136093D01*
X134093D02*Y145150D01*
X134593Y145650D01*
X135593D01*
X136093Y145150D01*
Y143650D01*
X135593Y143150D02*X136093Y143650D01*
X134593Y143150D02*X135593D01*
X134093Y143650D02*X134593Y143150D01*
X14350Y172150D02*X16350D01*
X16850Y171650D01*
Y170650D01*
X16350Y170150D02*X16850Y170650D01*
X14850Y170150D02*X16350D01*
X14850Y172150D02*Y168150D01*
X15650Y170150D02*X16850Y168150D01*
X19550Y172150D02*X20050Y171650D01*
X18550Y172150D02*X19550D01*
X18050Y171650D02*X18550Y172150D01*
X18050Y171650D02*Y168650D01*
X18550Y168150D01*
X19550Y170350D02*X20050Y169850D01*
X18050Y170350D02*X19550D01*
X18550Y168150D02*X19550D01*
X20050Y168650D01*
Y169850D02*Y168650D01*
X42050Y219150D02*X43350D01*
X41350Y219850D02*X42050Y219150D01*
X41350Y222450D02*Y219850D01*
Y222450D02*X42050Y223150D01*
X43350D01*
X46050D02*X46550Y222650D01*
X45050Y223150D02*X46050D01*
X44550Y222650D02*X45050Y223150D01*
X44550Y222650D02*Y219650D01*
X45050Y219150D01*
X46050Y221350D02*X46550Y220850D01*
X44550Y221350D02*X46050D01*
X45050Y219150D02*X46050D01*
X46550Y219650D01*
Y220850D02*Y219650D01*
X33679Y198150D02*X34979D01*
X32979Y198850D02*X33679Y198150D01*
X32979Y201450D02*Y198850D01*
Y201450D02*X33679Y202150D01*
X34979D01*
X36179D02*X38179D01*
X36179D02*Y200150D01*
X36679Y200650D01*
X37679D01*
X38179Y200150D01*
Y198650D01*
X37679Y198150D02*X38179Y198650D01*
X36679Y198150D02*X37679D01*
X36179Y198650D02*X36679Y198150D01*
X24200Y151000D02*X25000D01*
Y147500D01*
X24500Y147000D02*X25000Y147500D01*
X24000Y147000D02*X24500D01*
X23500Y147500D02*X24000Y147000D01*
X23500Y148000D02*Y147500D01*
X26200Y150500D02*X26700Y151000D01*
X28200D01*
X28700Y150500D01*
Y149500D01*
X26200Y147000D02*X28700Y149500D01*
X26200Y147000D02*X28700D01*
X26350Y161850D02*X28350D01*
X28850Y161350D01*
Y160350D01*
X28350Y159850D02*X28850Y160350D01*
X26850Y159850D02*X28350D01*
X26850Y161850D02*Y157850D01*
X27650Y159850D02*X28850Y157850D01*
X30050Y158350D02*X30550Y157850D01*
X30050Y159150D02*Y158350D01*
Y159150D02*X30750Y159850D01*
X31350D01*
X32050Y159150D01*
Y158350D01*
X31550Y157850D02*X32050Y158350D01*
X30550Y157850D02*X31550D01*
X30050Y160550D02*X30750Y159850D01*
X30050Y161350D02*Y160550D01*
Y161350D02*X30550Y161850D01*
X31550D01*
X32050Y161350D01*
Y160550D01*
X31350Y159850D02*X32050Y160550D01*
X102000Y135500D02*X104000D01*
X104500Y135000D01*
Y134000D01*
X104000Y133500D02*X104500Y134000D01*
X102500Y133500D02*X104000D01*
X102500Y135500D02*Y131500D01*
X103300Y133500D02*X104500Y131500D01*
X105700Y135000D02*X106200Y135500D01*
X107700D01*
X108200Y135000D01*
Y134000D01*
X105700Y131500D02*X108200Y134000D01*
X105700Y131500D02*X108200D01*
X92500Y135500D02*X94500D01*
X95000Y135000D01*
Y134000D01*
X94500Y133500D02*X95000Y134000D01*
X93000Y133500D02*X94500D01*
X93000Y135500D02*Y131500D01*
X93800Y133500D02*X95000Y131500D01*
X96200Y134700D02*X97000Y135500D01*
Y131500D01*
X96200D02*X97700D01*
X219500Y227500D02*Y224000D01*
X220000Y223500D01*
X221000D01*
X221500Y224000D01*
Y227500D02*Y224000D01*
X222700Y226700D02*X223500Y227500D01*
Y223500D01*
X222700D02*X224200D01*
X319500Y87500D02*Y84000D01*
X320000Y83500D01*
X321000D01*
X321500Y84000D01*
Y87500D02*Y84000D01*
X322700Y85000D02*X324700Y87500D01*
X322700Y85000D02*X325200D01*
X324700Y87500D02*Y83500D01*
X197093Y171650D02*X198393D01*
X196393Y172350D02*X197093Y171650D01*
X196393Y174950D02*Y172350D01*
Y174950D02*X197093Y175650D01*
X198393D01*
X200093Y171650D02*X202093Y175650D01*
X199593D02*X202093D01*
X196350Y184650D02*X198350D01*
X198850Y184150D01*
Y183150D01*
X198350Y182650D02*X198850Y183150D01*
X196850Y182650D02*X198350D01*
X196850Y184650D02*Y180650D01*
X197650Y182650D02*X198850Y180650D01*
X200550D02*X202550Y184650D01*
X200050D02*X202550D01*
X212200Y204000D02*X213500D01*
X211500Y204700D02*X212200Y204000D01*
X211500Y207300D02*Y204700D01*
Y207300D02*X212200Y208000D01*
X213500D01*
X214700Y205500D02*X216700Y208000D01*
X214700Y205500D02*X217200D01*
X216700Y208000D02*Y204000D01*
X151000Y119500D02*Y115500D01*
X152300Y119500D02*X153000Y118800D01*
Y116200D01*
X152300Y115500D02*X153000Y116200D01*
X150500Y115500D02*X152300D01*
X150500Y119500D02*X152300D01*
X154200Y118700D02*X155000Y119500D01*
Y115500D01*
X154200D02*X155700D01*
X130850Y133150D02*X132850D01*
X133350Y132650D01*
Y131650D01*
X132850Y131150D02*X133350Y131650D01*
X131350Y131150D02*X132850D01*
X131350Y133150D02*Y129150D01*
X132150Y131150D02*X133350Y129150D01*
X134550Y130650D02*X136550Y133150D01*
X134550Y130650D02*X137050D01*
X136550Y133150D02*Y129150D01*
X150350Y133150D02*Y129150D01*
X151650Y133150D02*X152350Y132450D01*
Y129850D01*
X151650Y129150D02*X152350Y129850D01*
X149850Y129150D02*X151650D01*
X149850Y133150D02*X151650D01*
X153550Y132650D02*X154050Y133150D01*
X155550D01*
X156050Y132650D01*
Y131650D01*
X153550Y129150D02*X156050Y131650D01*
X153550Y129150D02*X156050D01*
X150350Y147150D02*Y143150D01*
X151650Y147150D02*X152350Y146450D01*
Y143850D01*
X151650Y143150D02*X152350Y143850D01*
X149850Y143150D02*X151650D01*
X149850Y147150D02*X151650D01*
X153550Y146650D02*X154050Y147150D01*
X155050D01*
X155550Y146650D01*
X155050Y143150D02*X155550Y143650D01*
X154050Y143150D02*X155050D01*
X153550Y143650D02*X154050Y143150D01*
Y145350D02*X155050D01*
X155550Y146650D02*Y145850D01*
Y144850D02*Y143650D01*
Y144850D02*X155050Y145350D01*
X155550Y145850D02*X155050Y145350D01*
X200243Y80000D02*X201543D01*
X199543Y80700D02*X200243Y80000D01*
X199543Y83300D02*Y80700D01*
Y83300D02*X200243Y84000D01*
X201543D01*
X202743Y83200D02*X203543Y84000D01*
Y80000D01*
X202743D02*X204243D01*
X172764Y91821D02*X174064D01*
X172064Y92521D02*X172764Y91821D01*
X172064Y95121D02*Y92521D01*
Y95121D02*X172764Y95821D01*
X174064D01*
X175264Y95321D02*X175764Y95821D01*
X176764D01*
X177264Y95321D01*
X176764Y91821D02*X177264Y92321D01*
X175764Y91821D02*X176764D01*
X175264Y92321D02*X175764Y91821D01*
Y94021D02*X176764D01*
X177264Y95321D02*Y94521D01*
Y93521D02*Y92321D01*
Y93521D02*X176764Y94021D01*
X177264Y94521D02*X176764Y94021D01*
X175050Y47150D02*X176350D01*
X174350Y47850D02*X175050Y47150D01*
X174350Y50450D02*Y47850D01*
Y50450D02*X175050Y51150D01*
X176350D01*
X177550Y50650D02*X178050Y51150D01*
X179550D01*
X180050Y50650D01*
Y49650D01*
X177550Y47150D02*X180050Y49650D01*
X177550Y47150D02*X180050D01*
X202078Y8161D02*X202878D01*
Y4661D01*
X202378Y4161D02*X202878Y4661D01*
X201878Y4161D02*X202378D01*
X201378Y4661D02*X201878Y4161D01*
X201378Y5161D02*Y4661D01*
X204078Y7361D02*X204878Y8161D01*
Y4161D01*
X204078D02*X205578D01*
X150000Y55000D02*Y51500D01*
X150500Y51000D01*
X151500D01*
X152000Y51500D01*
Y55000D02*Y51500D01*
X153200Y54500D02*X153700Y55000D01*
X155200D01*
X155700Y54500D01*
Y53500D01*
X153200Y51000D02*X155700Y53500D01*
X153200Y51000D02*X155700D01*
X309500Y67000D02*X310000Y66500D01*
X308000Y67000D02*X309500D01*
X307500Y66500D02*X308000Y67000D01*
X307500Y66500D02*Y65500D01*
X308000Y65000D01*
X309500D01*
X310000Y64500D01*
Y63500D01*
X309500Y63000D02*X310000Y63500D01*
X308000Y63000D02*X309500D01*
X307500Y63500D02*X308000Y63000D01*
X311200Y67000D02*Y65000D01*
X311700Y63000D01*
X312700Y65000D01*
X313700Y63000D01*
X314200Y65000D01*
Y67000D02*Y65000D01*
X315400Y66200D02*X316200Y67000D01*
Y63000D01*
X315400D02*X316900D01*
X155500Y212500D02*X156000Y212000D01*
X154000Y212500D02*X155500D01*
X153500Y212000D02*X154000Y212500D01*
X153500Y212000D02*Y211000D01*
X154000Y210500D01*
X155500D01*
X156000Y210000D01*
Y209000D01*
X155500Y208500D02*X156000Y209000D01*
X154000Y208500D02*X155500D01*
X153500Y209000D02*X154000Y208500D01*
X157200Y212500D02*Y210500D01*
X157700Y208500D01*
X158700Y210500D01*
X159700Y208500D01*
X160200Y210500D01*
Y212500D02*Y210500D01*
X161400Y212000D02*X161900Y212500D01*
X163400D01*
X163900Y212000D01*
Y211000D01*
X161400Y208500D02*X163900Y211000D01*
X161400Y208500D02*X163900D01*
M02*
