M48
INCH
T49C0.012
T48C0.129
T47C0.043
T46C0.038
%
T49
X001700Y019350
X002100Y019350
X002500Y019350
X002650Y011740
X002700Y017150
X003350Y017150
X003800Y015150
X004550Y017350
X004900Y017050
X004900Y016050
X004950Y020500
X004950Y019950
X004950Y019550
X011250Y016050
X011550Y019450
X011550Y019100
X012200Y018200
X012400Y020050
X013250Y020050
X013900Y002750
X013900Y002350
X014950Y019000
X015900Y014550
X016106Y010049
X016250Y005450
X016250Y004350
X016600Y006450
X016600Y006100
X017000Y006450
X017000Y006100
X017306Y010049
X018200Y004150
X018600Y004150
X019000Y004150
X019250Y016550
X019250Y016000
X019250Y015500
X019250Y015000
X019450Y006950
X020250Y017850
X020400Y020600
X020900Y020000
X022150Y020000
X022200Y018750
X023050Y004750
X024600Y017500
X024600Y017150
X024600Y016750
X024600Y016400
X025050Y017950
X025050Y015950
X025400Y017950
X025400Y015950
X025850Y017950
X025850Y015950
X026200Y017950
X026200Y015950
X026600Y017500
X026600Y017150
X026600Y016750
X026600Y016400
X028450Y000950
X028750Y000650
X029050Y004750
X029150Y001450
X029550Y001450
X030200Y020000
X030600Y020000
X032150Y010250
T46
X007560Y010411
X008560Y010411
X009560Y010411
X010560Y010411
T47
X016718Y002400
X018450Y002400
T48
X001700Y021300
X001700Y001700
X031800Y021300
X031800Y001700
M30
